<?xml version="1.0" standalone="no"?>
<!DOCTYPE svg PUBLIC "-//W3C//DTD SVG 20010904//EN"
 "http://www.w3.org/TR/2001/REC-SVG-20010904/DTD/svg10.dtd">
<svg version="1.0" xmlns="http://www.w3.org/2000/svg"
 width="238.000000pt" height="360.000000pt" viewBox="0 0 238.000000 360.000000"
 preserveAspectRatio="xMidYMid meet">

<g transform="translate(0.000000,360.000000) scale(0.100000,-0.100000)"
fill="#000000" stroke="none">
<path d="M487 3593 c13 -2 30 -14 38 -26 17 -24 20 -15 5 14 -7 12 -20 19 -38
18 -23 -2 -24 -2 -5 -6z"/>
<path d="M425 3549 c-4 -12 -3 -25 2 -29 4 -5 8 4 9 21 1 34 -2 37 -11 8z"/>
<path d="M251 3513 c7 -12 15 -20 18 -17 3 2 -3 12 -13 22 -17 16 -18 16 -5
-5z"/>
<path d="M435 3478 c4 -13 11 -27 16 -33 5 -5 4 5 -2 23 -12 36 -24 44 -14 10z"/>
<path d="M593 3422 c-1 -22 0 -24 9 -8 6 10 6 22 2 26 -5 5 -10 -3 -11 -18z"/>
<path d="M310 3410 c6 -11 13 -20 16 -20 2 0 0 9 -6 20 -6 11 -13 20 -16 20
-2 0 0 -9 6 -20z"/>
<path d="M630 3391 c0 -5 5 -13 10 -16 6 -3 10 -2 10 4 0 5 -4 13 -10 16 -5 3
-10 2 -10 -4z"/>
<path d="M511 3340 c12 -22 25 -38 28 -35 2 3 -1 11 -7 17 -7 7 -12 20 -12 29
0 9 -7 20 -16 23 -12 4 -10 -3 7 -34z"/>
<path d="M384 3327 c16 -20 30 -37 33 -37 7 0 -36 58 -49 66 -7 4 1 -9 16 -29z"/>
<path d="M220 3301 c0 -5 7 -15 17 -22 15 -13 15 -12 4 9 -12 23 -21 28 -21
13z"/>
<path d="M440 3267 c0 -3 24 -25 53 -48 28 -24 46 -36 38 -26 -16 20 -91 81
-91 74z"/>
<path d="M558 3254 c6 -11 29 -42 51 -69 48 -58 50 -69 16 -63 -14 3 -25 1
-25 -3 0 -5 3 -9 8 -10 71 -5 91 -4 78 3 -8 4 -38 38 -67 76 -64 81 -75 93
-61 66z"/>
<path d="M250 3256 c0 -17 62 -96 83 -106 l22 -11 -21 18 c-11 10 -35 38 -52
62 -18 24 -32 41 -32 37z"/>
<path d="M1150 3227 c-25 -12 -71 -33 -102 -48 l-57 -27 -38 25 c-51 33 -14 2
90 -75 55 -40 90 -60 101 -56 9 3 16 1 16 -6 0 -6 -4 -8 -10 -5 -5 3 -10 2
-10 -4 0 -5 9 -9 19 -8 11 0 18 4 15 8 -9 15 37 20 71 8 35 -13 35 -13 30 -64
-19 -163 -48 -286 -74 -308 -10 -9 -51 -17 -106 -21 -49 -3 -109 -9 -132 -12
-48 -7 -53 1 -23 36 14 16 32 24 54 24 19 1 32 4 30 8 -3 4 4 12 13 18 16 10
16 11 -2 4 -11 -4 -28 -7 -37 -8 -10 0 -18 -4 -18 -8 0 -4 -6 -8 -14 -8 -8 0
-30 -19 -48 -42 -18 -23 -55 -63 -81 -89 -38 -36 -54 -45 -75 -42 -26 3 -26 3
-4 -7 26 -11 55 4 101 54 14 14 28 26 33 26 5 0 8 -26 7 -57 -2 -79 0 -85 56
-138 28 -26 41 -44 31 -41 -15 5 -17 4 -8 -7 7 -8 9 -16 6 -20 -3 -3 1 -16 10
-29 17 -25 34 -118 20 -105 -5 5 -9 14 -9 20 0 7 -9 13 -20 15 -17 3 -14 -2
12 -30 24 -24 34 -46 38 -78 2 -25 14 -97 24 -160 l20 -115 -35 -114 c-19 -63
-35 -116 -37 -117 -1 -1 -30 -16 -65 -33 l-62 -31 -48 24 c-26 13 -84 34 -130
46 -49 13 -97 34 -120 51 -74 57 -111 78 -165 94 -51 15 -56 19 -86 75 -18 33
-29 65 -25 71 5 8 -8 9 -42 5 -27 -3 -60 -7 -74 -7 -21 -1 -22 -2 -7 -11 10
-5 26 -7 36 -3 15 4 30 -9 68 -62 l50 -68 7 -120 c8 -143 6 -138 163 -303 103
-107 110 -112 148 -112 57 0 275 -23 275 -30 -1 -24 -21 -33 -69 -27 -32 4
-51 2 -51 -4 0 -6 -12 -26 -27 -46 -26 -34 -27 -37 -9 -47 57 -33 99 -84 59
-69 -10 3 -15 3 -12 -1 10 -11 61 -18 55 -7 -3 5 -3 11 1 14 5 2 2 2 -4 1 -7
-2 -13 3 -13 10 0 7 -12 19 -27 26 l-28 14 25 4 c14 2 29 8 34 13 11 10 56
-28 56 -48 0 -7 6 -13 13 -13 6 0 1 -10 -13 -21 l-25 -20 24 12 c22 10 27 9
40 -11 55 -80 71 -137 34 -123 -11 4 -14 2 -9 -5 8 -14 -55 -75 -100 -97 -16
-8 -38 -23 -49 -35 -12 -13 -31 -20 -56 -20 -21 0 -40 -4 -43 -9 -10 -16 78 1
99 19 11 9 37 27 57 39 30 18 41 20 59 11 18 -10 31 -5 92 36 40 26 74 51 75
56 2 4 16 8 31 8 16 0 37 10 51 25 13 14 29 25 36 25 7 0 28 9 46 20 18 10 52
26 75 34 l42 15 -6 -29 c-4 -23 2 -38 27 -70 l33 -41 -16 -76 -15 -76 34 -37
c38 -42 64 -105 58 -141 -4 -19 10 -39 61 -94 61 -66 89 -105 235 -333 33 -50
61 -92 63 -92 1 0 3 9 3 19 0 11 -3 18 -7 15 -4 -2 -45 56 -90 128 -92 148
-105 167 -167 239 -24 28 -39 55 -36 62 4 7 3 9 -1 4 -12 -11 -45 23 -45 46 0
11 3 17 7 14 3 -4 19 15 35 43 15 27 37 54 47 60 11 5 23 19 26 31 4 12 12 18
21 15 7 -3 16 -1 19 5 4 5 12 6 18 2 7 -4 6 1 -2 10 -11 14 -17 15 -30 6 -9
-6 -3 0 12 15 30 28 50 27 40 -2 -4 -11 4 -8 24 11 16 15 37 27 47 27 9 0 15
4 12 9 -8 12 -72 7 -90 -8 -8 -7 -21 -9 -28 -5 -7 4 -10 4 -6 -1 8 -8 -51 -51
-64 -47 -5 1 -8 -2 -8 -8 0 -5 -5 -10 -10 -10 -6 0 -21 -10 -33 -21 -12 -12
-16 -19 -9 -15 6 4 12 3 12 -2 0 -6 -11 -13 -25 -16 -14 -4 -23 -11 -20 -16 4
-6 11 -8 16 -5 5 3 6 -1 3 -9 -3 -9 -11 -16 -17 -16 -6 0 -7 3 -4 7 4 3 0 15
-10 25 -13 15 -14 18 -1 18 8 0 21 11 28 25 7 14 24 32 37 40 12 9 23 22 23
30 0 9 6 12 15 9 8 -4 15 -1 15 5 0 6 12 16 26 21 14 6 23 14 20 19 -3 5 2 8
11 7 9 0 18 5 21 13 3 10 -2 11 -19 6 -13 -4 -26 -12 -27 -16 -2 -5 -8 -6 -13
-3 -6 3 -15 2 -22 -4 -18 -13 -49 -23 -43 -13 3 5 0 11 -8 14 -8 3 -13 -1 -12
-10 0 -10 -18 -26 -47 -40 -42 -22 -47 -27 -41 -51 l6 -27 -20 24 c-15 19 -17
31 -11 65 5 22 8 44 9 47 0 4 18 14 41 23 22 9 37 20 34 25 -3 5 0 13 6 17 8
4 9 3 5 -4 -4 -7 -3 -12 3 -12 5 0 12 4 15 9 3 4 41 11 85 15 44 3 132 17 195
30 81 16 118 20 125 13 18 -18 12 -28 -8 -17 -19 9 -28 9 -68 -7 -23 -8 -24
-8 -55 -17 -50 -14 -30 -21 60 -21 97 0 169 -25 164 -56 -1 -10 19 -50 46 -90
44 -68 152 -256 152 -266 0 -2 13 -32 29 -66 54 -114 61 -138 61 -213 0 -59 3
-74 15 -74 28 0 19 91 -19 187 -38 94 -37 99 10 156 22 26 24 38 24 133 0 63
-4 104 -10 104 -5 0 -10 -9 -10 -20 0 -11 -9 -29 -19 -39 -11 -11 -17 -21 -15
-24 2 -2 -2 -10 -11 -17 -8 -7 -15 -18 -15 -24 0 -6 -9 -24 -19 -39 l-18 -29
-62 107 c-33 59 -61 110 -61 113 0 3 10 -5 23 -18 12 -14 21 -28 19 -33 -1 -5
2 -5 8 -2 6 4 20 -1 31 -11 22 -20 25 -8 4 20 -20 27 -19 41 3 25 15 -13 16
-12 3 3 -7 10 -16 16 -20 14 -4 -3 -26 15 -49 40 -24 24 -50 44 -59 44 -12 0
-11 4 5 18 11 9 32 37 46 62 14 25 30 44 37 42 7 -2 9 4 6 12 -4 9 -2 15 4 13
6 -1 24 15 41 35 26 31 29 40 18 53 -7 8 -9 15 -4 15 5 0 2 5 -6 11 -12 8 -10
9 7 4 12 -3 24 -1 28 5 3 5 2 10 -4 10 -5 0 1 19 14 41 13 23 21 48 18 55 -3
8 0 14 6 14 6 0 11 5 11 10 0 6 -9 10 -20 10 -11 0 -20 5 -20 10 0 6 4 10 8
10 5 0 15 12 22 27 13 28 13 28 25 -30 13 -62 35 -99 35 -60 0 12 -4 25 -10
28 -5 3 -10 21 -10 40 0 19 -5 45 -11 59 -9 19 -9 32 0 55 14 33 -1 77 -21 65
-6 -4 -8 -3 -5 3 4 6 0 28 -9 49 -14 34 -14 41 -1 70 15 30 14 33 -4 50 -10 9
-19 25 -19 36 0 11 -14 25 -36 36 -35 16 -36 18 -30 59 5 38 3 45 -20 60 -22
14 -25 21 -19 50 7 37 6 38 -235 453 l-108 185 9 57 c5 31 13 68 18 81 6 14 7
34 5 44 -3 12 5 36 20 58 25 36 26 44 26 171 l0 132 -60 55 c-91 82 -143 106
-252 118 -78 8 -96 13 -110 31 -16 22 -17 22 -71 5 -75 -24 -83 -22 -161 23
-37 22 -69 40 -70 39 0 0 -21 -10 -46 -22z m361 -450 c-10 -9 -11 -8 -5 6 3
10 9 15 12 12 3 -3 0 -11 -7 -18z m183 -2 c-9 -14 -19 -23 -22 -20 -5 4 26 45
35 45 2 0 -4 -11 -13 -25z m-144 -33 c0 -5 -7 -17 -16 -28 -8 -10 -14 -14 -11
-9 2 6 7 18 10 28 7 17 17 23 17 9z m-50 -56 c0 -2 -8 -10 -17 -17 -16 -13
-17 -12 -4 4 13 16 21 21 21 13z m-319 -394 c-4 -77 -21 -75 -21 3 0 54 3 66
12 57 7 -7 11 -32 9 -60z m-81 -52 c4 0 6 -15 4 -32 -1 -18 -3 -51 -3 -72 -1
-24 -5 -36 -10 -30 -12 13 -22 126 -10 119 5 -3 7 7 5 22 -2 15 -1 20 1 11 2
-10 8 -18 13 -18z m155 -22 l16 -33 -21 24 c-11 13 -20 27 -20 32 0 18 10 8
25 -23z m-23 -130 c9 -18 19 -44 23 -58 6 -24 5 -24 -10 3 -21 36 -38 35 -31
-3 15 -77 17 -95 8 -80 -10 16 -26 85 -25 108 2 50 4 62 11 62 4 0 15 -15 24
-32z m87 -125 c40 -56 40 -56 5 -18 -19 22 -40 48 -45 58 -19 34 -1 16 40 -40z
m-230 -210 c-1 -16 -1 -32 1 -38 5 -21 -1 -35 -15 -35 -8 0 -14 -5 -12 -11 1
-6 -3 -13 -10 -16 -7 -2 -10 3 -8 14 2 10 4 24 4 31 1 6 8 12 17 12 12 0 14 3
6 13 -12 14 -5 57 9 57 5 0 9 -12 8 -27z m138 -45 c-3 -7 -5 -2 -5 12 0 14 2
19 5 13 2 -7 2 -19 0 -25z m-63 -70 c3 -13 1 -27 -5 -33 -7 -7 -8 -4 -3 10 7
20 6 20 -12 1 -14 -13 -15 -20 -6 -23 6 -3 10 -9 6 -14 -7 -12 -44 8 -44 24 0
19 30 57 44 57 8 0 16 -10 20 -22z m373 -110 c-3 -7 -5 -2 -5 12 0 14 2 19 5
13 2 -7 2 -19 0 -25z m780 -181 c25 9 22 -18 -5 -44 -34 -33 -50 -96 -30 -120
10 -13 9 -18 -7 -29 -10 -8 -14 -14 -8 -14 8 0 8 -7 0 -25 -7 -14 -17 -23 -23
-21 -7 3 -10 -4 -7 -17 3 -15 2 -18 -4 -9 -20 27 -163 -75 -163 -115 0 -19 10
-16 31 9 11 11 19 18 19 14 0 -4 10 4 23 17 12 13 30 26 40 30 9 3 17 11 17
17 0 5 7 10 15 10 8 0 12 -6 9 -15 -3 -8 -9 -13 -13 -12 -7 2 -62 -46 -121
-106 l-27 -29 -11 29 c-5 15 -13 36 -17 46 -4 10 -3 17 4 17 7 0 22 11 34 24
58 62 77 87 77 96 0 5 5 10 12 10 6 0 9 3 5 6 -3 4 1 20 9 36 11 22 13 33 5
41 -8 8 -11 7 -11 -3 0 -7 -2 -11 -5 -8 -7 6 27 77 36 78 7 0 4 -93 -3 -107
-2 -4 -3 -18 -2 -30 0 -13 -3 -23 -7 -23 -5 0 -9 -4 -9 -10 0 -22 18 -8 33 28
44 99 51 132 33 144 -8 5 -7 8 2 8 13 0 17 32 5 43 -3 4 -13 2 -20 -5 -9 -7
-6 6 8 34 l22 46 21 -23 c12 -12 26 -20 33 -18z m-176 6 c-12 -20 -14 -14 -5
12 4 9 9 14 11 11 3 -2 0 -13 -6 -23z m-832 -79 c2 -2 -12 -4 -32 -4 -20 0
-38 4 -42 9 -5 9 64 4 74 -5z m156 -84 l20 -9 -20 0 c-11 0 -27 4 -35 9 -13 9
-13 10 0 9 8 0 24 -4 35 -9z m40 -60 c3 -5 2 -10 -4 -10 -5 0 -13 5 -16 10 -3
6 -2 10 4 10 5 0 13 -4 16 -10z m132 -16 c-3 -3 -12 -4 -19 -1 -8 3 -5 6 6 6
11 1 17 -2 13 -5z m613 -119 c0 -7 -7 -16 -16 -19 -8 -3 -12 -11 -8 -17 4 -7
3 -9 -3 -6 -5 3 -24 -7 -42 -23 -41 -38 -45 -38 -25 2 33 63 94 104 94 63z
m-610 -1 c0 -2 -11 -4 -25 -4 -14 0 -25 4 -25 9 0 4 11 6 25 3 14 -2 25 -6 25
-8z m35 -44 c3 -5 -1 -10 -10 -10 -9 0 -13 5 -10 10 3 6 8 10 10 10 2 0 7 -4
10 -10z m366 -38 c6 -20 16 -42 21 -49 7 -9 2 -10 -18 -4 -15 4 -37 19 -48 34
-19 26 -19 27 -1 47 22 24 30 20 46 -28z m-261 7 c0 -5 -12 -8 -27 -8 -24 2
-25 2 -5 6 13 3 19 9 16 15 -4 7 -2 8 4 4 7 -4 12 -11 12 -17z m-173 -15 c-3
-3 -12 -4 -19 -1 -8 3 -5 6 6 6 11 1 17 -2 13 -5z m-107 -58 c0 -3 -4 -8 -10
-11 -5 -3 -10 -1 -10 4 0 6 5 11 10 11 6 0 10 -2 10 -4z m260 -90 c0 -2 -6 -9
-14 -15 -11 -9 -16 -9 -22 0 -4 7 -3 9 4 5 6 -3 13 -2 17 4 6 10 15 14 15 6z
m-254 -51 c-8 -8 -18 -15 -22 -15 -3 0 -1 7 6 15 7 8 17 15 22 15 5 0 3 -7 -6
-15z"/>
<path d="M2214 988 l-19 -23 23 19 c21 18 27 26 19 26 -2 0 -12 -10 -23 -22z"/>
<path d="M853 3200 c-19 -21 -48 -26 -58 -10 -12 20 -26 10 -14 -11 7 -13 17
-19 29 -16 15 4 17 1 11 -16 -4 -11 -17 -21 -29 -22 -12 -1 -25 -5 -29 -10 -5
-4 0 -5 11 -1 14 5 17 2 12 -9 -5 -13 -1 -12 19 2 13 10 25 26 25 36 0 25 47
70 66 63 9 -3 12 -1 9 4 -10 16 -34 11 -52 -10z"/>
<path d="M0 3183 c0 -4 11 -13 25 -20 14 -6 23 -7 19 -2 -8 13 -44 31 -44 22z"/>
<path d="M110 3120 c8 -5 20 -10 25 -10 6 0 3 5 -5 10 -8 5 -19 10 -25 10 -5
0 -3 -5 5 -10z"/>
<path d="M170 3095 c14 -8 34 -14 45 -14 11 0 2 6 -20 14 -50 18 -57 18 -25 0z"/>
<path d="M275 3070 c27 -12 43 -12 25 0 -8 5 -22 9 -30 9 -10 0 -8 -3 5 -9z"/>
<path d="M754 3059 c-19 -22 -19 -22 4 -10 12 6 22 16 22 21 0 15 -5 12 -26
-11z"/>
<path d="M895 3040 c-14 -22 -30 -40 -35 -40 -6 0 -10 -5 -10 -12 0 -6 -10
-22 -21 -34 -19 -21 -20 -22 -3 -18 11 3 26 20 34 37 10 22 23 32 38 33 13 1
28 6 34 12 8 8 5 9 -11 5 -25 -6 -27 4 -5 35 8 12 13 22 10 22 -3 0 -17 -18
-31 -40z"/>
<path d="M4 3031 c7 -11 46 -35 46 -28 0 3 -12 12 -26 22 -15 9 -23 12 -20 6z"/>
<path d="M450 3020 c20 -13 43 -13 35 0 -3 6 -16 10 -28 10 -18 0 -19 -2 -7
-10z"/>
<path d="M706 3014 c-9 -8 -16 -20 -16 -26 0 -6 1 -9 3 -7 1 2 11 14 21 27 22
25 16 30 -8 6z"/>
<path d="M505 3000 c4 -6 11 -8 16 -5 14 9 11 15 -7 15 -8 0 -12 -5 -9 -10z"/>
<path d="M985 3000 c-3 -6 1 -7 9 -4 18 7 21 14 7 14 -6 0 -13 -4 -16 -10z"/>
<path d="M71 2997 c2 -2 18 -11 34 -22 l30 -18 -19 21 c-11 12 -26 22 -34 22
-9 0 -13 -1 -11 -3z"/>
<path d="M505 2980 l-30 -8 27 -1 c15 0 30 4 33 9 3 6 5 9 3 9 -2 -1 -16 -5
-33 -9z"/>
<path d="M481 2916 l-24 -31 28 27 c16 15 27 29 24 31 -2 3 -15 -10 -28 -27z"/>
<path d="M1221 2934 c0 -11 3 -14 6 -6 3 7 2 16 -1 19 -3 4 -6 -2 -5 -13z"/>
<path d="M198 2928 c6 -6 18 -8 28 -6 14 3 12 5 -9 10 -19 3 -25 2 -19 -4z"/>
<path d="M274 2916 c11 -9 24 -16 30 -16 12 0 7 5 -24 19 -24 11 -24 11 -6 -3z"/>
<path d="M405 2870 c18 -19 17 -20 -2 -20 -21 0 -118 -81 -173 -144 l-30 -34
42 5 c27 3 52 14 66 29 25 26 28 27 119 28 62 1 63 1 63 -27 0 -16 -5 -37 -11
-49 -6 -11 -8 -22 -6 -25 9 -8 27 34 36 80 7 40 6 45 -31 82 -20 22 -43 52
-49 68 -6 15 -18 27 -27 27 -13 0 -12 -3 3 -20z"/>
<path d="M1160 2821 c-25 -24 -36 -39 -25 -33 22 12 81 70 74 74 -2 2 -24 -17
-49 -41z"/>
<path d="M615 2830 c-3 -5 -1 -10 4 -10 6 0 11 5 11 10 0 6 -2 10 -4 10 -3 0
-8 -4 -11 -10z"/>
<path d="M697 2819 c-3 -12 0 -19 8 -19 20 0 25 13 10 27 -10 9 -14 8 -18 -8z"/>
<path d="M947 2819 c7 -7 15 -10 18 -7 3 3 -2 9 -12 12 -14 6 -15 5 -6 -5z"/>
<path d="M826 2722 c-3 -4 4 -9 15 -9 23 -2 25 3 4 10 -8 4 -16 3 -19 -1z"/>
<path d="M139 2643 c-13 -15 -12 -15 9 -4 23 12 28 21 13 21 -5 0 -15 -7 -22
-17z"/>
<path d="M361 2573 c-17 -7 -91 -78 -91 -88 0 -4 12 6 28 21 15 16 41 39 57
51 30 22 32 26 6 16z"/>
<path d="M570 2560 c8 -5 20 -10 25 -10 6 0 3 5 -5 10 -8 5 -19 10 -25 10 -5
0 -3 -5 5 -10z"/>
<path d="M82 2539 c-12 -19 -11 -19 8 -9 11 6 20 15 20 20 0 17 -15 11 -28
-11z"/>
<path d="M595 2520 c3 -5 8 -10 11 -10 2 0 4 5 4 10 0 6 -5 10 -11 10 -5 0 -7
-4 -4 -10z"/>
<path d="M25 2459 c-4 -6 -5 -12 -2 -15 2 -3 7 2 10 11 7 17 1 20 -8 4z"/>
<path d="M440 2440 l-35 -30 32 15 c17 9 34 22 37 30 7 20 7 19 -34 -15z"/>
<path d="M150 2440 c0 -5 5 -10 11 -10 5 0 7 5 4 10 -3 6 -8 10 -11 10 -2 0
-4 -4 -4 -10z"/>
<path d="M870 2439 c0 -5 5 -7 10 -4 6 3 10 8 10 11 0 2 -4 4 -10 4 -5 0 -10
-5 -10 -11z"/>
<path d="M236 2424 c-8 -22 17 -60 52 -78 27 -14 30 -13 67 21 39 34 39 34 4
9 -20 -14 -44 -26 -53 -26 -27 0 -68 47 -61 70 8 24 0 27 -9 4z"/>
<path d="M11 2414 c0 -11 3 -14 6 -6 3 7 2 16 -1 19 -3 4 -6 -2 -5 -13z"/>
<path d="M926 2365 c3 -8 10 -13 14 -10 5 3 11 -1 13 -7 4 -10 6 -10 6 -1 1 7
-8 17 -19 23 -16 9 -18 8 -14 -5z"/>
<path d="M6 2344 c-8 -20 -4 -25 11 -16 7 4 9 13 4 21 -6 10 -10 9 -15 -5z"/>
<path d="M892 2290 c0 -14 2 -19 5 -12 2 6 2 18 0 25 -3 6 -5 1 -5 -13z"/>
<path d="M900 2229 c0 -5 5 -7 10 -4 6 3 10 8 10 11 0 2 -4 4 -10 4 -5 0 -10
-5 -10 -11z"/>
<path d="M9 2203 c5 -10 22 -29 37 -43 24 -22 23 -20 -6 18 -35 44 -47 54 -31
25z"/>
<path d="M776 2114 c-9 -8 -16 -20 -16 -26 0 -6 1 -9 3 -7 1 2 11 14 21 27 22
25 16 30 -8 6z"/>
<path d="M712 1985 c-6 -14 -7 -25 -2 -25 9 0 25 39 18 46 -3 2 -10 -7 -16
-21z"/>
<path d="M100 1961 c0 -5 7 -12 16 -15 14 -5 15 -4 4 9 -14 17 -20 19 -20 6z"/>
<path d="M676 1915 c-16 -24 -15 -25 3 -25 12 0 20 9 23 25 3 14 2 25 -2 25
-4 0 -15 -11 -24 -25z"/>
<path d="M733 1915 c-3 -9 -3 -18 -1 -21 3 -3 8 4 11 16 6 23 -1 27 -10 5z"/>
<path d="M550 1818 l-25 -10 24 -9 c18 -7 27 -6 33 3 5 9 8 8 8 -5 0 -10 5
-15 10 -12 31 19 -13 47 -50 33z"/>
<path d="M428 1803 c7 -3 16 -2 19 1 4 3 -2 6 -13 5 -11 0 -14 -3 -6 -6z"/>
<path d="M478 1803 c6 -2 18 -2 25 0 6 3 1 5 -13 5 -14 0 -19 -2 -12 -5z"/>
<path d="M962 1768 c-11 -18 -34 -46 -51 -62 -30 -29 -45 -60 -18 -37 8 6 17
7 21 3 4 -4 7 -2 5 3 -4 17 13 45 27 45 17 0 17 -5 3 -33 -10 -18 -9 -20 2 -9
13 12 41 113 34 120 -1 2 -12 -12 -23 -30z"/>
<path d="M730 1676 c0 -2 8 -10 18 -17 15 -13 16 -12 3 4 -13 16 -21 21 -21
13z"/>
<path d="M897 1642 c-20 -13 -29 -14 -35 -5 -5 8 -14 6 -32 -8 l-25 -19 38 4
c35 4 87 29 87 41 0 6 0 6 -33 -13z"/>
<path d="M565 1130 c3 -5 14 -10 23 -10 15 0 15 2 2 10 -20 13 -33 13 -25 0z"/>
<path d="M675 1110 c-22 -4 -34 -8 -27 -9 8 0 10 -6 6 -13 -6 -10 -4 -10 7 0
7 6 28 12 47 12 19 0 31 4 27 10 -3 6 -9 9 -13 9 -4 -1 -25 -5 -47 -9z"/>
<path d="M623 1053 c0 -7 3 -11 5 -8 3 3 12 -1 21 -8 14 -10 14 -10 4 4 -7 9
-11 18 -8 21 3 2 -1 5 -8 5 -8 0 -14 -6 -14 -14z"/>
<path d="M2328 1023 c-46 -48 -62 -79 -47 -89 6 -3 14 -3 18 2 3 5 23 20 43
34 31 20 38 31 38 58 0 17 -4 32 -8 32 -4 0 -24 -17 -44 -37z"/>
<path d="M514 1031 c0 -10 7 -18 16 -17 10 1 14 -6 12 -24 -4 -21 -2 -23 12
-10 13 10 20 10 28 2 17 -17 33 -15 18 3 -7 8 -17 15 -23 15 -6 0 -23 11 -37
25 -23 22 -26 22 -26 6z"/>
<path d="M445 1004 c-19 -16 -19 -16 5 -9 14 4 32 11 40 16 12 7 11 8 -5 8
-11 0 -29 -7 -40 -15z"/>
<path d="M630 999 c-7 -13 -7 -19 0 -19 5 0 10 5 10 11 0 6 11 9 25 7 14 -2
25 -7 23 -13 -1 -5 11 -13 28 -16 16 -3 28 -10 27 -16 -1 -5 10 -15 25 -22 25
-11 26 -10 8 4 -19 15 -19 15 1 15 12 0 25 5 28 10 3 6 0 10 -7 10 -33 0 -88
22 -82 32 4 6 3 8 -3 5 -6 -4 -24 -2 -42 3 -26 7 -33 5 -41 -11z"/>
<path d="M490 996 c0 -2 7 -7 16 -10 8 -3 12 -2 9 4 -6 10 -25 14 -25 6z"/>
<path d="M649 963 c-21 -13 -22 -14 -3 -10 12 2 29 0 38 -5 19 -11 21 -2 3 17
-11 10 -18 10 -38 -2z"/>
<path d="M820 961 c0 -5 7 -11 15 -15 8 -3 15 -15 15 -28 0 -16 3 -19 11 -11
8 8 7 17 -2 32 -14 22 -39 36 -39 22z"/>
<path d="M522 870 c0 -14 2 -19 5 -12 2 6 2 18 0 25 -3 6 -5 1 -5 -13z"/>
<path d="M807 869 c7 -7 15 -10 18 -7 3 3 -2 9 -12 12 -14 6 -15 5 -6 -5z"/>
<path d="M840 876 c0 -2 7 -9 15 -16 13 -11 14 -10 9 4 -5 14 -24 23 -24 12z"/>
<path d="M420 859 c0 -5 5 -7 10 -4 6 3 10 8 10 11 0 2 -4 4 -10 4 -5 0 -10
-5 -10 -11z"/>
<path d="M2365 860 c-3 -5 -3 -15 1 -22 4 -6 3 -8 -4 -5 -15 10 -62 -75 -55
-101 9 -36 31 -25 58 28 18 34 18 35 -1 20 -18 -14 -18 -14 -3 10 9 14 17 38
17 53 0 29 -3 33 -13 17z m-22 -76 c-10 -19 -19 -31 -21 -25 -3 9 26 61 34 61
2 0 -4 -16 -13 -36z"/>
<path d="M1919 794 c-31 -13 -40 -24 -58 -73 -24 -66 -25 -71 -11 -71 6 0 10
7 10 15 0 8 11 17 25 21 14 3 23 9 20 13 -6 11 22 49 45 61 16 8 18 8 14 -5
-9 -21 6 -19 33 7 21 20 21 22 5 34 -22 17 -38 17 -83 -2z"/>
<path d="M430 780 c0 -11 4 -20 9 -20 5 0 7 9 4 20 -3 11 -7 20 -9 20 -2 0 -4
-9 -4 -20z"/>
<path d="M510 760 c-8 -16 -6 -21 12 -31 19 -9 21 -9 11 2 -15 15 -17 33 -3
24 6 -3 7 1 4 9 -8 21 -11 20 -24 -4z"/>
<path d="M1930 735 c-7 -9 -11 -18 -8 -20 3 -3 11 1 18 10 7 9 11 18 8 20 -3
3 -11 -1 -18 -10z"/>
<path d="M2002 741 c-8 -4 -13 -12 -13 -17 1 -15 -10 -44 -17 -44 -4 0 -8 -17
-10 -37 -1 -20 -7 -42 -14 -50 -8 -10 -8 -17 0 -25 7 -7 12 -21 12 -31 0 -13
5 -17 16 -13 8 3 12 2 9 -3 -3 -5 -1 -12 4 -15 11 -7 24 20 27 54 1 14 3 27 4
30 1 3 3 25 4 50 1 25 5 55 10 68 5 14 3 22 -4 22 -6 0 -8 5 -5 10 8 12 -5 13
-23 1z m1 -161 c3 -11 1 -18 -4 -14 -5 3 -9 12 -9 20 0 20 7 17 13 -6z m-8
-30 c3 -5 1 -10 -4 -10 -6 0 -11 5 -11 10 0 6 2 10 4 10 3 0 8 -4 11 -10z"/>
<path d="M2372 700 c0 -19 2 -27 5 -17 2 9 2 25 0 35 -3 9 -5 1 -5 -18z"/>
<path d="M551 696 c15 -16 21 -17 55 -5 25 8 33 14 22 17 -9 2 -26 -2 -38 -8
-16 -9 -25 -8 -38 1 -16 12 -16 12 -1 -5z"/>
<path d="M2062 640 c-12 -33 -16 -60 -11 -60 5 0 9 6 9 13 0 9 2 9 9 -1 4 -7
6 -24 4 -36 -3 -13 -1 -26 5 -30 5 -3 13 13 17 37 13 70 14 97 3 97 -5 0 -6 9
-3 20 3 11 2 20 -3 20 -6 0 -19 -27 -30 -60z"/>
<path d="M1885 640 c-3 -6 1 -7 9 -4 18 7 21 14 7 14 -6 0 -13 -4 -16 -10z"/>
<path d="M1613 523 c4 -6 -7 -9 -23 -8 -49 3 -48 -29 2 -39 7 -2 21 -6 31 -11
10 -4 24 -2 34 6 10 8 14 9 10 2 -10 -16 6 -24 23 -12 11 8 12 12 3 15 -7 3
-9 12 -6 20 3 7 9 11 14 8 5 -3 7 -10 4 -15 -3 -5 1 -6 10 -3 24 10 1 31 -35
32 -17 0 -40 4 -51 7 -13 4 -19 3 -16 -2z"/>
<path d="M1740 491 c0 -17 6 -33 13 -35 6 -2 27 -8 46 -14 19 -7 36 -10 38 -9
3 3 -5 7 -67 36 -14 6 -16 9 -6 6 20 -6 20 -6 1 17 -11 13 -21 25 -22 27 -2 2
-3 -10 -3 -28z"/>
<path d="M1710 470 c0 -5 5 -10 10 -10 6 0 10 5 10 10 0 6 -4 10 -10 10 -5 0
-10 -4 -10 -10z"/>
<path d="M1830 151 c0 -6 4 -13 10 -16 6 -3 7 1 4 9 -7 18 -14 21 -14 7z"/>
</g>
</svg>
