<?xml version="1.0" standalone="no"?>
<!DOCTYPE svg PUBLIC "-//W3C//DTD SVG 20010904//EN"
 "http://www.w3.org/TR/2001/REC-SVG-20010904/DTD/svg10.dtd">
<svg version="1.0" xmlns="http://www.w3.org/2000/svg"
 width="162pt" height="168pt" viewBox="0 0 162 168"
 preserveAspectRatio="xMidYMid meet">

<g transform="translate(0.000000,1200.000000) scale(0.100000,-0.100000)"
fill="#000000" stroke="none">
<path d="M0 6000 l0 -6000 6000 0 6000 0 0 6000 0 6000 -6000 0 -6000 0 0
-6000z m6460 3711 c15 -9 70 -17 142 -22 76 -4 126 -12 140 -21 13 -8 51 -18
86 -21 34 -4 80 -16 102 -27 25 -13 59 -20 93 -20 38 0 62 -6 78 -18 13 -11
44 -22 68 -26 24 -4 55 -16 69 -26 15 -12 40 -20 63 -20 20 0 44 -7 52 -15 8
-8 34 -19 56 -24 23 -5 51 -15 64 -23 12 -8 40 -21 62 -28 22 -7 44 -19 48
-26 4 -8 16 -14 25 -14 9 0 51 -20 92 -45 41 -25 80 -45 85 -45 6 0 44 -20 84
-45 40 -25 76 -45 81 -45 4 0 13 -7 21 -16 7 -9 30 -22 50 -31 21 -8 40 -21
43 -29 3 -8 14 -14 25 -14 10 0 43 -19 73 -43 29 -24 61 -46 71 -50 9 -3 17
-13 17 -22 0 -8 6 -15 14 -15 7 0 36 -20 62 -45 27 -25 57 -45 67 -45 10 0 22
-11 27 -25 5 -14 15 -25 23 -25 7 0 20 -8 28 -17 9 -10 33 -31 52 -48 20 -16
37 -36 37 -42 0 -7 4 -13 10 -13 14 0 205 -191 213 -212 4 -10 13 -18 22 -18
8 0 15 -5 15 -10 0 -6 11 -20 25 -32 14 -12 25 -28 25 -35 0 -7 6 -13 14 -13
8 0 18 -9 21 -20 3 -11 15 -25 26 -30 10 -6 19 -16 19 -23 0 -7 23 -37 50 -67
28 -30 50 -61 50 -68 0 -7 7 -15 15 -18 8 -4 15 -12 15 -19 0 -8 11 -27 25
-43 14 -17 25 -34 25 -39 0 -6 11 -22 25 -37 14 -15 25 -36 25 -46 0 -11 9
-24 19 -30 11 -5 22 -24 26 -40 4 -17 15 -36 26 -43 10 -6 19 -22 19 -34 0
-13 6 -23 13 -23 8 0 19 -17 25 -39 7 -21 19 -44 27 -51 8 -7 17 -27 21 -45 3
-19 12 -36 20 -39 8 -3 14 -11 14 -18 0 -7 14 -40 30 -73 16 -33 30 -66 30
-73 0 -8 8 -26 19 -40 10 -15 21 -43 24 -62 6 -37 42 -149 97 -300 7 -19 20
-66 30 -103 10 -37 23 -74 29 -81 6 -7 15 -58 21 -112 5 -55 16 -133 24 -174
53 -282 64 -395 60 -649 -3 -155 -9 -249 -24 -340 -11 -69 -28 -169 -36 -221
-25 -152 -74 -379 -99 -455 -13 -38 -26 -86 -30 -105 -4 -19 -11 -39 -15 -45
-4 -5 -13 -33 -20 -62 -6 -29 -18 -57 -26 -64 -8 -6 -14 -26 -14 -43 0 -17 -8
-45 -19 -61 -10 -17 -24 -48 -31 -70 -7 -22 -18 -47 -25 -55 -7 -8 -15 -27
-19 -42 -3 -15 -12 -33 -19 -40 -8 -7 -17 -25 -20 -39 -4 -14 -16 -36 -27 -49
-11 -13 -20 -31 -20 -40 0 -9 -8 -25 -17 -36 -20 -23 -46 -64 -67 -110 -8 -17
-22 -36 -30 -44 -9 -7 -16 -18 -16 -26 0 -7 -11 -25 -25 -40 -14 -15 -25 -34
-25 -42 0 -8 -7 -22 -15 -31 -34 -37 -72 -87 -78 -103 -4 -10 -11 -18 -16 -18
-5 0 -12 -9 -16 -19 -3 -11 -22 -37 -41 -58 -20 -21 -42 -50 -50 -65 -8 -15
-23 -32 -34 -38 -11 -6 -20 -15 -20 -21 0 -6 -49 -61 -109 -121 -61 -61 -124
-126 -141 -144 -17 -19 -35 -34 -40 -34 -6 0 -10 -6 -10 -13 0 -8 -11 -19 -25
-25 -14 -6 -25 -18 -25 -27 0 -8 -6 -15 -14 -15 -8 0 -21 -8 -28 -18 -7 -10
-21 -21 -30 -25 -10 -3 -18 -13 -18 -21 0 -7 -11 -17 -24 -20 -13 -3 -34 -17
-47 -31 -13 -13 -29 -25 -36 -25 -6 0 -15 -9 -18 -20 -3 -11 -15 -20 -25 -20
-11 0 -24 -9 -30 -20 -6 -11 -15 -20 -21 -20 -6 0 -34 -20 -62 -45 -29 -25
-59 -45 -68 -45 -9 0 -27 -9 -40 -21 -13 -12 -33 -25 -44 -30 -11 -5 -40 -23
-65 -39 -25 -16 -57 -35 -72 -41 -14 -6 -29 -16 -32 -24 -2 -7 -20 -16 -38
-20 -18 -4 -40 -13 -48 -20 -8 -7 -49 -30 -90 -50 -41 -20 -86 -43 -100 -51
-14 -7 -34 -14 -45 -14 -11 0 -38 -11 -60 -25 -22 -13 -52 -25 -66 -25 -15 0
-32 -7 -39 -15 -7 -8 -28 -17 -49 -21 -20 -4 -56 -16 -81 -27 -24 -10 -63 -22
-85 -25 -22 -3 -49 -11 -60 -18 -11 -7 -49 -17 -84 -23 -35 -6 -71 -17 -80
-25 -9 -8 -50 -17 -96 -21 -44 -5 -90 -14 -102 -22 -15 -10 -69 -18 -155 -23
-73 -5 -169 -16 -213 -24 -109 -22 -517 -21 -665 0 -58 8 -148 19 -200 23 -52
4 -113 15 -135 23 -22 9 -65 19 -95 21 -30 3 -75 13 -100 22 -25 9 -65 20 -90
24 -25 4 -61 15 -80 23 -19 9 -53 20 -75 26 -22 6 -85 26 -140 46 -119 43
-146 53 -205 73 -51 18 -78 29 -100 41 -8 5 -26 15 -40 22 -14 8 -61 33 -105
57 -44 24 -99 53 -123 64 -23 11 -42 24 -42 29 0 5 -18 14 -39 20 -21 5 -42
17 -45 25 -3 8 -15 15 -26 15 -12 0 -32 11 -46 25 -14 14 -31 25 -39 25 -8 0
-18 6 -22 13 -4 7 -21 21 -38 31 -16 11 -34 23 -40 28 -5 4 -24 19 -41 33 -18
14 -35 25 -38 25 -4 0 -26 18 -49 40 -22 22 -54 46 -69 53 -16 6 -31 20 -34
29 -3 10 -12 18 -19 18 -8 0 -19 9 -25 20 -6 11 -17 20 -25 20 -7 0 -17 9 -20
20 -3 11 -11 20 -16 20 -9 0 -136 123 -201 195 -31 34 -43 47 -75 77 -13 12
-23 25 -23 29 0 12 -43 55 -62 62 -10 3 -20 18 -24 32 -4 15 -17 37 -30 50
-13 13 -24 29 -24 35 0 5 -7 10 -15 10 -9 0 -18 8 -22 18 -3 9 -12 24 -20 32
-35 38 -113 152 -113 165 0 7 -11 27 -25 43 -14 17 -25 35 -25 41 0 6 -5 11
-10 11 -6 0 -19 20 -30 45 -11 25 -24 45 -30 45 -5 0 -10 7 -10 16 0 9 -11 29
-25 46 -14 16 -25 42 -25 57 0 16 -10 37 -25 51 -14 13 -25 28 -25 34 0 16
-49 109 -61 116 -5 4 -12 24 -16 46 -3 21 -14 50 -24 63 -10 12 -21 39 -25 60
-3 20 -12 41 -20 47 -8 6 -17 33 -20 60 -4 27 -15 63 -24 79 -10 17 -21 51
-25 78 -4 26 -14 51 -21 55 -9 5 -18 37 -23 85 -5 43 -14 84 -21 92 -6 8 -16
47 -21 87 -5 40 -16 88 -25 107 -10 21 -20 79 -24 150 -5 64 -15 157 -24 206
-22 127 -22 544 0 670 9 50 19 142 23 205 5 75 13 127 24 149 9 18 19 67 23
109 4 43 15 91 24 107 9 17 19 55 22 84 3 33 12 59 21 66 10 7 18 35 23 76 3
35 13 72 21 81 9 10 19 39 24 65 5 26 16 53 24 59 8 6 15 20 15 31 0 11 11 40
23 64 13 24 27 61 31 82 4 21 13 40 20 43 8 3 17 19 20 36 3 18 12 39 20 47 7
9 19 32 25 53 7 20 18 39 25 41 8 3 16 21 20 39 3 19 15 41 26 51 11 9 20 23
20 30 0 8 9 22 20 32 11 10 20 26 20 36 0 10 8 24 18 31 10 7 24 27 31 45 7
17 19 34 27 37 8 3 14 14 14 25 0 11 9 25 20 31 11 6 20 17 20 25 0 7 11 27
25 43 14 17 25 38 25 47 0 9 9 19 20 22 11 3 20 11 20 17 0 7 11 22 25 34 13
12 27 33 31 46 3 14 15 28 25 31 10 4 19 13 19 20 0 8 9 19 20 25 11 6 20 17
20 25 0 7 9 16 19 20 10 3 21 15 24 25 3 11 12 20 21 20 9 0 16 7 16 15 0 8
11 22 25 31 14 9 25 22 25 29 0 8 9 17 20 20 11 3 20 12 20 19 0 14 30 46 81
86 17 14 42 35 54 48 12 12 27 22 34 22 6 0 11 7 11 15 0 9 11 20 25 25 14 5
25 17 25 25 0 9 8 19 18 22 9 4 23 15 30 25 7 10 17 18 22 18 8 0 41 25 81 63
11 10 31 22 44 27 14 5 25 16 25 25 0 8 5 15 11 15 6 0 24 11 41 25 16 14 36
25 43 25 8 0 19 9 25 20 6 11 19 20 30 20 11 0 24 9 30 20 6 10 26 22 45 26
21 4 37 13 40 25 4 10 13 19 22 19 9 0 31 11 49 25 18 14 38 25 44 25 7 0 23
9 37 20 14 11 33 20 43 20 9 0 25 9 34 19 10 11 31 23 48 26 16 4 32 13 35 20
2 8 17 17 33 20 16 3 38 15 51 26 12 10 33 19 46 19 13 0 44 11 69 25 25 14
55 25 69 25 13 0 30 7 39 15 8 8 30 18 48 22 18 3 46 14 63 24 16 10 55 21 85
25 30 4 66 15 79 25 15 12 40 19 68 19 24 0 61 9 82 20 21 10 70 22 107 26 38
3 84 13 103 21 18 8 81 19 140 24 58 4 135 15 171 23 93 21 792 18 830 -3z"/>
<path d="M6007 9054 c-15 -5 -17 -14 -11 -67 9 -95 -12 -320 -34 -365 -11 -20
-22 -54 -25 -76 -3 -21 -13 -46 -20 -55 -8 -9 -20 -32 -26 -53 -7 -20 -18 -39
-26 -42 -8 -3 -15 -13 -15 -22 0 -9 -20 -41 -45 -70 -25 -28 -45 -60 -45 -69
0 -9 -9 -19 -20 -22 -11 -3 -20 -10 -20 -15 0 -6 -22 -36 -50 -68 -27 -32 -50
-63 -50 -69 0 -6 -5 -11 -12 -11 -6 0 -50 -37 -97 -81 -173 -164 -212 -199
-219 -199 -10 0 -72 -60 -72 -70 0 -5 -10 -12 -22 -16 -12 -3 -43 -27 -69 -53
-59 -58 -98 -91 -110 -91 -5 0 -9 -6 -9 -14 0 -8 -9 -18 -20 -21 -11 -3 -20
-10 -20 -14 0 -12 -67 -81 -78 -81 -6 0 -14 -9 -17 -20 -3 -11 -10 -20 -14
-20 -5 0 -28 -26 -52 -57 -24 -32 -50 -62 -56 -66 -7 -4 -13 -14 -13 -22 0 -8
-9 -19 -20 -25 -11 -6 -20 -16 -20 -21 0 -6 -11 -24 -25 -41 -14 -16 -25 -38
-25 -48 0 -11 -6 -23 -14 -27 -13 -8 -34 -43 -75 -129 -11 -23 -24 -45 -30
-48 -6 -4 -11 -25 -11 -46 0 -25 -6 -42 -16 -48 -10 -5 -21 -37 -29 -80 -8
-39 -20 -81 -28 -94 -15 -23 -39 -324 -32 -398 2 -19 7 -93 11 -165 5 -92 12
-140 24 -165 10 -19 21 -51 25 -70 4 -19 16 -47 26 -62 11 -14 19 -36 19 -47
0 -19 43 -96 61 -111 3 -3 14 -20 23 -38 9 -18 24 -36 32 -39 7 -3 14 -12 14
-20 0 -8 20 -35 45 -60 25 -24 45 -48 45 -53 0 -4 9 -10 20 -13 11 -3 20 -12
20 -21 0 -9 7 -16 16 -16 9 0 27 -10 39 -22 40 -41 76 -68 90 -68 8 0 20 -8
27 -18 7 -11 30 -22 50 -26 21 -4 42 -15 47 -24 5 -10 20 -18 32 -19 13 -1 35
-11 50 -23 16 -11 37 -20 48 -20 11 0 59 -9 106 -20 109 -25 256 -27 311 -3
22 9 61 20 89 24 27 5 55 15 61 24 6 8 17 15 25 15 8 0 36 20 62 45 27 25 56
49 65 54 16 9 16 12 0 38 -14 23 -26 29 -68 34 -28 4 -59 14 -68 22 -9 8 -32
18 -50 22 -18 4 -38 15 -45 26 -6 10 -18 19 -25 19 -6 0 -20 9 -29 20 -10 11
-22 20 -27 20 -13 0 -106 102 -106 117 0 6 -9 15 -20 18 -11 3 -20 13 -20 20
0 8 -11 31 -25 51 -14 20 -25 42 -25 49 0 7 -6 15 -14 18 -7 3 -18 33 -25 66
-7 34 -17 61 -24 61 -7 0 -34 11 -62 25 -27 13 -54 25 -58 25 -11 0 -112 73
-150 108 -20 19 -107 135 -107 143 0 5 -8 22 -17 36 -10 15 -23 50 -29 77 -7
28 -19 71 -28 95 -25 66 -20 489 7 540 9 19 20 60 24 90 3 31 14 70 23 86 9
17 20 47 24 68 4 21 13 40 21 43 7 3 16 21 20 40 3 19 15 40 25 47 11 6 20 20
20 29 0 10 9 22 20 28 11 6 22 21 26 35 3 13 14 31 25 41 10 9 19 21 19 26 0
9 30 42 120 133 83 84 117 115 124 115 4 0 24 16 44 36 40 39 94 77 155 107
20 11 37 23 37 28 0 5 7 9 15 9 8 0 22 8 32 19 10 10 35 21 56 24 20 3 50 15
66 26 16 12 35 21 43 21 7 0 27 9 43 20 17 11 46 20 65 20 19 0 55 10 80 21
80 36 346 50 605 32 147 -11 185 -17 185 -33 0 -4 26 -10 58 -14 32 -4 71 -15
87 -25 17 -10 55 -21 84 -24 33 -4 58 -13 63 -21 5 -9 25 -18 46 -22 20 -3 49
-14 64 -25 15 -10 32 -19 38 -19 9 0 30 -11 105 -58 11 -7 35 -19 53 -27 18
-9 41 -23 52 -33 11 -9 29 -25 40 -34 11 -10 24 -18 30 -18 5 0 13 -6 17 -13
4 -8 22 -22 38 -32 17 -11 38 -26 47 -34 9 -9 35 -29 57 -45 23 -17 41 -35 41
-42 0 -6 10 -14 23 -18 13 -3 45 -26 71 -51 27 -25 54 -45 61 -45 7 0 15 -9
18 -20 3 -11 12 -20 20 -20 9 0 19 -9 22 -20 3 -11 11 -20 17 -20 6 0 37 -22
69 -50 32 -27 62 -50 68 -50 5 0 14 -6 18 -13 4 -8 16 -17 26 -20 11 -4 21
-16 24 -27 3 -11 11 -20 19 -20 7 0 19 -8 26 -18 7 -10 28 -24 46 -31 17 -7
32 -17 32 -22 0 -5 11 -14 25 -19 14 -5 25 -14 25 -20 0 -5 15 -16 33 -25 17
-8 53 -30 78 -49 25 -18 60 -37 78 -41 18 -4 35 -13 38 -21 3 -7 21 -17 41
-20 21 -4 48 -15 62 -25 14 -9 46 -20 72 -24 25 -3 52 -13 58 -20 9 -11 34
-15 86 -15 l74 0 0 48 c0 30 -9 65 -25 97 -13 28 -25 65 -25 83 0 19 -9 45
-20 59 -11 14 -22 40 -26 59 -3 18 -12 39 -20 45 -8 6 -17 29 -20 50 -4 21
-15 46 -25 55 -11 9 -19 25 -19 34 0 9 -9 25 -19 34 -11 10 -23 32 -27 50 -3
17 -15 43 -25 58 -11 14 -19 30 -19 35 0 6 -9 18 -20 28 -11 10 -20 23 -20 28
0 6 -11 25 -25 43 -14 18 -25 37 -25 43 0 6 -8 19 -17 29 -10 11 -27 34 -38
52 -11 19 -25 43 -32 54 -6 11 -19 23 -27 28 -9 5 -16 16 -16 23 0 8 -7 15
-15 15 -8 0 -21 15 -28 33 -8 17 -33 51 -56 75 -22 23 -41 45 -41 50 0 4 -9
13 -20 20 -11 7 -20 19 -20 27 0 8 -9 15 -20 15 -11 0 -20 5 -20 11 0 6 -20
30 -45 53 -25 24 -45 48 -45 54 0 6 -9 13 -19 17 -11 3 -23 15 -26 26 -4 10
-15 19 -26 19 -10 0 -19 7 -19 15 0 9 -8 19 -17 22 -10 4 -36 24 -58 45 -22
22 -52 46 -66 53 -15 8 -29 21 -32 30 -4 8 -15 15 -26 15 -11 0 -22 9 -26 20
-3 11 -14 20 -24 20 -10 0 -28 11 -41 25 -13 14 -31 25 -41 25 -10 0 -21 9
-24 20 -3 11 -13 20 -22 20 -17 0 -113 59 -113 70 0 4 -18 12 -41 19 -22 7
-42 18 -45 26 -3 7 -20 16 -39 19 -18 4 -38 13 -45 21 -7 8 -18 15 -24 15 -6
0 -28 11 -48 25 -20 14 -48 25 -62 25 -14 0 -33 8 -43 19 -10 10 -34 22 -53
26 -19 4 -46 16 -59 26 -13 11 -38 19 -56 19 -18 0 -44 9 -58 20 -14 11 -40
20 -59 20 -18 1 -51 8 -73 16 -73 28 -96 33 -152 35 -32 2 -61 9 -70 17 -8 9
-49 18 -101 23 -48 5 -118 16 -156 25 -68 15 -343 28 -379 18z"/>
<path d="M5135 8924 c-38 -6 -83 -19 -100 -28 -16 -9 -39 -16 -51 -16 -11 0
-29 -8 -38 -19 -10 -11 -38 -21 -67 -25 -28 -4 -52 -13 -55 -21 -3 -7 -20 -17
-37 -21 -18 -3 -42 -15 -55 -25 -13 -10 -36 -20 -52 -24 -15 -3 -31 -12 -34
-20 -3 -8 -21 -17 -41 -21 -20 -3 -39 -12 -42 -19 -2 -7 -15 -16 -27 -19 -12
-3 -33 -15 -46 -26 -13 -11 -28 -20 -35 -20 -7 0 -25 -11 -41 -25 -16 -14 -37
-25 -46 -25 -10 0 -22 -9 -28 -20 -6 -11 -15 -20 -20 -20 -13 0 -103 -62 -113
-77 -4 -7 -13 -13 -19 -13 -12 0 -190 -146 -201 -166 -4 -8 -14 -14 -22 -14
-7 0 -16 -9 -20 -19 -3 -11 -15 -23 -26 -26 -10 -4 -19 -11 -19 -17 0 -12 -70
-78 -82 -78 -4 0 -8 -7 -8 -16 0 -9 -9 -18 -20 -21 -11 -3 -20 -9 -20 -14 0
-4 -20 -30 -45 -57 -25 -27 -68 -78 -95 -113 -27 -35 -56 -72 -65 -81 -8 -10
-15 -21 -15 -26 0 -4 -11 -19 -25 -34 -14 -15 -25 -32 -25 -37 0 -6 -11 -22
-25 -37 -14 -15 -25 -35 -25 -46 0 -10 -9 -26 -20 -35 -11 -10 -20 -21 -20
-26 0 -5 -11 -23 -25 -41 -14 -18 -25 -40 -25 -49 0 -9 -5 -19 -11 -23 -6 -3
-19 -26 -29 -50 -11 -24 -23 -44 -29 -44 -5 0 -12 -15 -15 -34 -4 -18 -15 -41
-26 -51 -11 -10 -20 -31 -20 -46 0 -18 -8 -34 -20 -41 -11 -8 -20 -24 -20 -38
0 -14 -8 -42 -19 -63 -10 -20 -22 -53 -25 -72 -4 -20 -15 -50 -25 -68 -10 -18
-21 -54 -25 -81 -3 -27 -12 -59 -20 -71 -7 -11 -17 -50 -21 -85 -3 -36 -15
-90 -25 -120 -10 -30 -21 -95 -25 -145 -3 -49 -12 -115 -20 -145 -14 -53 -23
-295 -12 -306 3 -3 44 -7 91 -9 46 -2 93 -8 104 -14 11 -6 64 -13 118 -17 66
-4 109 -12 129 -24 17 -10 47 -20 69 -23 21 -4 46 -13 55 -21 10 -9 32 -19 50
-22 21 -4 36 -14 38 -26 3 -10 12 -18 20 -18 17 0 104 -58 116 -77 4 -7 14
-13 22 -13 8 0 19 -9 25 -20 6 -11 16 -20 23 -20 7 0 48 -34 90 -75 42 -41 81
-75 87 -75 5 0 10 -4 10 -9 0 -4 32 -41 70 -81 39 -40 70 -77 70 -82 0 -4 20
-27 43 -51 24 -23 47 -50 50 -59 4 -10 13 -18 20 -18 8 0 19 -11 25 -25 6 -14
18 -25 27 -25 9 0 15 -9 15 -21 0 -12 8 -23 20 -26 11 -3 20 -10 20 -16 0 -5
10 -20 23 -32 24 -24 105 -114 123 -136 9 -12 107 -104 196 -185 15 -13 32
-24 38 -24 6 0 13 -7 17 -16 3 -8 16 -20 29 -25 13 -4 24 -15 24 -24 0 -8 9
-15 20 -15 11 0 23 -6 26 -14 3 -8 20 -20 37 -27 18 -7 39 -18 47 -25 22 -19
130 -74 144 -74 7 0 21 -9 31 -20 10 -11 31 -20 46 -20 15 0 34 -6 42 -14 17
-17 81 -36 125 -36 18 0 40 -8 50 -18 47 -47 657 -47 740 0 18 10 43 18 57 18
13 0 30 7 39 15 8 8 21 15 30 15 8 0 18 5 21 10 3 6 15 10 26 10 11 0 29 9 41
20 12 11 29 20 39 20 9 0 22 6 28 14 6 8 26 20 43 27 18 7 49 30 69 51 20 21
40 38 44 38 19 0 65 44 65 62 0 11 8 22 20 25 11 3 20 10 20 16 0 6 9 20 20
32 36 36 80 97 80 111 0 8 5 14 10 14 6 0 19 20 30 44 10 24 23 47 29 50 6 4
11 20 11 37 0 16 9 38 20 49 11 11 20 31 20 45 0 32 20 127 30 140 26 34 18
277 -11 311 -5 7 -12 35 -16 63 -4 36 -12 55 -24 62 -11 5 -19 18 -19 28 0 10
-7 24 -16 32 -8 7 -22 25 -30 41 -8 15 -19 28 -25 28 -5 0 -19 9 -31 20 -12
11 -24 20 -27 20 -9 0 -28 -49 -36 -90 -4 -19 -16 -47 -26 -62 -11 -14 -19
-33 -19 -42 0 -27 -66 -120 -129 -182 -70 -68 -110 -104 -116 -104 -2 0 -21
-11 -41 -25 -20 -14 -45 -25 -54 -25 -10 0 -20 -6 -23 -14 -3 -8 -25 -17 -49
-21 -59 -10 -78 -22 -78 -49 0 -13 -8 -34 -19 -47 -10 -13 -22 -35 -26 -47
-12 -39 -62 -107 -107 -146 -24 -19 -52 -45 -64 -56 -12 -11 -26 -20 -31 -20
-6 0 -13 -6 -16 -14 -6 -16 -98 -62 -142 -71 -16 -4 -49 -15 -72 -26 -38 -17
-68 -19 -280 -19 -226 0 -294 7 -319 33 -4 4 -20 7 -36 7 -16 0 -56 11 -90 25
-34 14 -69 25 -78 25 -10 0 -29 9 -43 20 -14 11 -31 20 -37 20 -7 0 -25 11
-42 25 -16 14 -37 25 -45 25 -9 0 -23 7 -32 15 -47 45 -88 75 -104 75 -11 0
-21 9 -24 20 -3 11 -12 20 -19 20 -8 0 -19 11 -24 25 -5 14 -15 25 -22 25 -16
1 -68 45 -68 58 0 6 -11 17 -25 26 -14 9 -25 23 -25 31 0 8 -7 15 -15 15 -9 0
-20 11 -24 24 -5 13 -17 26 -25 29 -9 4 -16 12 -16 20 0 7 -11 24 -25 37 -14
13 -25 29 -25 35 0 7 -9 20 -20 30 -11 10 -20 24 -20 31 0 7 -11 26 -25 42
-14 17 -25 35 -25 42 0 6 -9 23 -20 37 -11 14 -20 34 -20 44 0 10 -9 27 -21
38 -12 11 -23 37 -26 63 -3 23 -12 51 -20 60 -8 9 -18 43 -22 75 -4 32 -16 74
-27 93 -18 33 -19 57 -19 350 0 306 1 316 23 364 13 28 22 68 22 95 0 27 8 58
18 76 10 17 22 54 25 84 4 38 12 58 27 68 12 8 20 25 20 42 0 15 8 36 19 45
10 9 21 32 24 52 3 19 15 47 26 63 12 16 21 34 21 41 0 7 10 25 23 41 57 73
67 88 67 97 0 5 9 17 20 27 11 10 20 24 20 30 0 7 7 16 15 19 9 3 23 22 31 41
8 19 19 35 24 35 6 0 15 11 20 25 5 14 14 25 20 25 6 0 15 11 20 25 5 14 16
25 23 25 7 0 19 16 27 35 8 19 19 35 25 35 7 0 17 11 23 25 6 14 16 25 22 25
6 0 15 11 20 25 5 14 16 25 25 25 8 0 15 7 15 15 0 8 9 20 20 27 11 7 20 16
20 21 0 4 16 24 35 43 20 19 47 53 60 75 14 21 30 39 35 39 6 0 10 5 10 10 0
6 16 28 36 48 20 20 43 51 51 67 9 17 24 41 35 55 10 14 26 35 36 48 9 13 27
33 40 44 12 12 22 30 22 40 0 10 9 27 19 37 10 10 22 30 26 43 4 12 13 30 20
38 8 8 21 38 30 65 9 28 20 59 24 70 41 96 54 138 58 191 8 88 3 92 -82 78z"/>
<path d="M6160 7620 c-19 -5 -53 -13 -75 -19 -22 -6 -64 -11 -93 -11 -33 0
-68 -8 -92 -20 -22 -11 -47 -20 -57 -20 -36 0 -291 -132 -311 -161 -7 -11 -17
-19 -22 -19 -12 0 -60 -48 -60 -60 0 -5 -9 -14 -20 -20 -26 -14 -70 -58 -70
-70 0 -6 -9 -15 -20 -22 -11 -7 -20 -18 -20 -24 0 -6 -11 -21 -25 -34 -14 -13
-25 -32 -25 -41 0 -10 -9 -23 -20 -29 -11 -6 -20 -19 -20 -28 0 -10 -11 -33
-25 -52 -14 -19 -25 -41 -25 -51 0 -9 -8 -27 -19 -40 -11 -15 -21 -50 -25 -92
-4 -38 -13 -88 -21 -110 -17 -48 -21 -247 -5 -247 11 0 30 -64 30 -103 0 -15
11 -45 25 -65 14 -20 25 -42 25 -49 0 -7 7 -13 15 -13 8 0 15 -7 15 -16 0 -22
71 -84 97 -84 24 0 27 7 38 93 4 28 12 50 21 54 8 3 17 23 20 44 4 24 14 44
25 50 11 5 19 14 19 20 0 20 105 138 136 153 18 9 34 23 38 31 3 8 12 15 19
15 8 0 22 9 32 20 10 11 33 22 51 26 18 3 35 12 38 20 3 7 24 17 46 20 23 4
44 13 47 20 3 8 12 14 19 14 8 0 19 10 25 23 5 12 16 33 24 47 8 14 15 35 15
48 0 12 7 25 15 29 9 3 22 20 29 38 12 28 41 59 147 158 16 15 38 27 48 27 10
0 24 7 31 14 6 8 37 21 68 27 31 7 71 21 87 31 27 16 57 18 283 18 233 0 256
-2 294 -20 23 -11 56 -20 72 -20 45 -1 118 -19 136 -34 8 -8 30 -17 48 -21 17
-3 32 -11 32 -15 0 -5 20 -18 44 -28 24 -11 47 -25 50 -31 4 -6 16 -11 27 -11
10 0 19 -4 19 -9 0 -5 8 -11 18 -15 26 -8 55 -29 70 -48 7 -10 19 -18 27 -18
7 0 17 -9 20 -20 3 -11 13 -20 20 -20 8 0 19 -8 24 -19 6 -10 24 -24 40 -31
17 -7 33 -20 36 -29 3 -9 27 -40 53 -69 26 -29 56 -64 67 -78 11 -15 30 -36
43 -47 12 -11 22 -25 22 -30 0 -5 11 -22 25 -39 14 -16 25 -35 25 -42 0 -6 9
-19 20 -29 11 -9 20 -28 20 -41 0 -14 6 -31 13 -38 18 -20 37 -56 37 -70 0 -7
9 -24 20 -38 11 -14 20 -33 20 -44 0 -10 9 -34 21 -53 12 -19 23 -58 26 -93 3
-33 9 -60 13 -60 20 0 42 -196 43 -385 1 -124 -20 -321 -37 -356 -9 -17 -16
-54 -16 -82 0 -33 -7 -61 -20 -83 -12 -18 -25 -59 -30 -90 -5 -32 -16 -62 -24
-66 -7 -4 -17 -24 -21 -45 -4 -20 -15 -48 -26 -61 -10 -14 -19 -35 -19 -47 0
-12 -9 -30 -20 -40 -11 -10 -20 -26 -20 -35 0 -9 -11 -29 -25 -44 -14 -15 -25
-36 -25 -46 0 -10 -8 -25 -19 -32 -10 -7 -21 -23 -25 -35 -4 -13 -11 -23 -16
-23 -5 0 -17 -14 -25 -31 -9 -16 -24 -39 -33 -49 -9 -10 -26 -31 -37 -46 -11
-14 -28 -35 -37 -45 -10 -11 -18 -24 -18 -29 0 -6 -11 -15 -25 -22 -14 -6 -27
-23 -31 -41 -3 -17 -14 -32 -25 -34 -10 -3 -19 -9 -19 -13 0 -11 -34 -51 -87
-105 -24 -24 -43 -48 -43 -54 0 -7 -7 -14 -15 -18 -9 -3 -23 -20 -32 -37 -9
-17 -31 -45 -49 -61 -18 -17 -37 -43 -43 -58 -6 -15 -17 -27 -26 -27 -8 0 -15
-7 -15 -15 0 -8 -9 -19 -20 -25 -11 -6 -20 -15 -20 -21 0 -14 -61 -101 -77
-112 -7 -4 -13 -14 -13 -22 0 -8 -7 -18 -15 -23 -17 -9 -44 -53 -74 -118 -11
-23 -24 -45 -30 -48 -6 -4 -11 -16 -11 -27 0 -11 -11 -42 -25 -69 -14 -27 -25
-57 -25 -67 0 -10 -9 -33 -20 -51 -16 -25 -20 -50 -20 -112 l0 -80 43 0 c26 0
60 10 89 25 26 14 58 25 72 25 14 0 46 11 72 25 26 14 57 25 69 25 12 0 30 9
40 20 10 11 30 20 44 20 14 0 44 12 66 25 22 14 48 25 58 25 9 0 17 5 17 11 0
5 17 17 38 26 20 8 41 21 45 29 4 8 16 14 26 14 9 0 32 11 51 25 19 14 39 25
45 25 7 0 20 9 30 20 10 11 26 20 36 20 10 0 23 9 29 20 6 11 17 20 25 20 7 0
27 11 43 25 17 14 35 25 41 25 6 0 16 9 23 20 7 11 18 20 25 20 7 0 20 11 29
25 9 14 22 25 28 25 7 0 28 18 47 40 19 22 40 40 47 40 7 0 24 11 36 24 13 12
31 26 40 29 9 4 16 13 16 21 0 8 9 17 19 21 11 3 23 14 26 24 3 11 15 21 25
24 11 3 20 12 20 20 0 9 9 18 19 22 11 3 23 14 26 24 3 11 15 21 25 24 11 3
20 12 20 20 0 9 9 19 20 22 11 3 20 11 20 17 0 17 63 97 77 98 6 0 15 10 19
23 4 12 15 28 25 35 11 7 19 19 19 27 0 7 9 17 20 20 11 3 20 14 20 24 0 10 7
25 17 32 9 8 22 29 30 47 7 17 20 32 27 32 9 0 17 16 21 40 4 24 12 40 21 40
7 0 16 11 20 24 3 14 11 27 18 29 7 3 18 23 25 45 8 23 20 43 26 46 7 2 16 18
20 34 3 17 14 37 25 47 10 9 21 32 25 51 3 19 13 38 21 41 7 3 14 18 14 33 0
15 9 39 20 52 10 14 24 45 29 69 5 24 17 49 25 55 9 6 16 26 16 45 0 19 6 44
14 55 8 11 22 51 30 88 9 37 22 79 30 94 7 15 16 54 19 87 3 33 12 74 20 90 8
17 18 68 21 115 4 47 16 125 27 175 26 117 36 313 17 337 -11 16 -37 18 -198
22 -177 4 -240 13 -240 36 0 5 -17 10 -37 10 -23 0 -54 10 -78 25 -22 13 -55
25 -72 25 -23 0 -33 5 -33 15 0 9 -11 20 -25 25 -14 5 -25 13 -25 18 0 5 -18
17 -39 27 -22 10 -42 24 -45 31 -3 8 -11 14 -17 14 -6 0 -22 10 -34 23 -12 12
-46 42 -76 67 -49 42 -170 164 -279 283 -25 27 -55 58 -67 70 -13 11 -23 24
-23 29 0 7 -29 36 -75 76 -8 7 -15 21 -15 30 0 10 -20 35 -45 55 -25 21 -45
43 -45 48 0 6 -20 31 -45 56 -25 24 -45 49 -45 54 0 5 -5 9 -12 9 -6 0 -30 20
-54 45 -23 25 -46 45 -51 45 -12 0 -63 56 -63 69 0 6 -7 11 -15 11 -8 0 -30
14 -48 30 -19 17 -40 30 -46 30 -6 0 -11 7 -11 15 0 8 -6 15 -14 15 -8 0 -22
8 -32 18 -21 20 -76 55 -124 77 -19 9 -41 22 -50 30 -8 7 -28 17 -45 21 -16 3
-37 12 -45 19 -8 7 -31 15 -52 19 -20 4 -38 13 -41 20 -3 7 -26 17 -52 20 -26
4 -66 15 -88 25 -26 11 -84 21 -152 25 -60 4 -121 14 -137 22 -30 15 -167 18
-228 4z"/>
<path d="M6430 6905 c-14 -8 -48 -19 -77 -25 -28 -6 -54 -18 -57 -26 -3 -7
-14 -14 -25 -14 -11 0 -33 -11 -49 -25 -17 -14 -34 -25 -38 -25 -11 -1 -56
-70 -45 -70 4 0 13 -11 18 -24 9 -18 22 -24 63 -29 29 -4 60 -13 70 -22 9 -8
24 -15 33 -15 8 0 29 -11 45 -25 17 -14 34 -25 40 -25 24 0 190 -165 198 -196
3 -12 12 -25 19 -28 8 -3 19 -23 25 -45 6 -23 15 -41 20 -41 5 0 12 -20 15
-45 7 -46 42 -95 68 -95 8 0 20 -6 26 -14 7 -8 28 -17 49 -21 20 -4 42 -15 50
-26 7 -10 22 -19 32 -19 11 0 27 -11 35 -24 9 -13 25 -26 35 -29 11 -3 20 -12
20 -20 0 -9 9 -19 20 -22 11 -3 20 -11 20 -17 0 -6 6 -19 14 -27 28 -31 86
-151 86 -176 0 -14 5 -34 10 -45 6 -11 15 -30 22 -42 8 -16 11 -97 10 -260 0
-217 -2 -241 -21 -284 -12 -25 -21 -67 -21 -93 0 -28 -9 -65 -24 -96 -13 -27
-30 -65 -36 -82 -7 -18 -16 -33 -21 -33 -5 0 -9 -11 -9 -25 0 -14 -9 -34 -20
-45 -12 -12 -25 -31 -30 -43 -6 -12 -26 -42 -45 -67 -19 -25 -38 -52 -42 -60
-3 -8 -24 -31 -45 -51 -21 -20 -38 -40 -38 -46 0 -13 -64 -73 -78 -73 -7 0
-12 -7 -12 -16 0 -9 -9 -18 -20 -21 -10 -3 -22 -13 -25 -23 -3 -9 -17 -22 -30
-28 -14 -6 -25 -16 -25 -22 0 -5 -6 -10 -13 -10 -7 0 -29 -13 -47 -30 -18 -16
-39 -30 -46 -30 -7 0 -17 -6 -21 -12 -8 -13 -48 -38 -93 -59 -14 -6 -32 -15
-40 -20 -8 -5 -33 -19 -55 -30 -22 -11 -51 -27 -65 -35 -14 -7 -40 -14 -58
-14 -19 0 -35 -6 -38 -14 -3 -8 -33 -19 -72 -26 -37 -6 -93 -20 -124 -31 -53
-19 -78 -20 -350 -17 -249 3 -298 6 -328 20 -19 9 -62 19 -95 23 -33 4 -72 16
-86 26 -15 10 -42 19 -61 19 -18 0 -47 9 -64 19 -17 10 -46 22 -65 26 -19 4
-41 13 -49 20 -8 7 -34 18 -56 24 -23 6 -44 17 -47 25 -3 7 -17 16 -31 20 -14
3 -42 17 -62 31 -20 14 -43 25 -50 25 -7 0 -18 9 -24 20 -6 11 -16 20 -22 20
-6 0 -18 7 -27 15 -9 8 -27 24 -39 35 -13 12 -39 28 -58 36 -19 8 -34 21 -34
29 0 8 -8 15 -19 15 -10 0 -21 9 -24 20 -3 12 -14 20 -25 20 -12 0 -23 9 -27
20 -3 11 -12 20 -19 20 -7 0 -25 14 -41 30 -16 17 -34 30 -40 30 -6 0 -18 8
-27 17 -9 10 -23 24 -30 30 -7 7 -26 26 -43 43 -16 17 -38 33 -47 36 -10 3
-18 12 -18 20 0 8 -4 14 -9 14 -12 0 -161 122 -161 132 0 4 -7 8 -15 8 -8 0
-20 9 -27 20 -7 11 -18 20 -25 20 -6 0 -18 8 -25 18 -7 10 -28 24 -46 31 -18
8 -36 19 -40 25 -7 11 -23 22 -76 54 -16 9 -37 24 -47 33 -9 10 -30 20 -47 24
-16 3 -38 15 -48 26 -9 10 -29 19 -44 19 -15 0 -39 9 -53 20 -14 11 -37 20
-52 20 -15 0 -39 8 -53 19 -20 14 -49 20 -112 22 l-85 4 3 -65 c2 -42 10 -74
21 -90 10 -14 22 -46 26 -70 4 -25 16 -56 26 -69 11 -13 19 -36 19 -52 0 -17
7 -32 19 -38 11 -6 21 -26 25 -51 3 -22 13 -43 20 -46 8 -3 17 -23 21 -44 4
-21 13 -41 20 -44 8 -3 19 -23 25 -44 5 -22 17 -43 25 -46 8 -3 15 -14 15 -25
0 -11 10 -32 23 -48 13 -15 26 -36 30 -45 3 -10 11 -18 16 -18 5 0 12 -14 16
-31 4 -17 18 -40 31 -52 13 -11 24 -26 24 -33 0 -6 6 -14 14 -17 8 -3 19 -21
26 -41 6 -19 20 -38 31 -41 10 -4 19 -14 19 -23 0 -10 9 -23 20 -30 11 -7 20
-19 20 -27 0 -8 7 -15 15 -15 8 0 15 -4 15 -9 0 -6 25 -39 55 -75 30 -35 55
-69 55 -74 0 -5 9 -12 20 -15 11 -3 20 -12 20 -21 0 -9 5 -16 11 -16 6 0 44
-33 83 -72 40 -40 86 -84 102 -98 78 -66 123 -100 133 -100 7 0 16 -11 21 -25
6 -15 17 -25 30 -25 11 0 20 -6 20 -13 0 -7 15 -21 33 -31 17 -9 46 -24 62
-33 17 -9 31 -20 33 -24 2 -5 21 -19 43 -31 21 -12 39 -25 39 -30 0 -4 8 -8
18 -8 9 0 33 -10 52 -22 19 -12 44 -28 55 -35 11 -7 39 -21 63 -32 23 -11 42
-24 42 -30 0 -5 16 -12 36 -15 19 -4 43 -16 52 -27 9 -10 26 -19 38 -19 12 0
32 -9 46 -19 13 -11 46 -22 73 -26 28 -4 55 -13 61 -21 6 -8 37 -19 69 -25 32
-6 68 -17 79 -24 12 -7 37 -16 56 -20 19 -4 44 -13 55 -20 12 -7 64 -17 117
-23 53 -6 107 -17 120 -25 13 -8 61 -18 108 -21 47 -4 103 -11 125 -16 53 -13
311 -31 340 -24 21 5 22 10 23 107 1 165 16 304 35 325 10 10 17 31 17 46 0
34 26 96 39 96 6 0 11 14 11 32 0 19 8 41 20 53 12 11 35 43 52 70 18 28 38
54 45 58 7 4 13 14 13 22 0 8 11 22 25 31 14 9 25 21 25 28 0 17 206 236 289
305 22 19 38 37 35 40 -2 3 14 13 36 23 22 10 40 25 40 33 0 8 7 15 15 15 8 0
19 9 25 20 6 11 17 20 26 20 8 0 19 11 24 25 5 14 16 25 24 25 9 0 20 9 26 20
6 11 17 20 25 20 7 0 17 9 20 20 3 11 11 20 17 20 9 0 65 42 93 71 6 5 25 24
44 42 19 18 39 38 45 45 6 6 31 34 56 60 25 27 56 63 70 81 14 18 33 41 43 52
9 10 17 23 17 29 0 5 11 17 25 26 14 9 25 22 25 28 0 7 8 21 18 32 9 10 23 31
29 47 7 15 16 27 21 27 5 0 14 18 21 39 6 21 17 41 25 44 7 3 16 24 20 47 3
22 13 43 20 46 8 3 17 22 21 42 4 20 15 48 26 63 11 15 19 44 19 66 0 21 8 52
18 68 13 21 21 61 26 133 4 56 13 121 21 143 19 53 19 191 1 244 -8 22 -17 76
-21 120 -4 44 -15 99 -26 122 -10 24 -19 55 -19 69 0 14 -8 38 -19 52 -10 15
-22 41 -25 58 -4 18 -16 40 -27 50 -10 9 -19 25 -19 34 0 10 -9 29 -20 43 -11
14 -20 30 -20 36 0 6 -9 15 -20 21 -11 6 -20 16 -20 23 0 34 -288 287 -327
287 -9 0 -26 9 -38 20 -12 11 -43 24 -69 29 -26 5 -52 15 -59 24 -7 8 -35 18
-64 21 -29 4 -71 13 -94 21 -57 20 -284 20 -319 0z"/>
</g>
</svg>
