<?xml version="1.0" standalone="no"?>
<!DOCTYPE svg PUBLIC "-//W3C//DTD SVG 20010904//EN"
 "http://www.w3.org/TR/2001/REC-SVG-20010904/DTD/svg10.dtd">
<svg version="1.0" xmlns="http://www.w3.org/2000/svg"
 width="256.000000pt" height="500.000000pt" viewBox="0 0 256.000000 500.000000"
 preserveAspectRatio="xMidYMid meet">

<g transform="translate(0.000000,500.000000) scale(0.100000,-0.100000)"
fill="#000000" stroke="none">
<path d="M1067 4963 c-4 -3 -7 -11 -7 -17 0 -6 5 -5 12 2 6 6 9 14 7 17 -3 3
-9 2 -12 -2z"/>
<path d="M1463 4825 c0 -22 2 -30 4 -17 2 12 2 30 0 40 -3 9 -5 -1 -4 -23z"/>
<path d="M1100 4846 c0 -2 8 -10 18 -17 15 -13 16 -12 3 4 -13 16 -21 21 -21
13z"/>
<path d="M1051 4814 c0 -11 3 -14 6 -6 3 7 2 16 -1 19 -3 4 -6 -2 -5 -13z"/>
<path d="M1629 4743 c-11 -25 -16 -50 -12 -54 5 -5 15 16 24 46 9 30 15 55 12
55 -2 0 -13 -21 -24 -47z"/>
<path d="M1206 4758 c3 -4 9 -8 15 -8 5 0 9 4 9 8 0 5 -7 9 -15 9 -8 0 -12 -4
-9 -9z"/>
<path d="M1320 4760 c0 -5 5 -10 10 -10 6 0 10 5 10 10 0 6 -4 10 -10 10 -5 0
-10 -4 -10 -10z"/>
<path d="M1470 4760 c0 -5 5 -10 11 -10 5 0 7 5 4 10 -3 6 -8 10 -11 10 -2 0
-4 -4 -4 -10z"/>
<path d="M918 4728 c5 -5 16 -8 23 -6 8 3 3 7 -10 11 -17 4 -21 3 -13 -5z"/>
<path d="M1050 4720 l-35 -7 38 -2 c20 0 37 4 37 9 0 6 -1 9 -2 9 -2 -1 -19
-5 -38 -9z"/>
<path d="M866 4680 c8 -54 10 -58 16 -28 2 13 -2 34 -9 48 -12 23 -13 21 -7
-20z"/>
<path d="M968 4713 c6 -2 18 -2 25 0 6 3 1 5 -13 5 -14 0 -19 -2 -12 -5z"/>
<path d="M1770 4599 c-19 -17 -26 -26 -15 -21 18 9 64 52 54 52 -2 0 -20 -14
-39 -31z"/>
<path d="M900 4591 c0 -6 9 -9 19 -8 11 0 17 5 15 9 -7 11 -34 10 -34 -1z"/>
<path d="M870 4570 c-9 -6 -10 -10 -3 -10 6 0 15 5 18 10 8 12 4 12 -15 0z"/>
<path d="M660 4546 c0 -2 11 -6 25 -8 13 -3 22 -1 19 3 -5 9 -44 13 -44 5z"/>
<path d="M1818 4503 c7 -3 16 -2 19 1 4 3 -2 6 -13 5 -11 0 -14 -3 -6 -6z"/>
<path d="M1928 4503 c7 -3 16 -2 19 1 4 3 -2 6 -13 5 -11 0 -14 -3 -6 -6z"/>
<path d="M789 4471 c11 -7 7 -18 -18 -54 -17 -25 -31 -51 -31 -57 0 -6 -28
-24 -62 -40 -35 -16 -56 -29 -48 -29 28 0 125 55 125 71 0 9 8 25 18 35 9 11
17 24 17 30 0 6 7 16 15 23 13 11 13 15 3 21 -7 5 -17 9 -23 9 -5 0 -4 -4 4
-9z"/>
<path d="M1406 4423 c5 -22 2 -23 -58 -25 -107 -3 -141 -7 -185 -18 -96 -23
-120 -40 -218 -148 -83 -92 -95 -110 -89 -132 16 -59 21 -111 10 -118 -6 -4 5
-9 24 -12 29 -4 37 -11 44 -37 13 -43 27 -46 78 -19 24 12 70 32 104 45 51 19
64 20 90 10 16 -7 34 -11 39 -10 6 0 -1 -8 -14 -19 -17 -15 -19 -20 -8 -20 9
0 18 -4 21 -8 2 -4 -7 -8 -21 -7 -35 0 -40 -22 -9 -37 21 -9 29 -9 39 1 9 10
8 11 -8 6 -11 -3 -7 1 9 10 22 13 26 19 15 26 -11 7 -11 9 3 9 9 0 20 5 24 12
4 7 3 8 -5 4 -26 -16 -22 25 5 54 35 37 58 38 89 4 l24 -26 66 15 c41 10 76
12 93 7 37 -11 130 -59 137 -70 4 -6 11 -7 17 -4 14 9 4 -58 -30 -185 -26
-100 -29 -106 -86 -164 -32 -33 -53 -56 -46 -52 9 5 11 4 6 -4 -4 -6 -12 -9
-17 -5 -5 3 -71 6 -147 6 -91 0 -140 4 -145 12 -5 6 -5 0 -1 -14 4 -14 7 -78
7 -143 -1 -100 -4 -122 -20 -139 -23 -27 -5 -17 69 39 60 46 88 53 109 27 18
-22 70 -48 64 -32 -3 7 3 18 14 25 15 9 23 9 40 -3 24 -17 25 -23 10 -61 l-12
-28 -6 24 c-4 14 -12 26 -19 27 -7 1 -8 0 -2 -3 15 -7 12 -40 -6 -68 -9 -14
-12 -25 -6 -25 5 0 12 10 15 22 4 12 9 19 12 16 4 -3 0 -19 -9 -35 -13 -27
-13 -30 3 -40 12 -8 20 -29 24 -70 l7 -58 -47 -42 c-25 -24 -52 -43 -60 -43
-8 0 -12 -4 -9 -9 12 -19 -25 -110 -53 -131 -22 -15 -31 -17 -35 -8 -3 7 -4 1
-2 -14 1 -15 0 -25 -4 -23 -4 3 -10 -5 -13 -17 -5 -19 -10 -20 -63 -14 -32 4
-90 18 -131 33 -73 25 -73 26 -73 62 0 20 5 42 10 47 7 7 7 28 0 63 -5 30 -10
100 -10 157 0 102 -9 155 -48 268 -19 57 -19 60 -2 110 10 28 21 60 25 71 6
16 5 17 -4 5 -9 -13 -11 -12 -11 5 -1 19 -2 19 -10 -2 -6 -15 -21 -23 -52 -28
-71 -10 -195 -37 -206 -44 -7 -4 -8 -19 -2 -46 5 -22 10 -58 10 -81 0 -35 -4
-42 -32 -58 -18 -9 -67 -35 -108 -56 -41 -22 -82 -44 -90 -49 -8 -6 -63 -31
-121 -56 -58 -25 -128 -62 -155 -81 -27 -20 -95 -60 -151 -91 -94 -51 -102
-58 -98 -82 3 -14 10 -93 15 -176 6 -82 18 -199 26 -260 29 -219 34 -272 34
-411 0 -164 -10 -134 147 -432 60 -116 64 -127 48 -138 -16 -12 -17 -20 -5
-91 7 -43 25 -120 41 -172 33 -108 36 -152 12 -173 -10 -8 -46 -30 -81 -48
-71 -37 -112 -80 -112 -115 0 -13 9 -63 20 -111 32 -135 40 -203 50 -419 5
-110 12 -219 16 -242 l7 -43 1012 0 1013 0 26 108 c14 59 38 168 53 243 l27
136 -28 113 c-28 108 -29 115 -16 194 7 44 19 99 27 121 7 22 20 77 28 123 18
100 9 154 -36 221 -28 42 -29 48 -23 125 10 141 22 228 44 326 30 135 87 407
110 525 10 55 29 152 41 215 12 63 24 149 26 190 2 41 8 93 13 115 23 95 17
132 -25 152 -19 9 -35 20 -35 24 0 8 -252 147 -340 186 -36 16 -99 44 -142 63
-110 47 -118 74 -66 209 6 16 5 26 -1 31 -6 3 -70 17 -142 30 -75 14 -133 30
-136 37 -3 7 7 59 22 115 20 81 32 108 53 125 18 16 21 21 8 16 -17 -6 -18 -2
-12 53 10 89 27 154 39 155 7 1 18 1 25 0 6 -1 12 2 12 7 0 16 -13 22 -27 11
-10 -9 -13 -8 -13 4 0 19 27 47 44 47 9 0 15 22 19 67 7 76 2 87 -104 198 -62
64 -141 105 -203 105 -58 0 -93 11 -105 34 -11 21 -11 21 -5 -1z m234 -902
c-11 -43 -36 -55 -59 -27 -9 11 -6 21 15 45 14 17 30 28 35 25 5 -3 9 -2 8 3
-3 17 4 27 8 11 2 -9 -1 -35 -7 -57z m-1097 -2638 c-7 -2 -21 -2 -30 0 -10 3
-4 5 12 5 17 0 24 -2 18 -5z"/>
<path d="M1815 4390 c-3 -5 1 -10 10 -10 9 0 13 5 10 10 -3 6 -8 10 -10 10 -2
0 -7 -4 -10 -10z"/>
<path d="M1930 4315 c14 -8 36 -14 50 -14 23 0 23 1 5 8 -11 4 -33 11 -50 15
l-30 6 25 -15z"/>
<path d="M2018 4293 c6 -2 18 -2 25 0 6 3 1 5 -13 5 -14 0 -19 -2 -12 -5z"/>
<path d="M1965 4271 c-3 -5 -22 -15 -43 -21 -47 -16 -67 -33 -23 -20 33 9 81
36 81 45 0 8 -8 6 -15 -4z"/>
<path d="M763 4246 c0 -8 6 -12 14 -9 7 3 13 9 13 14 0 5 -6 9 -13 9 -8 0 -14
-6 -14 -14z"/>
<path d="M662 4171 c-7 -4 -25 -6 -40 -4 -21 4 -24 2 -12 -6 20 -14 33 -14 56
4 20 15 18 20 -4 6z"/>
<path d="M1920 4156 c0 -3 9 -10 20 -16 11 -6 20 -8 20 -6 0 3 -9 10 -20 16
-11 6 -20 8 -20 6z"/>
<path d="M744 4115 c-7 -19 -14 -42 -14 -52 1 -10 7 -2 14 17 7 19 17 43 21
53 4 9 4 17 1 17 -4 0 -14 -16 -22 -35z"/>
<path d="M1975 4120 c3 -5 14 -10 23 -10 15 0 15 2 2 10 -20 13 -33 13 -25 0z"/>
<path d="M1928 4063 c12 -2 30 -2 40 0 9 3 -1 5 -23 4 -22 0 -30 -2 -17 -4z"/>
<path d="M730 4010 c-8 -5 -10 -10 -5 -10 6 0 17 5 25 10 8 5 11 10 5 10 -5 0
-17 -5 -25 -10z"/>
<path d="M690 3995 c-11 -13 -10 -14 4 -9 9 3 16 10 16 15 0 13 -6 11 -20 -6z"/>
<path d="M1831 3995 c9 -11 19 -27 22 -35 4 -12 6 -12 6 2 1 11 8 15 24 12 13
-3 10 0 -8 7 -16 7 -37 17 -45 23 -12 8 -11 6 1 -9z"/>
<path d="M738 3967 c-13 -10 -17 -16 -11 -12 7 3 32 9 55 14 42 7 43 7 11 12
-22 4 -39 -1 -55 -14z"/>
<path d="M850 3920 c-6 -11 -8 -20 -6 -20 3 0 10 9 16 20 6 11 8 20 6 20 -3 0
-10 -9 -16 -20z"/>
<path d="M876 3905 c-9 -26 -7 -32 5 -12 6 10 9 21 6 23 -2 3 -7 -2 -11 -11z"/>
<path d="M900 3911 c0 -6 4 -13 10 -16 6 -3 7 1 4 9 -7 18 -14 21 -14 7z"/>
<path d="M830 3883 c0 -6 9 -21 21 -34 l20 -24 -17 30 c-24 39 -24 40 -24 28z"/>
<path d="M890 3886 c0 -2 7 -9 15 -16 9 -7 15 -8 15 -2 0 5 -7 12 -15 16 -8 3
-15 4 -15 2z"/>
<path d="M1750 3860 c0 -8 5 -22 10 -30 9 -13 10 -13 10 0 0 8 -5 22 -10 30
-9 13 -10 13 -10 0z"/>
<path d="M955 3851 c-3 -5 -1 -12 5 -16 5 -3 10 1 10 9 0 18 -6 21 -15 7z"/>
<path d="M1796 3815 c-9 -26 -7 -32 5 -12 6 10 9 21 6 23 -2 3 -7 -2 -11 -11z"/>
<path d="M961 3804 c0 -11 3 -14 6 -6 3 7 2 16 -1 19 -3 4 -6 -2 -5 -13z"/>
<path d="M976 3740 c7 -53 52 -153 65 -145 5 4 6 0 3 -8 -7 -18 18 -28 37 -16
11 8 9 9 -6 7 -13 -2 -19 2 -17 11 2 7 -7 24 -19 37 -13 13 -33 55 -46 92 -21
61 -23 63 -17 22z"/>
<path d="M915 3743 c8 -18 18 -33 20 -33 10 0 4 16 -16 40 l-20 25 16 -32z"/>
<path d="M1298 3743 c12 -2 32 -2 45 0 12 2 2 4 -23 4 -25 0 -35 -2 -22 -4z"/>
<path d="M1378 3743 c6 -2 18 -2 25 0 6 3 1 5 -13 5 -14 0 -19 -2 -12 -5z"/>
<path d="M1210 3730 c-8 -5 -31 -10 -50 -10 l-35 0 39 -21 c21 -11 43 -18 49
-15 9 3 8 5 0 5 -28 2 -11 30 25 39 29 8 32 10 12 11 -14 0 -32 -4 -40 -9z"/>
<path d="M1493 3724 c2 -15 -4 -18 -22 -16 -15 2 -21 0 -17 -7 9 -14 18 -12
-104 -21 l-105 -8 125 3 c112 2 130 5 175 28 34 18 43 27 29 27 -12 0 -35 3
-52 6 -25 5 -30 3 -29 -12z"/>
<path d="M1146 3601 c-4 -6 -2 -11 3 -11 6 0 12 -10 12 -22 1 -17 3 -18 6 -6
6 23 -12 55 -21 39z"/>
<path d="M1140 3507 c-8 -7 -14 -22 -12 -35 2 -13 -6 -38 -17 -58 -20 -33 -20
-35 -2 -53 11 -11 21 -40 24 -74 7 -59 24 -107 39 -107 4 0 1 17 -7 37 -15 34
-14 39 0 49 13 10 14 17 6 33 -9 15 -9 66 -1 66 7 0 9 50 4 98 -6 60 -10 64
-34 44z"/>
<path d="M1338 3157 c-36 -37 -47 -57 -30 -57 19 1 97 28 95 34 -6 14 -2 20 5
8 6 -9 12 -6 20 13 11 23 10 25 -11 25 -13 0 -27 3 -32 8 -6 4 -27 -10 -47
-31z"/>
<path d="M1130 3150 c-23 -7 -23 -8 -3 -9 12 -1 25 4 28 9 3 6 5 10 3 9 -2 -1
-14 -5 -28 -9z"/>
<path d="M1415 3055 c-22 -11 -24 -13 -6 -9 14 4 27 1 32 -7 6 -10 9 -8 9 9 0
12 -1 22 -2 22 -2 -1 -16 -7 -33 -15z"/>
<path d="M1303 3033 c9 -2 23 -2 30 0 6 3 -1 5 -18 5 -16 0 -22 -2 -12 -5z"/>
<path d="M1343 2995 c-6 -20 -7 -35 -2 -35 5 0 9 1 9 3 0 1 4 17 9 35 13 44
-3 41 -16 -3z"/>
<path d="M1453 3014 c4 -4 -1 -17 -10 -28 l-18 -21 25 20 c14 11 26 20 28 21
2 1 -5 5 -15 8 -9 4 -14 4 -10 0z"/>
<path d="M1381 2986 c-9 -11 -9 -16 1 -22 7 -4 10 -4 6 1 -4 4 -3 14 3 22 6 7
9 13 6 13 -2 0 -10 -6 -16 -14z"/>
<path d="M1310 2934 c0 -8 5 -12 10 -9 6 4 8 11 5 16 -9 14 -15 11 -15 -7z"/>
<path d="M1406 2923 c-4 -9 -2 -21 4 -27 7 -7 10 -2 10 17 0 31 -5 34 -14 10z"/>
<path d="M1341 2855 c0 -5 7 -26 14 -45 9 -23 14 -28 14 -15 0 11 -6 31 -14
45 -8 14 -14 21 -14 15z"/>
<path d="M1161 2774 c0 -11 3 -14 6 -6 3 7 2 16 -1 19 -3 4 -6 -2 -5 -13z"/>
</g>
</svg>
