<?xml version="1.0" standalone="no"?>
<!DOCTYPE svg PUBLIC "-//W3C//DTD SVG 20010904//EN"
 "http://www.w3.org/TR/2001/REC-SVG-20010904/DTD/svg10.dtd">
<svg version="1.0" xmlns="http://www.w3.org/2000/svg"
 width="736.000000pt" height="920.000000pt" viewBox="0 0 736.000000 920.000000"
 preserveAspectRatio="xMidYMid meet">

<g transform="translate(0.000000,920.000000) scale(0.100000,-0.100000)"
fill="#000000" stroke="none">
<path d="M0 6895 c0 -1268 2 -2305 3 -2305 2 0 32 45 67 100 99 159 229 486
340 855 87 291 99 334 134 485 79 348 85 651 20 1026 l-27 152 84 133 c46 74
110 170 143 214 54 72 296 439 296 448 0 10 110 193 176 294 92 140 277 448
297 494 15 34 159 258 216 336 18 24 34 50 37 58 5 13 -97 15 -890 15 l-896 0
0 -2305z"/>
<path d="M1739 9069 c-46 -72 -96 -146 -111 -163 -15 -18 -30 -44 -33 -59 -4
-15 -11 -27 -16 -27 -5 0 -9 -4 -9 -9 0 -44 -360 -620 -828 -1325 -102 -154
-185 -284 -185 -290 1 -6 12 -76 26 -156 30 -171 47 -367 47 -531 0 -194 -68
-535 -180 -904 -29 -93 -65 -217 -81 -274 -17 -58 -48 -150 -71 -205 -59 -146
-199 -430 -252 -510 -47 -70 -58 -99 -31 -76 8 7 15 8 15 2 0 -5 -7 -15 -15
-22 -14 -12 -16 -243 -14 -2254 1 -1233 4 -2235 6 -2228 3 6 9 12 15 12 6 0 4
-8 -5 -18 -10 -10 -17 -22 -17 -25 0 -4 1657 -7 3682 -7 2025 0 3679 2 3676 5
-2 3 -182 5 -399 5 l-394 1 65 28 c143 62 183 81 178 86 -6 6 -185 -55 -262
-89 l-58 -26 -749 0 -749 0 0 23 c0 45 32 153 60 205 16 29 23 52 17 50 -19
-6 -64 -106 -88 -196 l-22 -82 -54 0 c-52 0 -53 0 -53 30 0 17 -4 30 -10 30
-5 0 -10 -13 -10 -30 l0 -30 -757 1 c-417 1 -749 3 -738 6 31 7 40 21 11 16
-15 -3 -29 -9 -32 -14 -7 -12 -467 -12 -479 0 -6 5 -28 11 -50 14 l-40 6 40
-14 c35 -12 -39 -14 -552 -14 l-593 -1 -34 73 c-22 45 -31 76 -25 81 17 18 11
48 -9 44 -11 -2 -26 3 -35 11 -15 12 -17 11 -17 -8 0 -11 -4 -21 -8 -21 -18 0
-82 93 -82 118 0 5 22 18 48 29 54 23 91 61 331 350 78 95 147 173 152 173 5
0 9 6 9 13 0 8 35 52 77 98 43 46 101 109 128 139 28 30 70 76 95 101 25 25
56 62 70 82 14 20 28 37 31 37 12 0 27 -25 33 -57 8 -35 20 -19 -219 -279
-319 -347 -464 -517 -465 -544 0 -60 69 -120 105 -90 8 7 30 16 48 20 23 6 26
8 10 9 -23 1 -32 16 -12 23 5 2 14 19 18 39 4 19 73 132 153 250 79 118 159
238 177 268 18 30 39 61 47 68 8 8 17 25 20 39 8 32 22 31 30 -3 3 -16 20 -45
36 -66 16 -21 28 -43 25 -50 -2 -7 -26 -39 -53 -72 -27 -33 -93 -118 -147
-190 -76 -101 -104 -130 -122 -130 -22 0 -65 -30 -65 -45 0 -9 101 -6 148 5
21 4 38 2 47 -5 11 -9 23 -9 48 -1 29 10 40 8 96 -20 61 -30 117 -49 154 -52
9 -1 17 -5 17 -10 0 -5 9 -7 19 -4 12 3 22 -1 25 -10 3 -7 11 -13 18 -12 33 6
398 -106 398 -121 0 -5 18 -11 40 -15 22 -4 40 -10 40 -13 0 -10 428 -4 555 8
61 5 117 10 125 10 11 0 12 2 3 8 -7 5 -43 5 -80 1 -38 -5 -112 -8 -165 -8
-111 -1 -108 -3 -147 97 -12 29 -39 84 -61 123 -22 39 -40 73 -40 75 0 2 7 4
17 4 14 0 15 2 1 18 -12 13 -17 54 -22 165 -9 182 -2 237 28 237 40 0 49 -14
43 -66 -11 -81 -10 -411 1 -429 8 -16 10 -14 11 8 2 32 2 17 1 232 0 199 5
235 30 235 35 0 39 -21 34 -165 -3 -77 -2 -156 3 -175 5 -24 10 21 13 145 l5
180 80 -4 c44 -2 82 -5 84 -7 2 -2 -2 -16 -9 -31 -20 -41 -28 -423 -9 -423 11
0 14 39 14 203 1 229 7 260 53 255 22 -2 27 -7 25 -28 -2 -14 -6 -115 -10
-225 -8 -211 -4 -245 32 -245 16 0 17 2 5 10 -8 5 -16 20 -18 32 -6 44 -1 363
6 403 l7 40 59 3 c57 3 58 2 52 -20 -8 -31 -24 -191 -30 -308 -3 -52 -5 -96
-6 -97 0 -2 -10 -3 -22 -3 -13 0 -30 -5 -38 -10 -11 -7 -1 -10 35 -11 28 -1
55 0 60 2 6 1 41 4 79 6 77 3 93 11 78 39 -11 21 20 351 37 396 9 24 47 55 56
46 2 -2 -2 -76 -10 -163 -8 -88 -14 -180 -14 -205 l1 -45 8 35 c5 19 14 103
20 185 16 200 16 201 58 225 l35 21 -6 -53 c-28 -247 -37 -339 -36 -378 l1
-45 8 50 c4 28 18 137 30 243 23 191 24 193 52 214 16 11 31 19 33 17 1 -2
-10 -71 -25 -154 -16 -82 -31 -186 -34 -230 l-6 -80 20 110 c11 61 29 164 41
230 21 117 38 165 60 165 7 0 9 -12 5 -32 -8 -48 -36 -346 -36 -392 0 -38 1
-38 31 -32 29 6 31 4 27 -19 -3 -14 -1 -25 3 -25 5 0 9 15 9 33 0 30 22 55
243 269 133 129 271 262 306 294 35 33 105 98 155 146 50 48 96 88 101 89 6 0
23 17 40 36 27 33 28 35 6 24 l-24 -13 8 48 c5 27 11 69 14 94 5 36 12 48 40
67 38 26 66 30 58 10 -3 -8 -8 -40 -12 -73 -5 -38 -15 -67 -29 -83 -16 -19
-17 -23 -4 -18 11 4 18 -1 24 -16 6 -19 8 -16 11 16 3 27 12 42 31 55 38 24
52 44 46 67 -3 11 0 43 6 70 10 46 23 64 44 65 14 0 -2 -101 -20 -121 -15 -16
-14 -17 4 -12 11 2 29 18 41 34 17 23 18 27 5 22 -15 -5 -16 -1 -11 27 4 18 7
40 7 50 0 16 76 67 86 58 5 -6 -20 -72 -39 -101 -23 -35 -7 -35 24 1 13 15 39
40 57 55 19 15 30 27 26 27 -4 0 -18 -10 -31 -22 -28 -26 -32 -23 -26 20 5 28
13 37 47 53 22 11 61 32 86 48 56 37 81 40 54 9 l-19 -23 22 19 c13 10 20 23
17 27 -3 5 1 9 8 9 7 0 31 12 53 27 22 16 83 50 136 78 81 42 106 61 153 116
54 64 78 112 38 76 -39 -36 -42 -15 -4 27 52 56 78 108 87 171 8 58 50 194 76
247 14 27 23 35 37 31 20 -5 29 9 38 54 8 40 53 166 64 177 18 18 12 -15 -20
-109 -26 -78 -28 -92 -18 -117 7 -15 16 -28 19 -28 11 0 33 52 31 75 -2 30 62
208 77 213 18 6 13 -23 -19 -103 -27 -67 -51 -168 -37 -155 2 3 24 62 47 133
l42 127 47 21 c25 11 61 34 79 52 l33 32 19 -25 c33 -42 51 -88 61 -153 18
-123 20 -130 30 -120 7 7 7 28 1 64 -6 30 -8 111 -5 181 l6 127 38 43 c22 23
39 38 39 33 0 -13 -37 -409 -46 -496 -4 -39 -3 -69 3 -72 5 -3 15 55 22 141
38 437 45 485 79 543 l32 54 0 -60 c0 -68 -28 -377 -60 -659 -16 -135 -19
-191 -11 -199 8 -8 11 0 11 29 0 22 11 138 25 259 14 121 32 296 40 389 8 92
16 171 19 174 4 3 6 -99 6 -226 0 -182 -4 -260 -21 -369 -23 -157 -39 -422
-27 -440 9 -12 -13 -63 -59 -135 -29 -46 -17 -51 14 -5 29 42 90 167 99 201
18 71 24 19 24 -201 1 -187 4 -243 15 -263 9 -16 14 -55 15 -107 0 -148 35
-335 66 -359 9 -8 12 -21 8 -41 -6 -31 5 -25 -337 -202 -40 -20 -97 -51 -127
-68 -30 -18 -81 -41 -113 -53 -31 -12 -81 -38 -110 -57 -28 -20 -88 -50 -132
-68 -136 -56 -157 -66 -153 -71 3 -2 30 7 61 21 32 14 74 27 95 30 21 2 52 11
68 20 16 8 37 15 47 15 10 0 47 13 80 29 34 15 73 31 86 36 28 9 170 85 351
189 173 100 245 136 269 136 12 0 27 10 35 23 8 12 45 40 81 62 49 30 65 45
65 63 0 20 -2 21 -22 11 -13 -6 -36 -21 -53 -33 -51 -38 -53 -38 -69 -4 -19
37 -13 48 12 25 21 -19 38 -22 47 -7 6 10 -31 88 -102 212 -43 78 -43 78 -57
236 -15 173 -10 237 23 263 12 10 21 31 23 53 1 21 6 40 11 43 5 3 24 -10 42
-28 18 -19 40 -40 49 -47 9 -7 16 -22 16 -32 0 -11 4 -20 9 -20 4 0 19 -11 33
-23 24 -22 25 -28 21 -99 -3 -49 -1 -78 6 -82 8 -5 11 26 10 106 0 62 -4 105
-8 95 -12 -32 -33 5 -27 49 2 22 5 54 5 72 1 17 5 32 10 32 6 0 11 -15 14 -32
2 -18 4 386 5 897 l2 930 -72 -110 c-76 -116 -174 -247 -280 -376 -35 -43 -92
-117 -128 -165 -36 -49 -108 -133 -160 -187 -52 -55 -101 -110 -108 -123 -7
-13 -17 -24 -22 -24 -5 0 -20 -11 -34 -25 -28 -28 -68 -37 -46 -10 7 8 18 15
26 15 7 0 16 5 19 10 6 10 -108 -29 -153 -52 -18 -9 -28 -9 -44 1 -11 7 -22
11 -24 8 -9 -8 -124 -316 -124 -331 0 -9 -14 -54 -31 -99 -90 -240 -101 -262
-191 -366 -21 -24 -38 -50 -38 -57 0 -7 -17 -26 -37 -42 -65 -50 -318 -220
-405 -271 -46 -26 -200 -117 -343 -201 -143 -84 -273 -160 -290 -170 -16 -9
-124 -75 -240 -145 -458 -280 -572 -346 -610 -357 -22 -6 -45 -16 -52 -20 -6
-5 -47 -15 -90 -23 -43 -7 -105 -19 -138 -25 -40 -8 -117 -10 -235 -7 -177 6
-257 19 -267 43 -3 8 -12 14 -20 14 -52 0 -326 160 -437 255 -119 102 -147
142 -496 725 -64 107 -143 245 -175 305 -32 61 -89 162 -128 225 -112 186
-132 224 -113 217 14 -6 15 -3 5 16 -6 12 -46 72 -89 132 -89 128 -91 131
-120 210 -67 182 -113 372 -150 616 -11 74 -27 175 -35 224 -9 50 -19 117 -24
150 -7 52 -9 57 -18 37 -7 -18 -12 16 -22 140 -7 89 -17 167 -22 173 -5 5 -9
-6 -10 -30 -1 -40 -1 -40 -10 10 -5 29 -4 54 1 60 19 22 -21 391 -65 610 -8
39 -19 97 -24 130 -6 33 -26 137 -46 230 -19 94 -35 189 -35 212 0 52 45 253
105 470 61 216 61 218 80 203 13 -11 14 -6 9 31 -4 33 1 59 20 104 29 70 35
62 38 -54 2 -62 7 -86 17 -89 11 -4 12 0 6 14 -24 53 -12 314 13 314 4 0 6
-52 3 -115 -4 -133 2 -164 24 -121 8 16 15 44 15 62 0 19 5 34 10 34 6 0 10
-4 10 -10 0 -5 4 -10 9 -10 5 0 7 17 4 38 -4 27 1 47 17 75 24 41 40 48 40 18
0 -11 5 -23 10 -26 7 -4 8 7 4 33 -6 38 7 64 21 42 11 -18 23 -11 18 10 -7 25
22 60 49 60 10 0 21 7 24 15 9 23 24 18 24 -9 0 -14 5 -28 11 -32 8 -5 10 3 5
28 -3 19 -4 37 -1 40 3 3 8 38 10 77 2 39 11 85 19 102 9 18 16 38 16 46 0 8
5 11 10 8 6 -3 10 -51 10 -109 0 -71 4 -107 13 -114 9 -8 11 6 9 66 -2 42 1
97 5 122 7 39 12 45 36 48 l28 3 -7 -89 c-5 -62 -3 -91 5 -96 8 -5 11 8 11 42
0 27 3 70 6 96 6 43 9 46 35 46 28 0 29 -2 29 -50 0 -30 4 -50 11 -50 7 0 9
10 5 25 -10 41 3 77 28 73 19 -3 21 -8 18 -62 -3 -72 3 -69 24 10 8 32 22 66
31 76 13 14 13 21 4 32 -22 26 -4 34 51 24 29 -5 97 -8 151 -6 86 3 100 6 115
24 13 16 22 20 37 14 31 -13 42 -12 61 7 15 16 17 16 31 -3 12 -16 15 -17 24
-4 8 11 12 12 16 3 7 -18 37 -17 30 1 -3 7 -8 55 -12 107 -7 109 9 104 19 -6
15 -152 39 -216 56 -144 4 17 8 20 14 11 17 -28 49 20 92 140 28 77 51 116 38
63 -16 -65 -76 -241 -90 -263 -9 -13 -14 -31 -12 -40 2 -11 15 2 37 38 18 30
63 84 99 120 72 70 239 196 249 187 6 -6 -82 -124 -194 -258 -35 -43 -63 -80
-63 -83 0 -15 29 -4 51 20 43 46 151 111 337 204 188 93 232 108 196 69 -25
-28 -168 -139 -217 -168 -77 -47 -24 -32 115 32 166 76 257 113 243 98 -11
-11 -228 -137 -249 -144 -6 -2 -8 -8 -4 -12 4 -5 38 6 75 23 155 71 417 159
446 149 17 -6 -69 -47 -190 -92 -57 -21 -103 -42 -103 -46 0 -18 22 -19 69 -5
53 16 225 41 328 49 53 4 67 2 90 -16 71 -56 142 -162 143 -212 0 -11 5 -27
11 -35 8 -11 9 -7 5 18 -3 17 -3 32 -1 32 11 0 45 -66 45 -87 0 -12 9 -28 20
-36 23 -16 64 -97 105 -207 41 -114 46 -122 40 -70 -3 25 10 167 30 325 19
154 35 283 35 288 0 4 11 7 25 7 14 0 25 -3 25 -7 0 -9 -22 -190 -45 -368 -8
-60 -19 -155 -25 -210 -6 -55 -13 -112 -16 -127 -3 -16 -2 -28 3 -28 5 0 23
118 42 263 18 144 34 273 36 287 2 14 6 53 10 88 4 34 11 62 16 62 18 0 10
-132 -31 -523 -12 -114 -20 -213 -18 -219 6 -16 56 405 67 555 5 65 11 121 14
123 3 3 10 -4 16 -15 8 -15 9 -45 1 -108 -11 -94 -50 -544 -50 -576 0 -86 32
164 50 393 15 189 21 226 32 205 16 -27 14 -166 -4 -355 -23 -234 -30 -360
-19 -335 4 11 11 61 15 110 3 50 10 137 16 195 5 58 9 114 10 124 0 44 14 0
21 -67 4 -41 5 -1 2 91 -3 98 -2 162 4 162 19 0 127 -249 189 -435 73 -222
130 -427 179 -644 39 -177 68 -382 56 -394 -5 -5 -35 -1 -67 7 -101 26 -358
59 -362 47 -6 -18 -34 -13 -58 10 l-23 22 -83 -33 c-46 -18 -99 -43 -118 -55
-19 -12 -62 -36 -95 -54 -56 -31 -58 -32 -33 -8 14 14 52 43 84 63 32 21 53
39 46 42 -15 5 -138 -71 -242 -149 -92 -69 -190 -167 -190 -188 1 -13 4 -12
15 4 25 34 119 125 129 125 6 0 -11 -22 -38 -49 -27 -27 -45 -54 -42 -60 4 -6
-2 -28 -13 -49 -11 -22 -18 -42 -14 -45 3 -4 17 17 32 45 26 52 115 158 132
158 5 0 -18 -32 -51 -71 -33 -40 -57 -76 -53 -82 3 -5 10 -3 15 7 5 9 14 14
19 10 6 -3 24 6 40 22 32 31 53 26 24 -6 -32 -36 -4 -21 52 26 30 26 57 44 60
40 4 -3 1 -12 -5 -18 -7 -7 -12 -19 -12 -27 0 -11 5 -10 23 6 12 11 29 21 37
21 8 1 49 13 90 28 168 59 350 80 555 63 77 -6 148 -16 157 -20 20 -11 25 -38
33 -186 5 -103 4 -113 -12 -113 -17 -1 -17 -1 0 -11 22 -13 24 -54 1 -45 -23
9 -37 -3 -23 -20 9 -11 15 -11 25 -3 12 9 14 3 14 -37 0 -36 -6 -57 -23 -78
l-23 -29 -110 12 c-134 14 -334 14 -393 0 -24 -5 -46 -8 -48 -5 -7 6 85 143
100 149 9 3 14 25 15 67 0 33 4 70 7 81 4 10 2 19 -3 19 -5 0 -13 -17 -16 -37
-11 -61 -16 -73 -33 -73 -13 0 -14 9 -9 53 4 28 10 63 13 76 4 16 2 22 -5 17
-5 -3 -16 -39 -22 -78 -7 -40 -16 -79 -20 -88 -4 -8 -13 -26 -18 -40 -8 -19
-10 -4 -7 65 l5 90 -19 -118 c-16 -105 -31 -150 -46 -136 -2 3 0 47 6 98 6 51
9 100 7 109 -2 9 -9 -35 -17 -98 -13 -121 -26 -164 -47 -156 -13 5 -18 -4 -29
-61 -3 -17 -13 -37 -21 -44 -8 -6 -14 -23 -14 -36 0 -27 -27 -90 -42 -99 -6
-4 -8 45 -5 132 4 94 3 119 -3 79 -4 -33 -8 -103 -9 -155 -1 -53 -5 -100 -10
-105 -13 -13 -20 -104 -9 -111 4 -3 8 -17 8 -31 0 -25 0 -26 20 -8 11 10 20
15 20 11 0 -3 14 1 31 9 50 26 56 11 8 -22 -24 -17 -57 -45 -74 -63 -16 -17
-47 -39 -68 -47 -27 -11 -35 -19 -28 -26 7 -7 18 -7 36 1 14 7 34 12 43 12 19
0 126 105 162 160 13 19 33 43 44 52 20 16 21 16 28 -5 6 -21 6 -21 7 3 1 14
6 32 11 40 8 12 10 10 11 -10 0 -22 2 -21 14 10 l13 35 1 -42 c1 -42 2 -42 26
-31 20 9 23 16 18 37 -3 14 -10 27 -14 29 -9 4 22 42 35 42 5 0 6 -20 4 -45
-3 -25 -2 -45 3 -45 5 0 9 22 9 49 0 69 20 77 21 9 l1 -53 13 60 c12 57 13 58
14 20 1 -26 4 -35 10 -27 4 8 12 13 16 12 5 -1 13 13 19 30 16 46 30 42 40
-12 5 -27 12 -48 16 -48 3 0 28 -21 54 -46 26 -25 50 -43 53 -40 3 3 21 -1 40
-9 47 -20 63 -19 63 3 0 13 -12 23 -42 31 -59 18 -118 80 -118 125 0 33 1 33
53 40 105 12 125 9 142 -24 19 -37 42 -39 57 -5 10 23 16 25 82 24 130 -1 363
-33 386 -54 11 -10 20 -13 20 -7 0 6 -6 13 -12 15 -7 3 -3 6 9 6 47 2 154 -42
198 -81 25 -22 49 -37 54 -33 19 11 0 32 -50 55 -27 13 -49 27 -49 32 0 8 62
13 109 9 22 -2 23 0 11 14 -7 9 -26 23 -42 31 -16 8 -28 23 -28 34 0 16 7 20
35 20 19 0 35 5 35 10 0 6 -28 10 -62 11 -67 1 -102 6 -263 39 -55 11 -136 27
-180 36 -44 9 -102 21 -130 28 l-50 13 3 249 c1 137 4 254 6 260 4 10 52 4
336 -40 19 -3 88 -13 153 -21 65 -9 139 -23 165 -31 96 -29 130 -4 45 33 -188
83 -312 125 -523 178 -80 20 -153 39 -162 41 -15 4 -18 17 -18 62 0 83 -28
433 -44 564 -8 62 -18 183 -21 268 -4 85 -13 211 -21 280 -17 150 -17 150 -4
150 6 0 10 -22 10 -49 0 -27 3 -56 6 -65 11 -30 20 -16 16 25 -3 23 0 39 4 36
13 -8 52 -88 59 -119 3 -16 11 -27 17 -25 8 1 15 -18 19 -51 7 -56 19 -82 19
-42 0 15 4 20 9 14 12 -12 93 -202 116 -272 21 -65 32 -61 15 5 -10 39 -10 78
2 206 8 86 18 160 22 164 17 18 18 -20 3 -150 -21 -168 -21 -207 -4 -230 10
-15 11 -6 9 48 -3 60 23 299 35 318 2 4 12 2 20 -5 17 -14 16 -42 -12 -268
-17 -143 -20 -276 -5 -285 6 -4 10 23 10 74 0 74 23 339 36 419 3 17 11 32 18
32 32 0 34 -24 15 -170 -10 -80 -20 -192 -23 -250 -6 -119 -5 -112 35 203 14
111 27 177 34 177 6 0 19 -6 28 -12 16 -12 14 -25 -18 -183 -58 -282 -96 -601
-76 -633 4 -8 11 32 15 95 3 59 15 166 26 237 23 146 80 449 86 455 2 3 9 0
15 -6 8 -8 5 -42 -10 -119 -62 -330 -94 -551 -82 -572 5 -9 11 11 15 50 6 65
68 442 87 536 10 51 24 66 35 38 3 -7 -8 -80 -25 -162 -74 -364 -117 -622
-105 -633 14 -14 26 26 29 95 3 65 56 368 106 602 11 50 24 66 34 40 3 -7 -9
-78 -26 -158 -37 -175 -75 -392 -85 -479 -5 -52 -4 -63 7 -59 10 3 14 23 15
62 2 75 9 116 50 326 38 193 53 254 60 248 9 -10 68 -326 124 -668 96 -589
121 -733 136 -775 13 -38 14 -35 9 60 -20 380 -24 520 -25 750 -1 308 -3 287
16 253 44 -83 87 -501 67 -661 -8 -71 -3 -106 11 -75 9 20 -2 -659 -14 -815
-8 -113 -17 -161 -51 -275 -129 -434 -331 -865 -451 -967 -18 -16 -69 -45
-113 -66 -91 -43 -86 -52 7 -13 149 63 323 227 453 427 31 49 59 87 60 85 2
-2 -7 -50 -21 -107 -26 -112 -29 -130 -15 -115 5 5 59 104 121 219 139 257
269 476 358 600 44 63 75 120 93 171 14 42 29 72 33 66 12 -20 47 1 62 36 9
23 18 32 24 26 18 -18 -265 -687 -300 -709 -5 -3 -10 -16 -10 -29 0 -12 -18
-48 -40 -79 -22 -30 -40 -59 -40 -62 0 -18 33 24 100 128 41 61 99 150 131
197 131 193 317 495 354 576 8 15 10 10 13 -26 7 -95 -44 -276 -93 -330 -21
-23 -24 -36 -27 -155 -4 -105 -8 -139 -26 -177 -12 -27 -17 -50 -11 -53 11 -7
24 25 47 113 17 64 32 81 32 37 0 -37 14 -31 48 23 71 109 75 157 22 223 l-29
37 20 58 c12 33 23 70 26 84 2 14 8 43 13 65 5 22 10 72 10 111 0 59 5 79 31
127 17 32 48 76 70 100 21 23 54 64 74 92 43 61 47 41 5 -21 l-30 -45 30 -29
c17 -16 30 -38 30 -50 0 -38 25 -20 60 45 35 64 52 76 58 39 2 -12 -20 -47
-56 -89 -32 -39 -79 -98 -105 -132 -26 -34 -57 -65 -68 -68 -28 -9 -10 -28 22
-23 15 2 30 15 39 33 22 45 98 153 114 162 7 4 30 30 50 56 l37 48 -31 38
c-16 21 -41 62 -54 92 -27 57 -27 57 22 132 14 20 21 41 17 45 -4 4 -10 2 -12
-4 -7 -20 -155 -215 -160 -210 -2 2 11 35 30 72 47 95 137 300 137 313 0 18
14 13 56 -19 21 -16 42 -30 47 -30 4 0 7 280 6 623 l-1 622 -23 -105 c-61
-280 -109 -427 -235 -710 -42 -96 -89 -206 -104 -245 -25 -65 -64 -143 -52
-102 3 10 30 93 60 185 146 448 295 982 340 1224 22 119 22 260 -1 295 -17 26
-17 27 0 20 16 -6 17 47 17 1023 0 633 -4 1031 -9 1035 -6 3 -29 41 -52 85
l-43 80 -43 0 c-24 0 -43 -2 -43 -4 0 -9 129 -383 144 -418 17 -40 22 -79 7
-62 -4 5 -36 81 -71 169 -68 171 -126 296 -143 307 -18 11 -34 -10 -30 -40 4
-24 2 -23 -17 11 l-20 37 -135 0 -134 0 51 -82 c57 -92 162 -305 203 -413 74
-192 105 -278 102 -281 -4 -5 -176 343 -241 486 -31 69 -78 161 -104 205 l-48
80 -72 3 c-40 2 -72 -1 -72 -5 0 -4 18 -26 41 -48 22 -21 58 -68 79 -105 53
-91 122 -231 117 -236 -6 -6 -59 62 -191 245 l-109 151 -140 0 -141 0 58 -59
c62 -63 61 -58 28 -101 -2 -3 -39 32 -81 78 -76 83 -77 83 -121 80 l-44 -3 48
-35 c117 -86 181 -143 208 -186 57 -90 155 -300 145 -311 -3 -2 -51 58 -108
133 -112 150 -182 235 -275 337 l-61 67 -113 0 -112 0 44 -36 c23 -20 45 -41
47 -48 4 -10 -17 4 -98 66 -13 10 -31 18 -39 18 -20 0 165 -188 293 -298 208
-178 295 -283 437 -521 110 -183 192 -358 223 -472 14 -52 64 -211 111 -354
104 -311 98 -295 85 -274 -6 9 -35 78 -66 152 -72 179 -141 313 -215 417 -81
115 -124 189 -210 360 -118 235 -194 344 -354 508 -89 90 -120 109 -59 35 80
-98 309 -430 302 -438 -2 -2 -43 45 -91 105 -186 230 -459 503 -712 714 -75
62 -83 66 -129 66 -48 0 -49 -1 -34 -18 23 -25 21 -35 -4 -21 -12 6 -33 9 -47
6 -16 -3 -43 3 -67 15 -37 20 -50 20 -225 13 -102 -4 -318 -8 -480 -9 -256 -2
-311 -5 -415 -24 -66 -12 -141 -29 -168 -38 -73 -24 -76 -12 -6 31 l64 40
-414 3 -415 2 -35 -23 c-81 -53 -91 -59 -91 -54 0 3 17 22 38 41 l37 36 -215
-1 c-129 0 -207 -4 -195 -9 19 -8 19 -9 1 -9 -10 -1 -36 4 -57 10 -30 10 -42
9 -54 -1 -12 -10 -19 -10 -27 -2 -9 9 -115 12 -384 12 l-371 0 -84 -131z
m2386 -23 c-222 -88 -459 -206 -636 -319 -56 -35 -170 -90 -175 -84 -6 6 206
151 316 217 115 69 315 167 396 194 63 21 128 34 174 35 28 0 11 -9 -75 -43z
m733 13 c141 -25 399 -88 501 -123 81 -28 140 -74 293 -228 76 -77 223 -269
354 -463 67 -99 61 -96 -69 40 -382 399 -803 702 -979 705 -10 0 -27 -9 -39
-21 -16 -16 -18 -23 -8 -35 15 -19 29 -18 29 2 0 57 268 -96 480 -272 235
-197 654 -646 656 -704 1 -16 21 -61 46 -102 106 -169 184 -330 334 -683 90
-213 95 -225 89 -225 -3 0 -30 51 -61 113 -31 61 -100 186 -154 277 -53 91
-144 257 -201 369 -71 140 -117 218 -144 245 -22 23 -92 91 -155 152 -63 61
-122 119 -130 129 -14 17 -14 18 10 5 34 -18 129 -87 162 -118 15 -14 30 -23
33 -20 8 8 -254 257 -360 342 -49 40 -110 85 -135 101 -25 15 -54 35 -65 45
-27 25 -251 140 -355 183 -242 100 -450 140 -550 106 -27 -10 -39 -9 -64 4
-106 54 -153 61 -149 22 2 -17 -10 -24 -75 -43 -187 -54 -366 -111 -627 -202
-224 -78 -179 -47 65 45 251 95 277 105 380 146 58 23 194 72 303 109 109 37
200 70 203 72 20 21 -629 -177 -840 -256 -39 -14 -71 -24 -73 -22 -4 4 155 78
247 114 98 39 219 77 327 102 49 12 142 35 208 51 266 64 337 69 513 38z
m2172 -20 c0 -6 -4 -7 -10 -4 -5 3 -10 11 -10 16 0 6 5 7 10 4 6 -3 10 -11 10
-16z m-3956 -43 c-15 -24 -97 -96 -108 -96 -3 0 -6 6 -6 14 0 14 107 106 123
106 4 0 0 -11 -9 -24z m-544 -103 c58 -14 112 -29 120 -34 17 -10 -222 -12
-257 -3 -33 9 -28 23 9 31 27 5 29 7 13 14 -11 4 -32 8 -47 8 -16 1 -28 6 -28
11 0 13 58 5 190 -27z m4205 -318 c48 -82 144 -244 213 -360 144 -241 134
-225 129 -225 -2 0 -33 42 -67 93 -35 50 -82 117 -105 147 -24 30 -77 123
-119 205 -41 83 -96 186 -120 230 -25 44 -45 84 -46 90 0 14 18 -14 115 -180z
m-4490 125 c3 -6 -4 -10 -17 -10 -18 0 -20 2 -8 10 19 12 18 12 25 0z m693
-59 c-2 -3 -32 -33 -67 -66 -52 -48 -60 -53 -41 -25 54 79 81 109 96 103 8 -3
14 -8 12 -12z m276 -111 c-87 -44 -160 -80 -163 -80 -3 0 12 12 34 27 40 27
262 133 279 133 5 0 -63 -36 -150 -80z m-920 -73 c49 -12 91 -28 94 -35 2 -7
-5 -12 -16 -12 -15 0 -21 -9 -27 -36 -3 -20 -18 -47 -32 -60 -14 -13 -23 -29
-20 -36 5 -14 -29 -88 -41 -88 -4 0 -71 21 -149 47 l-142 46 67 42 c37 23 77
45 89 49 11 4 33 18 49 33 l28 26 -129 -5 c-110 -4 -144 -10 -220 -36 -49 -16
-92 -28 -94 -26 -3 2 8 17 23 33 67 70 344 101 520 58z m4042 -221 c53 -66
103 -161 91 -172 -2 -2 -39 47 -82 109 -43 61 -106 146 -138 187 -33 41 -64
82 -70 90 -20 32 138 -139 199 -214z m-1809 -73 c78 -163 138 -310 205 -497
91 -257 127 -366 119 -366 -5 0 -23 37 -41 83 -163 419 -268 637 -392 814 -16
24 -26 48 -22 55 16 29 48 57 57 51 5 -3 39 -66 74 -140z m-2656 26 c53 -38
99 -80 99 -90 0 -10 -153 59 -161 72 -3 6 -10 9 -15 8 -37 -7 -45 13 -11 29
33 16 40 15 88 -19z m-164 -41 c-19 -18 -69 -67 -111 -108 -65 -63 -81 -74
-109 -72 -27 1 -38 -6 -72 -48 -22 -27 -63 -89 -92 -137 -29 -48 -71 -118 -94
-155 -23 -37 -43 -78 -45 -90 -4 -48 -97 -238 -110 -225 -6 5 41 132 66 178
11 20 20 44 20 53 0 26 83 197 135 277 57 90 153 190 220 230 28 16 84 52 125
79 87 56 117 64 67 18z m2581 -310 c48 -71 58 -98 23 -65 -8 6 11 -19 42 -58
81 -101 239 -377 224 -391 -3 -3 -10 4 -16 15 -6 11 -23 33 -37 48 -14 15 -37
48 -50 73 -13 25 -62 107 -109 184 -47 76 -83 141 -80 144 2 3 -4 11 -14 19
-16 11 -132 168 -190 257 -38 58 161 -160 207 -226z m2186 180 c3 -16 2 -28
-3 -28 -12 0 -21 26 -21 58 1 31 13 15 24 -30z m-1019 10 c33 -11 101 -40 152
-64 106 -50 90 -20 147 -279 20 -88 47 -205 60 -260 87 -362 106 -443 112
-465 14 -50 -6 -12 -69 135 -212 493 -342 749 -458 901 -43 56 -48 70 -21 59
9 -3 44 -16 77 -27z m-1534 -12 c-15 -17 -141 -103 -278 -188 -56 -35 -174
-109 -261 -165 -88 -57 -163 -103 -168 -103 -24 1 244 208 368 284 42 26 132
78 200 116 122 69 163 85 139 56z m-2126 -6 c22 -6 63 -15 90 -20 225 -42 231
-45 284 -102 27 -29 47 -56 45 -59 -2 -3 -36 5 -76 18 -140 46 -402 103 -475
103 -43 0 -42 11 4 43 41 29 65 32 128 17z m5303 -55 c-3 -3 -9 2 -12 12 -6
14 -5 15 5 6 7 -7 10 -15 7 -18z m-5788 -61 c-2 -5 -58 -63 -124 -129 -112
-112 -140 -129 -64 -38 19 22 60 76 92 121 56 77 61 81 80 68 12 -7 19 -17 16
-22z m1030 -79 c58 -58 99 -105 92 -105 -14 0 -212 188 -212 202 0 19 21 2
120 -97z m-900 68 c-1 -11 -50 -66 -55 -61 -6 6 36 68 46 68 5 0 9 -3 9 -7z
m2590 -19 c0 -12 -213 -105 -375 -164 -93 -35 -183 -68 -200 -75 -16 -7 -46
-16 -65 -20 l-35 -6 30 21 c87 61 305 154 510 216 112 33 135 38 135 28z
m-2709 -192 c-5 -10 -18 -25 -27 -33 -16 -13 -16 -12 -4 11 11 22 28 39 38 40
1 0 -2 -8 -7 -18z m976 -378 c-3 -3 -12 -4 -19 -1 -8 3 -5 6 6 6 11 1 17 -2
13 -5z m1993 -40 c0 -2 -9 -4 -21 -4 -11 0 -18 4 -14 10 5 8 35 3 35 -6z m-96
-10 c8 -22 8 -84 -1 -84 -7 0 -93 90 -93 97 0 2 20 3 44 3 31 0 46 -5 50 -16z
m309 -10 c-2 -10 -17 -127 -33 -259 -17 -132 -32 -244 -34 -250 -2 -5 -9 4
-16 20 -7 19 -9 55 -5 100 11 122 36 319 42 335 3 8 5 26 4 39 -3 24 15 44 34
37 6 -2 9 -12 8 -22z m-273 -44 c0 -33 -4 -60 -10 -60 -11 0 -14 103 -3 113
12 12 13 8 13 -53z m71 10 c5 -30 7 -31 8 -8 1 29 16 45 26 28 4 -6 10 -8 15
-5 4 3 15 3 23 -1 12 -4 14 -37 13 -194 0 -103 -2 -187 -3 -187 -18 18 -83
165 -83 188 0 26 -2 29 -14 20 -24 -20 -46 36 -46 117 0 75 4 84 35 80 14 -2
22 -13 26 -38z m139 30 c0 -5 -4 -10 -9 -10 -6 0 -13 5 -16 10 -3 6 1 10 9 10
9 0 16 -4 16 -10z m-6 -66 c-4 -68 -28 -254 -32 -249 -7 7 -3 210 5 253 7 40
29 37 27 -4z m-2340 20 c17 -6 22 -24 8 -24 -5 0 -17 7 -28 15 -19 15 -8 20
20 9z m3047 -164 c17 -9 19 -22 19 -100 0 -50 -4 -90 -9 -90 -12 0 -18 18 -31
100 -16 104 -15 109 21 90z m89 -34 c8 -10 10 -53 8 -140 -2 -69 -5 -126 -8
-126 -3 0 -15 15 -27 33 -20 29 -23 46 -23 140 0 98 2 107 19 107 10 0 24 -6
31 -14z m-3457 -128 c-2 -10 -9 -18 -14 -18 -11 0 -12 64 -2 100 6 22 8 19 14
-20 4 -25 5 -53 2 -62z m3520 12 c-4 -152 -14 -233 -26 -221 -7 7 -12 57 -12
134 -1 154 3 179 24 175 13 -3 16 -17 14 -88z m-3578 -1 c1 -30 -4 -54 -12
-61 -15 -12 -17 3 -7 76 8 58 18 51 19 -15z m3653 41 c17 -11 33 -28 33 -37 2
-29 -2 -48 -13 -54 -7 -4 -7 -13 -1 -25 9 -18 7 -66 -15 -269 l-7 -70 -33 70
-34 70 8 145 c4 80 9 148 10 153 1 4 2 14 3 22 1 20 9 19 49 -5z m-3737 -100
c-2 -57 -8 -81 -25 -102 -11 -15 -24 -27 -28 -27 -11 -1 4 193 16 201 6 5 18
7 26 5 12 -2 14 -17 11 -77z m-72 -52 c-2 -82 -7 -124 -20 -153 l-18 -40 0
123 c-1 92 3 130 14 152 9 17 18 30 21 30 3 0 4 -51 3 -112z m3899 68 c3 -33
1 -38 -13 -32 -9 3 -19 6 -21 6 -2 0 -4 16 -4 36 0 28 3 35 18 32 12 -2 18
-15 20 -42z m1642 -63 c0 -228 -95 -660 -239 -1088 -34 -98 -61 -181 -61 -184
0 -2 -2 -2 -6 1 -3 3 45 205 106 449 125 499 169 704 177 832 3 48 10 87 14
87 5 0 9 -44 9 -97z m-5443 25 c-2 -13 -4 -5 -4 17 -1 22 1 32 4 23 2 -10 2
-28 0 -40z m3851 9 c2 -19 -1 -27 -12 -27 -11 0 -16 10 -16 31 0 38 24 35 28
-4z m52 -28 c0 -5 -7 -9 -15 -9 -9 0 -15 9 -15 21 0 18 2 19 15 9 8 -7 15 -16
15 -21z m-113 -73 c-10 -154 -31 -346 -37 -346 -13 0 -31 80 -26 113 3 17 8
68 11 113 3 45 10 108 15 140 6 32 10 60 10 61 0 1 7 0 16 -4 13 -5 15 -18 11
-77z m53 26 c0 -30 -24 -71 -32 -56 -3 5 -3 26 -1 47 6 44 33 52 33 9z m46 -2
c14 -14 5 -80 -12 -80 -20 0 -26 16 -18 55 6 36 13 42 30 25z m68 -51 c12 -36
2 -59 -23 -52 -17 4 -21 13 -21 45 0 32 3 39 17 36 10 -2 22 -15 27 -29z m36
-59 c0 -5 -5 -10 -11 -10 -5 0 -7 5 -4 10 3 6 8 10 11 10 2 0 4 -4 4 -10z
m970 -127 c0 -89 -104 -880 -117 -893 -13 -12 21 409 53 665 27 220 64 352 64
228z m-5930 -1173 c11 -96 27 -314 36 -483 l14 -309 -29 -151 c-17 -84 -40
-183 -51 -220 -12 -38 -19 -74 -17 -80 2 -7 19 34 36 90 18 56 41 113 52 126
10 14 19 33 19 44 0 33 55 273 63 273 11 0 -2 -136 -19 -199 -9 -29 -13 -60
-10 -67 8 -21 -29 -200 -70 -344 -45 -152 -93 -281 -139 -369 -33 -62 -57 -94
-175 -236 -28 -32 -50 -62 -50 -67 0 -17 32 6 46 33 8 16 43 60 77 97 62 66
155 206 235 352 113 207 248 573 258 698 5 64 29 142 44 142 4 0 10 -41 14
-90 4 -50 9 -114 12 -143 3 -37 2 -48 -5 -37 -6 8 -11 39 -11 68 0 28 -3 52
-8 52 -4 0 -24 -48 -44 -107 -102 -300 -129 -370 -201 -515 -70 -141 -146
-267 -224 -370 -15 -20 -47 -63 -71 -96 -38 -53 -119 -122 -142 -122 -36 0 0
59 130 211 31 36 77 107 103 157 85 163 204 548 178 574 -3 4 -33 -53 -65
-127 -81 -188 -94 -193 -51 -20 30 117 39 161 65 315 34 198 25 590 -20 892
-11 73 -20 139 -20 147 0 11 -3 11 -15 1 -19 -16 -163 -229 -213 -313 -39 -69
-215 -317 -220 -312 -2 1 18 36 44 76 25 41 57 90 69 109 12 19 69 107 127
195 144 219 193 296 202 320 l8 20 8 -20 c5 -11 18 -99 30 -195z m5499 -319
c1 -107 -1 -192 -3 -190 -2 2 -5 114 -8 249 -2 135 -1 220 3 190 4 -30 7 -142
8 -249z m-1509 9 c0 -6 -9 -20 -20 -32 l-20 -22 0 25 c0 14 3 29 7 32 10 11
33 8 33 -3z m-70 -114 c-12 -20 -25 -36 -30 -36 -5 0 3 18 17 40 32 49 44 45
13 -4z m2594 -68 c-7 -37 -48 -101 -56 -92 -8 7 44 123 55 124 5 0 5 -15 1
-32z m-45 -15 c-25 -43 -39 -60 -39 -49 0 13 45 86 53 86 5 0 -1 -17 -14 -37z
m-2194 7 c4 -6 -26 -10 -84 -10 -49 0 -93 5 -96 10 -4 6 26 10 84 10 49 0 93
-4 96 -10z m2239 -76 c-37 -63 -43 -39 -7 26 16 28 29 44 31 36 2 -9 -9 -36
-24 -62z m-7039 2 c-15 -25 -32 -49 -37 -52 -14 -9 -9 1 27 58 37 60 46 55 10
-6z m4722 -122 c8 -22 -15 -44 -26 -25 -10 16 -4 41 10 41 5 0 12 -7 16 -16z
m-277 -8 c0 -3 -4 -8 -10 -11 -5 -3 -10 -1 -10 4 0 6 5 11 10 11 6 0 10 -2 10
-4z m298 -60 c3 -12 -1 -17 -10 -14 -7 3 -15 13 -16 22 -3 12 1 17 10 14 7 -3
15 -13 16 -22z m60 -82 c-10 -9 -51 33 -44 45 5 8 14 4 28 -14 11 -14 18 -28
16 -31z m-458 22 c0 -2 -7 -7 -16 -10 -8 -3 -12 -2 -9 4 6 10 25 14 25 6z
m-3463 -283 c-2 -16 -4 -3 -4 27 0 30 2 43 4 28 2 -16 2 -40 0 -55z m16 -548
c6 -536 -1 -638 -47 -782 -67 -203 -81 -233 -149 -301 -34 -35 -77 -72 -95
-84 -52 -32 -29 -34 26 -2 49 30 137 119 182 187 14 20 28 37 33 37 16 0 -38
-86 -86 -137 -61 -65 -47 -71 17 -7 32 32 63 81 100 158 74 152 109 281 136
496 6 47 16 123 22 170 6 47 11 205 12 352 0 147 3 264 7 260 4 -4 18 -50 33
-102 14 -52 48 -176 76 -274 28 -98 69 -256 91 -350 88 -368 91 -377 104 -364
3 3 -13 127 -35 277 -42 287 -48 348 -23 266 8 -27 21 -57 28 -65 13 -16 55
-172 55 -207 0 -34 55 -146 85 -173 15 -14 35 -41 45 -60 10 -19 52 -85 93
-147 81 -119 125 -194 247 -423 116 -219 179 -328 227 -399 79 -114 215 -402
193 -409 -13 -5 -111 -138 -142 -194 -29 -52 -147 -212 -203 -273 -49 -54 -29
-17 39 74 51 67 64 91 52 91 -2 0 -53 -68 -112 -152 -59 -83 -136 -178 -171
-211 -35 -34 -63 -69 -63 -79 0 -10 -4 -18 -10 -18 -5 0 -10 -7 -10 -15 0 -16
-271 -286 -319 -317 -14 -10 -35 -18 -47 -18 -11 0 -30 -14 -42 -30 -26 -34
-49 -42 -32 -10 6 11 7 20 2 20 -5 0 -17 -16 -27 -34 -18 -33 -18 -37 -2 -89
9 -30 17 -60 17 -68 0 -7 23 -37 52 -66 l51 -52 -79 -50 c-73 -47 -79 -50 -82
-30 -4 23 42 71 55 58 5 -5 20 2 35 14 l26 23 -34 38 c-19 21 -37 36 -40 33
-3 -3 8 -20 25 -37 27 -29 29 -34 15 -47 -8 -9 -18 -12 -22 -9 -3 4 -1 10 5
14 8 5 2 18 -19 41 -25 26 -28 35 -17 42 11 7 11 11 1 17 -7 5 -10 16 -7 24 3
8 -1 22 -9 31 -9 9 -13 22 -10 30 3 8 -3 22 -12 31 -16 17 -13 21 47 82 54 54
69 64 99 64 38 0 69 14 57 27 -5 4 -12 1 -17 -6 -7 -12 -11 -12 -24 2 -15 14
-13 15 24 12 38 -4 54 7 28 19 -7 3 -4 4 8 1 13 -3 28 3 41 17 11 13 62 64
113 113 90 89 117 121 106 132 -3 3 7 18 22 32 114 112 172 180 165 197 -4 12
-3 15 5 10 7 -4 12 -1 12 8 0 10 6 13 17 9 11 -4 14 -3 9 6 -5 7 4 23 21 39
51 49 84 95 79 108 -3 8 1 14 9 14 7 0 17 9 20 20 3 11 13 20 21 20 8 0 14 5
14 10 0 6 5 10 12 10 18 0 48 31 48 51 0 9 3 19 8 21 18 8 63 72 58 84 -3 8 0
11 10 7 10 -4 12 0 7 13 -4 12 -3 15 5 10 7 -4 12 -2 12 5 0 6 16 29 34 50 31
33 34 42 29 76 -3 21 -11 41 -17 45 -6 4 -7 10 -3 14 8 8 -23 64 -36 64 -5 0
-7 6 -4 14 3 7 -6 31 -21 52 -14 22 -25 40 -24 42 6 7 -2 22 -37 61 -22 25
-38 49 -35 53 3 5 -11 31 -31 58 -20 28 -34 50 -30 50 3 0 -2 12 -13 28 -10
15 -36 62 -57 104 -21 43 -44 83 -51 89 -8 6 -14 17 -14 24 0 6 -18 37 -41 68
-22 32 -37 57 -33 57 3 0 2 6 -4 13 -5 6 -31 53 -57 102 -26 50 -56 102 -66
117 -11 14 -19 29 -19 32 0 5 -94 148 -180 271 -27 39 -61 101 -77 140 -21 52
-29 64 -31 47 -2 -13 1 -35 6 -50 9 -29 16 -102 17 -197 0 -53 -2 -60 -20 -60
-16 0 -22 11 -32 50 -7 28 -28 113 -47 190 -19 78 -44 187 -56 244 -23 111
-124 439 -140 455 -7 7 -10 -24 -10 -89 0 -54 -7 -157 -15 -229 -8 -72 -21
-198 -30 -281 -18 -181 -52 -310 -122 -469 -45 -101 -140 -214 -194 -231 -12
-4 -43 -19 -68 -34 -28 -17 -63 -28 -91 -29 -45 -3 -120 20 -120 36 0 5 26 8
59 8 49 0 67 6 107 32 117 74 176 177 239 417 31 117 42 323 39 790 -1 275 2
429 7 395 5 -30 10 -235 12 -455z m5797 390 c-27 -82 -45 -76 -19 7 26 87 31
98 36 75 3 -9 -5 -47 -17 -82z m-30 25 c-7 -17 -16 -28 -20 -25 -10 6 -1 45
14 64 16 21 20 -5 6 -39z m80 30 c0 -5 -4 -10 -10 -10 -5 0 -10 5 -10 10 0 6
5 10 10 10 6 0 10 -4 10 -10z m-14 -117 c-28 -54 -33 -41 -10 27 24 73 27 78
31 48 3 -15 -6 -47 -21 -75z m76 -405 c-7 -7 -12 -8 -12 -2 0 14 12 26 19 19
2 -3 -1 -11 -7 -17z m-32 -44 c0 -3 -11 -22 -25 -42 -17 -25 -25 -31 -25 -19
0 19 30 66 43 67 4 0 7 -2 7 -6z m-80 -108 c0 -20 -93 -132 -98 -118 -3 10 83
132 94 132 2 0 4 -6 4 -14z m-111 -243 c0 -27 -4 -70 -8 -98 l-7 -50 -22 42
c-12 23 -26 44 -32 48 -5 3 -10 12 -10 18 0 16 58 87 71 87 5 0 9 -21 8 -47z
m-5113 -120 c-4 -4 -11 -1 -16 7 -16 25 -11 35 7 17 9 -9 13 -20 9 -24z m4780
-78 c-11 -43 -48 -137 -52 -132 -4 4 33 133 43 150 10 16 15 6 9 -18z m-4682
-61 c3 -8 2 -12 -4 -9 -6 3 -10 10 -10 16 0 14 7 11 14 -7z m5466 -141 c-14
-163 -10 -234 7 -133 10 59 11 49 11 -117 0 -186 -3 -204 -36 -171 -19 19 -10
379 13 503 2 11 4 31 4 44 1 13 4 22 7 19 3 -4 0 -68 -6 -145z m-5354 53 l15
-31 -21 25 c-11 14 -26 34 -32 45 -10 18 -10 19 6 6 10 -8 24 -28 32 -45z
m5397 -33 c3 -21 13 -69 21 -108 18 -81 23 -405 6 -405 -5 0 -10 6 -10 14 0 8
-7 17 -15 20 -14 5 -15 32 -12 198 4 157 2 195 -10 203 -10 8 -12 24 -7 67 7
64 18 68 27 11z m-188 -191 c-11 -128 -25 -163 -21 -52 4 88 11 130 23 130 3
0 2 -35 -2 -78z m263 -192 c0 -30 -3 -77 -8 -105 -6 -39 -7 -23 -8 75 0 78 3
117 8 105 5 -11 9 -45 8 -75z m-1382 -216 c-30 -21 -44 -16 -17 7 13 11 27 17
30 13 3 -3 -3 -12 -13 -20z m-649 -496 c-9 -62 -20 -88 -39 -88 -6 0 -7 20 -3
53 10 67 21 97 38 97 11 0 12 -12 4 -62z m1893 -5 c0 -7 -2 -13 -5 -13 -6 0
-35 56 -35 67 1 13 40 -41 40 -54z m-4975 -13 c3 -5 1 -10 -4 -10 -6 0 -11 5
-11 10 0 6 2 10 4 10 3 0 8 -4 11 -10z m2907 -107 c-14 -97 -26 -124 -65 -145
-18 -9 -19 -6 -12 54 7 59 13 117 14 145 1 13 47 42 67 43 7 0 6 -30 -4 -97z
m-87 -35 c-4 -46 -9 -96 -10 -111 -2 -28 -58 -97 -70 -85 -4 4 10 111 28 215
1 6 -2 13 -8 14 -11 3 -33 -127 -34 -201 -1 -45 -2 -45 -177 -214 -96 -93
-178 -166 -181 -162 -3 3 3 56 13 118 17 103 19 109 24 68 5 -44 6 -44 19 35
27 158 27 172 -5 140 -17 -17 -64 -264 -64 -337 0 -53 4 -47 -103 -145 -32
-29 -61 -53 -65 -53 -11 0 16 244 45 400 3 19 13 41 22 48 71 57 544 352 564
352 6 0 7 -31 2 -82z m2165 42 c0 -5 -5 -10 -11 -10 -5 0 -7 5 -4 10 3 6 8 10
11 10 2 0 4 -4 4 -10z m-90 -76 c0 -8 -4 -12 -10 -9 -5 3 -10 13 -10 21 0 8 5
12 10 9 6 -3 10 -13 10 -21z m-4624 -52 c-12 -12 -18 8 -10 35 l8 28 4 -28 c2
-16 1 -31 -2 -35z m-361 9 c-3 -6 -11 -11 -16 -11 -5 0 -4 6 3 14 14 16 24 13
13 -3z m419 -20 c11 -12 15 -27 11 -40 -3 -10 -1 -49 6 -85 9 -53 8 -94 -6
-212 -16 -145 -27 -196 -37 -178 -6 10 8 190 17 212 9 24 -7 151 -19 149 -12
-2 -21 112 -11 150 7 28 17 29 39 4z m-75 -187 c-6 -8 -16 -14 -22 -14 -7 0
-7 4 1 12 7 7 12 42 12 88 0 42 3 80 8 84 12 13 14 -154 1 -170z m147 100 c22
-23 26 -47 39 -239 3 -44 8 -113 11 -152 4 -48 3 -73 -4 -73 -11 0 -21 61 -27
175 -2 39 -11 88 -19 110 -19 49 -19 41 -5 -115 12 -136 33 -214 56 -206 8 3
13 -2 13 -13 0 -33 11 -51 31 -51 10 0 19 7 19 15 0 8 -6 15 -14 15 -18 0 -24
33 -41 246 -17 212 -18 234 -6 215 5 -7 13 -11 19 -7 21 13 30 -24 37 -159 3
-77 13 -177 21 -223 8 -46 12 -87 9 -92 -3 -5 13 -23 35 -41 23 -18 38 -39 36
-46 -3 -7 1 -13 9 -13 18 0 18 -1 0 85 -19 89 -32 365 -18 365 17 0 38 -60 24
-69 -9 -6 -9 -45 -1 -167 11 -170 28 -232 63 -226 10 2 17 -3 17 -14 0 -10 3
-14 7 -10 4 4 7 26 6 49 -1 23 1 33 3 22 25 -96 23 -94 52 -93 15 0 40 -5 55
-11 16 -6 33 -9 37 -6 12 8 43 -41 35 -55 -12 -19 -38 -12 -32 9 5 21 -10 31
-49 31 -19 0 -24 -5 -24 -24 0 -22 -75 -126 -91 -126 -4 0 -26 -16 -49 -35
-40 -33 -70 -45 -70 -27 0 4 -17 6 -37 4 -34 -4 -35 -6 -18 -18 14 -11 15 -14
4 -14 -8 0 -22 9 -31 19 -9 10 -42 27 -74 36 -32 9 -72 24 -88 32 -19 10 -31
11 -35 4 -5 -7 -27 -4 -70 9 -34 11 -71 20 -82 20 -10 0 -19 5 -19 10 0 6 28
10 65 10 40 0 65 4 65 11 0 17 -43 48 -67 49 -25 0 -30 19 -11 38 7 7 12 59
14 141 2 104 6 136 20 160 14 23 16 37 9 57 -16 43 6 249 28 271 16 16 17 15
17 -34 0 -61 -19 -251 -27 -273 -8 -19 -14 -169 -7 -153 3 7 12 9 20 6 10 -3
14 2 14 18 0 40 12 69 26 69 8 0 14 -10 14 -22 l1 -23 20 24 c11 13 17 31 14
39 -3 8 0 91 7 183 10 140 14 166 26 157 11 -10 12 -5 7 28 -10 59 -15 74 -26
74 -5 0 -9 19 -8 43 0 37 2 40 12 23 7 -11 22 -30 33 -42z m-176 -26 c0 -64
-7 -67 -30 -10 -11 29 -10 35 5 52 10 11 20 20 22 20 1 0 3 -28 3 -62z m-570
42 c0 -5 -5 -10 -11 -10 -5 0 -7 5 -4 10 3 6 8 10 11 10 2 0 4 -4 4 -10z m350
-22 c0 -12 -10 -9 -26 6 -20 21 -17 28 6 14 11 -7 20 -16 20 -20z m2315 -12
c-49 -40 -86 -60 -79 -43 4 12 89 66 104 67 3 0 -8 -11 -25 -24z m-2330 -17
c11 -16 1 -19 -13 -3 -7 8 -8 14 -3 14 5 0 13 -5 16 -11z m655 -97 c0 -8 -85
71 -89 82 -2 6 17 -9 43 -34 25 -24 46 -46 46 -48z m1561 -49 c-19 -110 -31
-200 -37 -288 -6 -78 -10 -92 -33 -113 -14 -13 -27 -19 -29 -13 -8 23 70 447
85 464 23 25 26 16 14 -50z m-1651 30 c7 -16 19 -106 25 -204 7 -97 16 -192
20 -210 l7 -34 -21 20 c-28 27 -50 149 -58 323 -6 134 0 160 27 105z m1575 17
c-3 -5 -11 -10 -16 -10 -6 0 -7 5 -4 10 3 6 11 10 16 10 6 0 7 -4 4 -10z m-4
-216 c-16 -99 -32 -200 -36 -226 -4 -35 -12 -51 -31 -63 -14 -9 -27 -15 -29
-13 -3 3 15 185 35 348 10 80 13 87 48 117 20 18 38 29 40 24 2 -5 -11 -89
-27 -187z m-1917 94 c-3 -51 -8 -95 -10 -97 -6 -7 -35 22 -50 51 -14 27 -13
31 21 83 19 30 37 55 41 55 3 0 2 -42 -2 -92z m-514 -18 c0 -5 -2 -10 -4 -10
-3 0 -8 5 -11 10 -3 6 -1 10 4 10 6 0 11 -4 11 -10z m40 0 c0 -5 -2 -10 -4
-10 -3 0 -8 5 -11 10 -3 6 -1 10 4 10 6 0 11 -4 11 -10z m-91 -51 c-12 -8 -12
-10 0 -18 12 -8 12 -12 -2 -26 -16 -15 -18 -15 -34 1 -16 16 -16 16 5 10 24
-8 29 3 10 22 -9 9 -9 12 1 12 8 0 10 7 5 22 -6 21 -6 21 11 4 15 -15 16 -19
4 -27z m638 4 c-3 -10 -5 -4 -5 12 0 17 2 24 5 18 2 -7 2 -21 0 -30z m533 -8
c0 -32 -14 -32 -28 0 -17 38 -15 47 8 35 12 -6 20 -21 20 -35z m50 35 c8 -5
11 -10 5 -10 -5 0 -17 5 -25 10 -8 5 -10 10 -5 10 6 0 17 -5 25 -10z m-193
-32 c15 -28 18 -56 18 -173 0 -148 -11 -185 -32 -102 -14 59 -22 307 -9 307 2
0 13 -15 23 -32z m-937 12 c0 -5 -2 -10 -4 -10 -3 0 -8 5 -11 10 -3 6 -1 10 4
10 6 0 11 -4 11 -10z m1140 -72 c0 -27 -4 -48 -8 -48 -13 0 -42 57 -42 82 0
33 8 39 31 25 14 -9 19 -24 19 -59z m58 -71 c1 -64 -1 -117 -6 -117 -13 0 -42
92 -42 135 0 51 10 86 21 79 5 -3 6 3 2 12 -4 12 -2 15 8 12 11 -4 15 -32 17
-121z m-1994 102 c20 17 21 5 2 -15 -10 -10 -17 -11 -21 -3 -4 6 -14 8 -22 4
-13 -5 -14 -3 -3 10 10 12 15 13 21 4 6 -10 11 -10 23 0z m331 1 c8 7 15 9 15
6 0 -4 -7 -14 -15 -22 -13 -14 -17 -14 -30 0 -8 8 -15 18 -15 22 0 3 7 1 15
-6 12 -10 18 -10 30 0z m275 -22 c0 -5 -7 -3 -15 6 -8 8 -15 18 -15 22 0 3 7
1 15 -6 8 -7 15 -17 15 -22z m46 -6 c-6 -5 -36 23 -36 34 0 4 9 -1 20 -11 11
-10 18 -20 16 -23z m1397 32 c13 -5 16 -31 16 -157 0 -84 3 -171 7 -194 8 -57
-7 -55 -34 5 -24 54 -33 151 -25 270 6 82 8 87 36 76z m-1305 -18 c-7 -8 -15
-12 -17 -11 -5 6 10 25 20 25 5 0 4 -6 -3 -14z m592 -23 c-11 -17 -11 -17 -6
0 3 10 6 24 7 30 0 9 2 9 5 0 3 -7 0 -20 -6 -30z m-283 -10 c-13 -21 -98 -149
-188 -285 -90 -136 -173 -261 -184 -279 -27 -45 -41 -46 -65 -7 -28 46 -25 77
11 118 42 48 227 255 267 299 18 20 63 71 100 113 73 84 96 100 59 41z m-337
7 c0 -5 -5 -10 -11 -10 -5 0 -7 5 -4 10 3 6 8 10 11 10 2 0 4 -4 4 -10z m-70
-15 c7 -8 9 -15 6 -15 -4 0 -14 7 -22 15 -9 8 -11 15 -6 15 5 0 15 -7 22 -15z
m1127 -107 c-2 -24 -4 -5 -4 42 0 47 2 66 4 43 2 -24 2 -62 0 -85z m1019 78
c-3 -11 -14 -100 -23 -196 -9 -96 -17 -176 -17 -176 -1 -1 -11 -5 -23 -8 -22
-7 -23 -5 -23 56 0 70 17 278 26 320 5 26 27 39 52 30 8 -3 11 -13 8 -26z
m-81 -43 c-4 -38 -10 -131 -14 -208 l-6 -140 -38 -6 c-21 -3 -40 -2 -44 4 -12
20 17 382 34 410 2 4 20 7 40 7 l36 0 -8 -67z m-886 -23 c15 -47 17 -158 4
-171 -17 -17 -20 -2 -28 116 -7 111 0 128 24 55z m-502 -22 c-3 -7 -5 -2 -5
12 0 14 2 19 5 13 2 -7 2 -19 0 -25z m-97 -85 c1 -192 1 -194 -29 -186 -18 5
-19 12 -14 96 8 151 42 220 43 90z m-645 37 c-10 -11 -20 -18 -23 -16 -5 6 21
35 32 36 5 0 1 -9 -9 -20z m539 -60 c-15 -33 -24 -63 -20 -67 3 -3 6 -1 6 5 0
7 5 12 10 12 6 0 10 -19 10 -42 0 -24 7 -49 16 -59 15 -16 13 -18 -28 -24 -84
-12 -123 -12 -141 0 -15 11 -8 23 75 134 51 67 94 118 96 112 2 -6 -9 -38 -24
-71z m-788 45 c9 -8 11 -15 6 -15 -5 0 -15 7 -22 15 -7 8 -9 15 -6 15 4 0 14
-7 22 -15z m274 0 c-7 -8 -17 -15 -22 -15 -11 0 14 29 26 30 5 0 3 -7 -4 -15z
m1285 -35 c14 -27 25 -53 25 -58 0 -4 -16 -6 -35 -4 -26 3 -35 9 -35 23 0 10
4 21 10 24 5 3 7 19 3 35 -8 44 3 37 32 -20z m-1478 -5 c8 -9 13 -18 11 -21
-3 -2 -13 5 -23 16 -21 23 -11 27 12 5z m148 -5 c-10 -11 -20 -18 -23 -16 -5
6 21 35 32 36 5 0 1 -9 -9 -20z m596 -13 c-8 -8 -11 -7 -11 4 0 20 13 34 18
19 3 -7 -1 -17 -7 -23z m-931 9 c0 -3 -4 -8 -10 -11 -5 -3 -10 -1 -10 4 0 6 5
11 10 11 6 0 10 -2 10 -4z m123 -8 c3 -10 8 -9 23 2 18 14 18 14 5 -3 -12 -15
-11 -20 10 -38 19 -17 21 -22 9 -29 -8 -5 -11 -12 -7 -16 4 -4 12 -3 19 4 8 8
14 7 24 -3 19 -19 18 -31 -1 -15 -9 7 -19 10 -22 6 -4 -4 -1 -11 6 -16 12 -7
11 -11 -3 -26 -15 -14 -19 -15 -26 -3 -7 11 -13 9 -29 -10 -18 -20 -22 -21
-35 -8 -10 10 -12 17 -4 25 7 7 2 18 -16 37 -34 34 -48 24 -16 -10 13 -14 20
-25 15 -25 -4 0 -16 10 -27 22 -15 18 -21 20 -28 9 -7 -12 -11 -11 -26 3 -14
15 -15 19 -3 26 7 5 10 12 6 16 -3 4 -13 1 -22 -6 -24 -20 -17 -1 10 25 26 27
45 34 25 10 -7 -9 -10 -19 -6 -22 4 -4 11 -1 16 7 6 8 10 11 10 6 0 -5 -7 -18
-17 -28 -9 -10 -13 -21 -10 -24 3 -4 28 16 54 44 51 54 59 59 66 40z m-843
-12 c0 -3 -4 -8 -10 -11 -5 -3 -10 -1 -10 4 0 6 5 11 10 11 6 0 10 -2 10 -4z
m340 -28 c0 -5 -7 -3 -15 6 -8 8 -15 18 -15 22 0 3 7 1 15 -6 8 -7 15 -17 15
-22z m120 12 c19 -27 33 -25 24 2 -6 21 -6 21 11 5 16 -17 16 -19 -6 -38 -19
-16 -21 -22 -10 -29 11 -6 8 -13 -12 -34 -33 -33 -48 -34 -17 -1 13 14 20 28
16 32 -4 4 -11 1 -16 -6 -7 -12 -11 -11 -25 3 -16 16 -16 18 1 31 14 10 21 10
26 2 4 -6 11 -8 15 -3 4 4 -2 16 -14 26 -24 19 -29 30 -15 30 4 0 14 -9 22
-20z m440 10 c0 -5 -2 -10 -4 -10 -3 0 -8 5 -11 10 -3 6 -1 10 4 10 6 0 11 -4
11 -10z m-840 -14 c0 -3 -4 -8 -10 -11 -5 -3 -10 -1 -10 4 0 6 5 11 10 11 6 0
10 -2 10 -4z m40 -6 c0 -5 -2 -10 -4 -10 -3 0 -8 5 -11 10 -3 6 -1 10 4 10 6
0 11 -4 11 -10z m-330 -40 c0 -5 -5 -10 -11 -10 -5 0 -7 5 -4 10 3 6 8 10 11
10 2 0 4 -4 4 -10z m330 4 c0 -3 -7 -12 -15 -20 -16 -17 -18 -14 -9 10 6 15
24 23 24 10z m60 -30 c0 -3 -7 -1 -15 6 -8 7 -15 17 -15 22 0 5 7 3 15 -6 8
-8 15 -18 15 -22z m245 6 c3 -5 1 -10 -4 -10 -6 0 -11 5 -11 10 0 6 2 10 4 10
3 0 8 -4 11 -10z m-760 -20 c3 -5 1 -10 -4 -10 -6 0 -11 5 -11 10 0 6 2 10 4
10 3 0 8 -4 11 -10z m40 0 c3 -5 1 -10 -4 -10 -6 0 -11 5 -11 10 0 6 2 10 4
10 3 0 8 -4 11 -10z m45 0 c0 -5 -5 -10 -11 -10 -5 0 -7 5 -4 10 3 6 8 10 11
10 2 0 4 -4 4 -10z m266 -28 c-6 -5 -36 23 -36 34 0 4 9 -1 20 -11 11 -10 18
-20 16 -23z m104 28 c0 -5 -5 -10 -11 -10 -5 0 -7 5 -4 10 3 6 8 10 11 10 2 0
4 -4 4 -10z m245 0 c3 -5 1 -10 -4 -10 -6 0 -11 5 -11 10 0 6 2 10 4 10 3 0 8
-4 11 -10z m131 -34 c-19 -20 -39 -36 -43 -36 -4 0 10 18 32 40 21 22 41 38
43 35 2 -2 -12 -20 -32 -39z m304 9 c13 -14 20 -25 16 -25 -4 0 -18 11 -32 25
-14 14 -21 25 -16 25 5 0 19 -11 32 -25z m-250 5 c0 -5 -5 -10 -11 -10 -5 0
-7 5 -4 10 3 6 8 10 11 10 2 0 4 -4 4 -10z m206 -48 c-6 -5 -56 44 -56 54 0 4
13 -5 30 -21 16 -16 28 -30 26 -33z m-1 48 c3 -5 1 -10 -4 -10 -6 0 -11 5 -11
10 0 6 2 10 4 10 3 0 8 -4 11 -10z m-399 -51 c28 -27 31 -34 19 -45 -18 -19
-31 -18 -15 1 10 12 7 20 -20 45 -18 16 -28 30 -24 30 4 0 23 -14 40 -31z
m150 6 c-14 -14 -28 -25 -32 -25 -4 0 3 11 16 25 13 14 27 25 32 25 5 0 -2
-11 -16 -25z m-366 5 c0 -5 -5 -10 -11 -10 -5 0 -7 5 -4 10 3 6 8 10 11 10 2
0 4 -4 4 -10z m245 0 c3 -5 1 -10 -4 -10 -6 0 -11 5 -11 10 0 6 2 10 4 10 3 0
8 -4 11 -10z m-355 -15 c7 -8 9 -15 6 -15 -4 0 -14 7 -22 15 -9 8 -11 15 -6
15 5 0 15 -7 22 -15z m895 -55 c-38 -38 -71 -68 -73 -66 -5 6 121 135 133 135
5 1 -22 -30 -60 -69z m-190 50 c3 -5 1 -10 -4 -10 -6 0 -11 5 -11 10 0 6 2 10
4 10 3 0 8 -4 11 -10z m80 0 c3 -5 1 -10 -4 -10 -6 0 -11 5 -11 10 0 6 2 10 4
10 3 0 8 -4 11 -10z m-805 -15 c7 -8 9 -15 6 -15 -4 0 -14 7 -22 15 -9 8 -11
15 -6 15 5 0 15 -7 22 -15z m-35 -5 c3 -5 1 -10 -4 -10 -6 0 -11 5 -11 10 0 6
2 10 4 10 3 0 8 -4 11 -10z m720 -20 c3 -5 1 -10 -4 -10 -6 0 -11 5 -11 10 0
6 2 10 4 10 3 0 8 -4 11 -10z m-158 -96 c27 -28 33 -38 22 -44 -11 -7 -9 -13
9 -28 24 -21 31 -42 7 -22 -27 22 -28 2 -2 -24 31 -31 41 -33 32 -7 -3 10 1
24 10 31 9 7 15 8 15 2 0 -6 -6 -13 -12 -15 -10 -4 -10 -8 1 -15 12 -8 6 -18
-29 -52 -23 -22 -40 -44 -36 -47 3 -4 22 9 41 27 19 19 35 30 35 26 0 -4 -14
-21 -31 -37 -28 -26 -29 -30 -15 -45 12 -12 20 -13 30 -5 9 8 18 4 35 -15 12
-14 20 -29 16 -32 -4 -4 -15 4 -26 17 -11 13 -22 21 -26 17 -4 -3 8 -22 27
-41 28 -29 31 -37 20 -50 -16 -19 -88 -19 -114 0 -11 8 -17 18 -13 22 4 3 16
-2 27 -12 18 -17 21 -17 45 -1 14 9 25 20 25 24 -1 14 -51 64 -58 57 -4 -4 3
-15 16 -25 12 -10 22 -24 22 -31 0 -7 -16 5 -36 26 -29 32 -37 36 -45 24 -8
-11 -12 -11 -16 -1 -2 6 -9 12 -14 12 -16 0 -10 -22 12 -41 20 -17 20 -19 4
-35 -14 -14 -18 -15 -25 -3 -5 7 -12 10 -17 6 -11 -11 19 -28 39 -21 9 2 19 0
23 -6 12 -20 -49 -10 -72 12 -13 12 -26 18 -30 15 -3 -4 2 -14 13 -22 16 -12
17 -14 2 -15 -9 0 -19 6 -21 13 -4 9 -8 8 -16 -3 -10 -13 -12 -13 -20 -1 -8
12 -12 13 -25 1 -31 -25 -26 -3 5 24 24 22 33 25 40 15 4 -7 11 -10 15 -6 4 4
0 15 -9 24 -15 16 -19 14 -59 -25 -23 -23 -44 -39 -47 -35 -3 3 0 8 7 10 17 6
15 23 -2 23 -8 0 -22 -10 -31 -22 l-17 -23 7 23 c7 23 -10 32 -18 10 -3 -9 -9
-7 -19 6 -13 17 -13 21 0 37 9 10 18 16 20 14 3 -3 -1 -11 -7 -19 -8 -9 -8
-16 -2 -20 5 -4 13 -1 17 5 5 8 9 7 14 -2 7 -10 12 -10 25 1 13 11 18 11 24 1
6 -10 15 -6 35 14 21 21 25 30 15 41 -6 8 -7 14 -2 14 5 0 25 -18 44 -40 19
-22 37 -40 42 -40 15 0 6 18 -24 50 -26 27 -28 31 -10 25 25 -8 27 1 5 22 -13
14 -17 14 -25 2 -8 -12 -10 -12 -19 1 -9 13 -11 13 -20 0 -9 -13 -11 -13 -19
0 -6 8 -13 11 -17 7 -4 -4 3 -18 15 -31 19 -21 20 -24 6 -36 -8 -7 -18 -10
-22 -6 -3 3 -1 6 5 6 19 0 14 21 -10 42 -19 16 -20 21 -8 29 11 8 12 12 3 16
-7 2 -13 9 -13 15 0 6 6 5 15 -2 9 -7 19 -10 22 -6 4 4 1 11 -7 17 -13 8 -13
10 0 18 12 8 10 13 -10 31 -21 18 -22 23 -10 31 11 8 12 12 3 16 -7 2 -13 10
-13 16 0 6 11 0 25 -13 14 -13 28 -20 32 -15 5 4 2 10 -4 12 -7 3 -13 9 -13
15 0 6 6 5 15 -2 25 -21 30 -2 6 19 l-23 20 26 26 c27 27 46 35 26 10 -7 -9
-10 -19 -6 -22 4 -4 11 -1 17 7 8 13 10 13 19 0 9 -13 11 -13 20 0 9 13 11 13
20 0 9 -13 11 -13 20 0 9 13 11 13 19 0 6 -8 13 -11 17 -7 4 4 -3 18 -16 32
-36 39 -14 29 27 -11z m-877 1 c-7 -9 -10 -19 -6 -22 4 -4 12 -1 17 7 9 13 10
13 7 0 -3 -8 -18 -15 -35 -16 l-31 -2 21 24 c24 25 47 33 27 9z m517 -11 c21
-21 23 -28 12 -36 -11 -7 -11 -11 -1 -15 6 -2 12 -9 12 -15 0 -6 -6 -5 -15 2
-9 7 -13 21 -10 30 6 18 -21 48 -32 36 -4 -4 -1 -11 7 -16 8 -6 10 -10 5 -10
-21 0 -34 22 -22 36 16 17 14 18 44 -12z m133 1 c-7 -9 -15 -13 -17 -11 -6 6
20 36 26 30 2 -2 -2 -10 -9 -19z m35 -5 c-16 -16 -30 -28 -33 -26 -5 6 41 55
52 55 6 1 -3 -12 -19 -29z m232 15 c8 -9 13 -18 11 -21 -3 -2 -13 5 -23 16
-21 23 -11 27 12 5z m59 -10 c-9 -9 -16 -13 -16 -8 0 12 22 34 28 28 2 -2 -3
-11 -12 -20z m-860 -9 c18 -19 18 -32 0 -17 -7 6 -22 8 -32 4 -16 -6 -17 -5
-4 10 18 20 18 20 36 3z m208 2 c5 -10 7 -10 12 0 3 6 10 12 16 12 6 0 3 -9
-7 -20 -15 -16 -19 -17 -31 -5 -8 7 -14 16 -14 19 0 11 18 6 24 -6z m60 -9
c-16 -18 -30 -79 -17 -79 3 0 18 14 35 32 23 25 31 29 38 18 5 -8 12 -11 16
-7 13 13 -18 38 -39 31 -20 -6 -20 -6 -4 10 16 16 19 15 53 -20 28 -28 34 -38
23 -45 -7 -4 -10 -11 -6 -15 4 -4 12 -3 18 3 8 8 18 5 35 -12 26 -26 33 -45 9
-25 -12 10 -18 9 -31 -4 -20 -20 -11 -34 11 -16 24 20 18 0 -7 -21 -11 -11
-18 -22 -15 -26 4 -3 18 4 32 17 14 13 25 20 25 15 0 -4 -10 -16 -22 -26 -24
-21 -17 -39 7 -19 9 7 15 8 15 2 0 -6 -6 -12 -12 -15 -7 -2 -10 -8 -5 -12 4
-5 13 -3 19 3 8 8 14 7 23 -5 10 -14 10 -20 -2 -32 -13 -12 -16 -12 -25 0 -7
11 -11 11 -15 2 -2 -7 -9 -13 -15 -13 -6 0 -6 6 2 15 9 11 7 19 -15 41 l-26
26 -18 -21 c-21 -24 -40 -29 -21 -6 21 25 2 30 -19 6 l-20 -23 -37 37 c-29 29
-34 39 -23 46 12 8 12 11 -1 19 -13 9 -13 11 0 19 8 6 11 13 7 17 -13 13 -38
-18 -31 -39 6 -20 6 -20 -11 -4 -16 17 -16 19 6 37 24 22 19 41 -6 20 -30 -25
-14 2 28 45 42 43 78 64 41 24z m586 -35 c0 -3 -7 -1 -15 6 -8 7 -15 17 -15
22 0 5 7 3 15 -6 8 -8 15 -18 15 -22z m-1170 -60 c0 -3 -7 -1 -16 7 -11 9 -18
9 -22 2 -5 -8 -12 -7 -25 2 -12 9 -14 15 -7 20 6 4 8 16 4 27 -5 16 3 12 30
-15 20 -20 36 -39 36 -43z m190 72 c0 -3 -4 -8 -10 -11 -5 -3 -10 -1 -10 4 0
6 5 11 10 11 6 0 10 -2 10 -4z m147 -32 c24 -25 30 -34 17 -30 -13 4 -24 -1
-34 -14 -14 -19 -14 -19 -37 2 -13 12 -26 18 -30 13 -5 -4 -2 -10 5 -12 6 -3
12 -9 12 -15 0 -6 -6 -6 -15 2 -11 10 -18 10 -29 1 -11 -9 -15 -9 -19 1 -2 7
-8 9 -13 5 -4 -4 9 -24 29 -45 l37 -36 45 44 c25 24 45 41 45 37 0 -4 -20 -28
-45 -53 l-45 -45 -46 47 c-35 35 -43 48 -33 55 11 6 9 12 -9 27 -25 22 -31 42
-6 21 13 -10 17 -10 25 2 8 11 9 9 4 -7 -8 -31 19 -51 41 -30 14 14 14 19 2
34 -12 15 -11 16 5 3 16 -13 20 -13 27 -1 5 8 12 11 17 7 4 -5 1 -12 -7 -17
-8 -5 -11 -12 -7 -16 4 -4 15 0 24 9 13 13 14 19 3 31 -24 30 1 16 37 -20z
m263 32 c0 -3 -4 -8 -10 -11 -5 -3 -10 -1 -10 4 0 6 5 11 10 11 6 0 10 -2 10
-4z m-164 -41 c-9 -9 -16 -13 -16 -8 0 12 22 34 28 28 2 -2 -3 -11 -12 -20z
m364 -11 c0 -3 -7 -1 -15 6 -8 7 -15 17 -15 22 0 5 7 3 15 -6 8 -8 15 -18 15
-22z m-344 -9 c-9 -9 -16 -13 -16 -8 0 12 22 34 28 28 2 -2 -3 -11 -12 -20z
m778 -7 c-3 -5 -12 -2 -20 6 -20 21 -17 28 5 14 11 -7 17 -16 15 -20z m-444
-29 c-13 -8 -13 -10 -1 -18 12 -8 12 -11 -1 -25 -14 -14 -15 -12 -14 12 2 31
15 56 24 47 4 -3 0 -10 -8 -16z m70 -11 c0 -5 -7 -3 -15 6 -8 8 -15 18 -15 22
0 3 7 1 15 -6 8 -7 15 -17 15 -22z m340 7 c-10 -12 -10 -15 3 -15 8 0 17 3 20
8 2 4 2 1 0 -7 -2 -8 10 -29 27 -46 27 -28 29 -33 15 -45 -13 -11 -18 -9 -35
10 -16 19 -22 21 -35 10 -10 -9 -15 -9 -15 -1 0 6 5 11 12 11 9 0 9 3 0 12 -9
9 -16 6 -32 -12 -11 -13 -20 -19 -20 -13 0 5 11 20 25 33 14 13 23 30 20 38
-2 7 1 19 8 27 16 18 23 9 7 -10z m-1253 -20 c-23 -22 -33 -18 -12 5 10 11 20
18 23 16 2 -3 -3 -12 -11 -21z m19 -19 c-19 -20 -39 -36 -43 -36 -4 0 10 18
32 40 21 22 41 38 43 35 2 -2 -12 -20 -32 -39z m300 6 c-6 -5 -36 23 -36 34 0
4 9 -1 20 -11 11 -10 18 -20 16 -23z m24 28 c0 -5 -5 -10 -11 -10 -5 0 -7 5
-4 10 3 6 8 10 11 10 2 0 4 -4 4 -10z m36 -45 c-25 -25 -49 -45 -53 -45 -4 0
13 20 37 45 24 25 48 45 52 45 5 0 -12 -20 -36 -45z m-306 25 c0 -5 -5 -10
-11 -10 -5 0 -7 5 -4 10 3 6 8 10 11 10 2 0 4 -4 4 -10z m167 -40 c-12 -10
-19 -21 -15 -25 4 -4 14 0 23 9 9 9 18 16 21 16 9 0 3 -10 -17 -29 -19 -17
-23 -18 -36 -5 -13 13 -12 17 9 35 16 14 19 22 11 25 -7 3 -13 10 -13 16 0 6
9 3 20 -7 19 -17 19 -18 -3 -35z m349 12 c-6 -5 -36 23 -36 34 0 4 9 -1 20
-11 11 -10 18 -20 16 -23z m6 -17 c8 3 21 -1 28 -10 7 -9 8 -15 2 -15 -6 0
-12 6 -15 13 -2 6 -8 9 -12 5 -14 -13 17 -39 38 -32 20 6 20 6 3 -11 -15 -15
-19 -16 -27 -4 -8 12 -10 12 -18 0 -7 -11 -16 -8 -42 18 -36 33 -49 38 -49 19
0 -6 -3 -8 -6 -5 -4 4 -1 13 6 22 10 13 16 11 42 -15 27 -28 48 -38 48 -24 0
3 -13 19 -30 34 -16 15 -30 32 -30 36 0 4 11 -2 23 -15 13 -12 31 -19 39 -16z
m-556 10 c-19 -19 -32 -19 -16 0 7 8 17 15 22 15 5 0 3 -7 -6 -15z m350 -20
c-8 -8 -18 -15 -22 -15 -3 0 -1 7 6 15 7 8 17 15 22 15 5 0 3 -7 -6 -15z m494
0 c-7 -9 -15 -13 -19 -10 -3 3 1 10 9 15 21 14 24 12 10 -5z m-460 -5 c0 -5
-5 -10 -11 -10 -5 0 -7 5 -4 10 3 6 8 10 11 10 2 0 4 -4 4 -10z m-204 -48 c-6
-5 -36 23 -36 34 0 4 9 -1 20 -11 11 -10 18 -20 16 -23z m224 28 c0 -5 -5 -10
-11 -10 -5 0 -7 5 -4 10 3 6 8 10 11 10 2 0 4 -4 4 -10z m845 -28 c-6 -7 -35
18 -35 31 0 5 9 2 20 -8 11 -10 18 -20 15 -23z m-915 13 c7 -8 9 -15 6 -15 -4
0 -14 7 -22 15 -9 8 -11 15 -6 15 5 0 15 -7 22 -15z m40 0 c7 -8 9 -15 6 -15
-4 0 -14 7 -22 15 -9 8 -11 15 -6 15 5 0 15 -7 22 -15z m343 -4 c-13 -12 -16
-12 -24 0 -8 12 -10 12 -18 0 -8 -12 -11 -12 -24 0 -13 13 -9 15 33 15 42 0
46 -2 33 -15z m777 9 c0 -5 -4 -10 -10 -10 -5 0 -10 5 -10 10 0 6 5 10 10 10
6 0 10 -4 10 -10z m-1275 -10 c3 -5 1 -10 -4 -10 -6 0 -11 5 -11 10 0 6 2 10
4 10 3 0 8 -4 11 -10z m219 -23 c7 -6 6 -7 -4 -4 -8 2 -16 12 -17 23 -2 13 -1
15 4 4 3 -8 11 -19 17 -23z m26 17 c0 -8 -5 -12 -10 -9 -6 4 -8 11 -5 16 9 14
15 11 15 -7z m384 -24 c-6 -5 -24 21 -24 34 0 6 6 1 14 -10 8 -10 12 -21 10
-24z m31 30 c3 -5 1 -10 -4 -10 -6 0 -11 5 -11 10 0 6 2 10 4 10 3 0 8 -4 11
-10z m595 -56 c0 -44 -52 -64 -63 -24 -3 11 -1 20 4 20 5 0 9 6 9 13 0 7 6 19
12 25 10 10 15 9 25 -5 7 -9 13 -22 13 -29z m-1063 21 c8 -9 13 -18 11 -21 -3
-2 -13 5 -23 16 -21 23 -11 27 12 5z m357 -25 c26 -27 33 -40 22 -40 -9 0 -16
3 -16 8 0 4 -14 22 -31 40 -16 17 -26 32 -22 32 5 0 26 -18 47 -40z m355 14
c12 -14 21 -27 19 -29 -4 -5 -30 16 -47 38 -21 27 3 20 28 -9z m391 6 c6 -11
8 -20 6 -20 -3 0 -10 9 -16 20 -6 11 -8 20 -6 20 3 0 10 -9 16 -20z m-1313
-26 c14 -14 22 -28 19 -32 -4 -3 -11 0 -17 8 -8 13 -10 13 -18 0 -6 -8 -14
-11 -18 -6 -4 5 -2 11 5 13 22 8 13 25 -9 18 -19 -6 -20 -5 -8 8 18 21 16 21
46 -9z m158 2 c14 -14 21 -27 16 -31 -5 -3 -12 1 -14 7 -4 10 -8 9 -16 -2 -9
-13 -12 -12 -25 5 -8 11 -12 22 -10 25 3 2 9 -2 14 -10 5 -8 12 -11 16 -7 4 3
1 13 -6 22 -20 24 -1 17 25 -9z m45 -1 c13 -14 21 -27 18 -30 -2 -3 -17 9 -33
25 -16 17 -24 30 -19 30 6 0 21 -11 34 -25z m84 14 c25 21 19 3 -7 -23 l-24
-24 0 30 c0 17 3 24 8 17 6 -10 11 -10 23 0z m41 -19 c-16 -17 -33 -30 -38
-30 -12 0 44 58 57 59 6 1 -3 -12 -19 -29z m40 0 c-16 -16 -30 -28 -33 -26 -5
6 41 55 52 55 6 1 -3 -12 -19 -29z m76 8 l19 -21 20 22 19 23 27 -27 c14 -14
23 -29 20 -33 -4 -3 -11 0 -17 8 -8 13 -10 13 -19 0 -9 -13 -11 -13 -21 0 -8
12 -12 12 -16 2 -4 -10 -11 -8 -29 9 -13 12 -27 19 -31 15 -4 -4 -1 -11 7 -16
8 -5 11 -12 7 -17 -5 -4 -12 -1 -17 7 -7 12 -12 12 -22 2 -6 -6 -16 -12 -21
-12 -9 0 42 57 52 59 2 1 12 -9 22 -21z m-556 -18 c10 -11 16 -20 13 -20 -3 0
-13 9 -23 20 -10 11 -16 20 -13 20 3 0 13 -9 23 -20z m1303 8 c20 -20 14 -28
-23 -28 -39 0 -43 6 -17 26 21 17 25 17 40 2z m-1128 -18 c0 -5 -2 -10 -4 -10
-3 0 -8 5 -11 10 -3 6 -1 10 4 10 6 0 11 -4 11 -10z m40 0 c0 -5 -2 -10 -4
-10 -3 0 -8 5 -11 10 -3 6 -1 10 4 10 6 0 11 -4 11 -10z m1195 0 c3 -5 -1 -10
-9 -10 -9 0 -16 5 -16 10 0 6 4 10 9 10 6 0 13 -4 16 -10z"/>
<path d="M4293 7105 c0 -27 2 -38 4 -22 2 15 2 37 0 50 -2 12 -4 0 -4 -28z"/>
<path d="M1507 3243 c-3 -5 -1 -17 4 -28 7 -17 8 -17 8 8 1 27 -4 34 -12 20z"/>
<path d="M4907 1503 c-3 -4 -8 -28 -11 -53 -4 -25 -9 -57 -12 -72 -3 -16 -2
-28 3 -28 5 0 15 34 21 77 11 71 11 96 -1 76z"/>
<path d="M4828 1447 c-5 -10 -8 -42 -7 -70 l1 -52 9 40 c12 48 9 111 -3 82z"/>
<path d="M4709 1398 c-1 -24 -2 -58 -4 -76 -1 -18 1 -35 6 -38 5 -3 9 17 9 44
0 27 3 64 6 81 4 20 3 31 -5 31 -6 0 -11 -18 -12 -42z"/>
<path d="M4486 1274 c-8 -27 -46 -295 -45 -319 1 -45 19 27 33 137 9 62 20
129 26 148 6 20 6 38 1 43 -5 5 -11 1 -15 -9z"/>
<path d="M2580 951 c0 -5 -3 -17 -6 -25 -5 -12 -2 -15 10 -10 18 7 21 29 6 39
-5 3 -10 2 -10 -4z"/>
<path d="M2515 809 c-11 -17 -2 -18 19 -3 17 12 17 14 4 14 -9 0 -20 -5 -23
-11z"/>
<path d="M1452 684 l-23 -24 27 -26 26 -27 25 26 26 25 -26 26 c-14 14 -27 26
-29 25 -2 0 -13 -11 -26 -25z m44 -9 c14 -13 14 -17 -2 -32 -16 -16 -16 -16
-10 5 8 23 -9 32 -17 10 -2 -7 -8 -10 -12 -6 -4 4 -1 14 6 22 17 19 17 19 35
1z"/>
<path d="M1491 604 c-29 -32 -19 -45 13 -15 18 17 25 19 29 9 2 -7 8 -10 12
-6 8 8 -12 39 -24 37 -3 0 -17 -11 -30 -25z"/>
<path d="M1080 640 c0 -5 5 -10 10 -10 6 0 10 5 10 10 0 6 -4 10 -10 10 -5 0
-10 -4 -10 -10z"/>
<path d="M1000 350 c0 -5 5 -10 10 -10 6 0 10 5 10 10 0 6 -4 10 -10 10 -5 0
-10 -4 -10 -10z"/>
<path d="M1029 344 c-10 -13 -10 -17 2 -25 12 -8 12 -10 -1 -18 -8 -6 -11 -13
-8 -17 4 -3 15 1 24 11 14 14 15 18 3 25 -7 5 -10 12 -6 17 5 4 12 1 17 -7 5
-8 12 -11 16 -7 7 7 -13 37 -26 37 -4 0 -13 -7 -21 -16z"/>
<path d="M1080 351 c0 -5 6 -11 13 -14 7 -2 -6 -20 -33 -45 -24 -23 -41 -45
-37 -49 5 -4 12 -1 17 6 7 12 11 11 26 -3 14 -15 15 -19 3 -27 -12 -8 -12 -10
1 -18 8 -6 11 -13 7 -17 -4 -4 -16 3 -27 16 -11 13 -23 20 -27 16 -4 -4 13
-25 37 -48 27 -25 40 -43 33 -45 -7 -3 -13 -8 -13 -11 0 -14 50 -65 57 -59 3
4 -4 18 -16 31 l-23 25 63 60 c34 33 60 64 56 67 -4 4 -16 -3 -27 -15 -18 -21
-21 -22 -35 -7 -15 15 -15 17 0 32 9 9 19 13 23 10 3 -4 0 -11 -8 -16 -8 -5
-11 -12 -7 -16 4 -4 15 0 24 9 16 15 15 18 -7 37 -19 17 -21 23 -11 30 11 6 8
14 -12 36 -15 15 -29 25 -33 21 -4 -4 3 -16 16 -27 13 -11 20 -23 16 -27 -4
-4 -11 -1 -17 7 -8 13 -10 13 -18 0 -6 -8 -13 -11 -18 -7 -4 5 -1 12 7 17 11
7 11 11 1 24 -15 18 -31 21 -31 7z m23 -63 c4 -10 8 -10 15 1 9 12 13 12 27
-3 16 -16 16 -18 -5 -36 l-23 -20 22 -20 23 -19 -26 -26 c-24 -24 -27 -25 -43
-10 -14 14 -14 18 -2 26 12 8 12 10 -1 19 -13 9 -13 11 0 19 12 8 11 13 -9 30
-19 17 -21 22 -9 35 16 19 25 20 31 4z"/>
<path d="M1080 274 c0 -3 7 -12 15 -20 13 -14 17 -14 31 1 9 9 13 19 10 23 -4
3 -12 0 -17 -8 -8 -11 -12 -12 -16 -2 -5 12 -23 17 -23 6z"/>
<path d="M1100 211 c0 -5 6 -12 13 -14 9 -4 8 -8 -3 -16 -8 -5 -11 -13 -8 -17
4 -3 14 1 23 10 15 14 15 18 1 31 -17 17 -26 19 -26 6z"/>
<path d="M1160 350 c0 -5 5 -10 10 -10 6 0 10 5 10 10 0 6 -4 10 -10 10 -5 0
-10 -4 -10 -10z"/>
<path d="M960 274 c0 -4 10 -15 22 -26 19 -16 20 -21 8 -29 -13 -8 -13 -10 0
-19 13 -9 13 -11 0 -19 -8 -6 -11 -13 -7 -18 5 -4 12 -1 18 7 8 13 10 13 18 0
6 -8 13 -11 17 -7 4 4 -3 16 -17 27 -20 18 -21 23 -9 31 13 8 13 10 0 19 -13
9 -13 11 0 19 8 6 11 13 7 18 -5 4 -13 1 -18 -7 -8 -11 -12 -12 -16 -2 -5 12
-23 17 -23 6z"/>
<path d="M1040 230 c0 -5 5 -10 10 -10 6 0 10 5 10 10 0 6 -4 10 -10 10 -5 0
-10 -4 -10 -10z"/>
<path d="M1153 145 c-18 -20 -17 -22 17 -22 34 0 36 3 16 23 -17 17 -18 17
-33 -1z"/>
<path d="M1020 40 c0 -5 5 -10 10 -10 6 0 10 5 10 10 0 6 -4 10 -10 10 -5 0
-10 -4 -10 -10z"/>
<path d="M630 310 c0 -5 5 -10 10 -10 6 0 10 5 10 10 0 6 -4 10 -10 10 -5 0
-10 -4 -10 -10z"/>
<path d="M685 288 c-38 -38 -41 -79 -9 -109 l24 -22 20 24 c17 19 23 21 30 10
7 -12 11 -11 26 3 14 15 15 19 3 26 -11 7 -9 13 10 30 14 11 21 23 17 27 -4 4
-11 1 -16 -6 -7 -12 -11 -11 -26 3 -14 15 -15 19 -3 26 7 5 10 12 6 17 -5 4
-13 1 -18 -7 -8 -11 -12 -12 -16 -2 -7 17 -14 14 -48 -20z m62 -14 c21 -21 23
-28 12 -35 -12 -8 -12 -10 1 -18 8 -6 11 -13 7 -18 -5 -4 -12 -1 -17 7 -7 12
-12 10 -29 -9 -19 -22 -21 -22 -37 -6 -15 14 -15 18 -3 26 12 8 12 10 0 18
-11 7 -9 14 10 34 13 14 25 26 27 26 2 1 15 -11 29 -25z"/>
<path d="M701 264 c-12 -14 -12 -17 0 -25 12 -8 12 -10 -1 -18 -8 -6 -11 -13
-8 -17 4 -3 19 6 33 20 23 23 24 28 11 41 -18 18 -18 18 -35 -1z m29 -14 c0
-5 -4 -10 -10 -10 -5 0 -10 5 -10 10 0 6 5 10 10 10 6 0 10 -4 10 -10z"/>
<path d="M850 130 c0 -5 5 -10 10 -10 6 0 10 5 10 10 0 6 -4 10 -10 10 -5 0
-10 -4 -10 -10z"/>
<path d="M30 290 c0 -5 5 -10 10 -10 6 0 10 5 10 10 0 6 -4 10 -10 10 -5 0
-10 -4 -10 -10z"/>
<path d="M391 284 c-18 -21 -6 -30 14 -11 8 9 15 18 15 21 0 11 -15 5 -29 -10z"/>
<path d="M1280 190 c0 -5 4 -10 8 -10 5 0 18 -9 31 -21 32 -30 38 -16 6 15
-27 27 -45 33 -45 16z"/>
<path d="M770 40 c0 -5 5 -10 10 -10 6 0 10 5 10 10 0 6 -4 10 -10 10 -5 0
-10 -4 -10 -10z"/>
<path d="M7280 9193 c0 -9 70 -133 75 -133 3 0 5 32 5 70 l0 70 -40 0 c-22 0
-40 -3 -40 -7z"/>
<path d="M4756 6723 c-14 -47 -26 -152 -36 -298 -12 -196 -12 -204 -1 -186 5
7 12 70 16 140 4 69 13 177 21 240 13 107 13 147 0 104z"/>
<path d="M4790 6685 c-10 -20 0 -635 10 -635 6 0 10 104 9 278 0 256 -7 382
-19 357z"/>
<path d="M4486 6501 c-4 -7 -5 -15 -2 -18 9 -9 19 4 14 18 -4 11 -6 11 -12 0z"/>
<path d="M1970 5770 c-24 -5 -143 -16 -265 -25 -121 -8 -236 -18 -255 -21 -54
-8 -101 -27 -97 -39 4 -12 75 -20 327 -34 222 -13 396 -34 455 -56 22 -8 52
-14 66 -15 14 0 29 -3 33 -7 4 -5 11 -8 14 -9 4 0 14 -3 22 -6 8 -3 41 -11 73
-18 33 -6 61 -18 64 -26 3 -9 13 -12 23 -9 20 6 70 -13 70 -28 0 -5 11 -6 25
-3 18 5 30 1 42 -15 10 -11 27 -25 38 -31 18 -10 19 -10 6 6 -23 27 -6 28 23
1 32 -29 52 -25 35 8 -11 19 -9 18 19 -5 18 -15 42 -30 54 -33 34 -11 88 -54
88 -71 0 -11 4 -12 19 -4 16 8 23 6 35 -12 9 -12 16 -30 16 -38 0 -9 4 -20 9
-26 5 -5 6 -30 2 -56 -4 -27 -5 -48 -1 -48 4 0 10 27 14 60 8 67 5 75 -72 181
-62 87 -174 221 -180 215 -6 -7 -37 25 -37 37 0 6 -7 11 -15 12 -16 3 -59 30
-123 79 -34 26 -45 29 -130 31 -50 1 -150 5 -222 8 -71 3 -150 2 -175 -3z
m225 -70 c8 -13 -15 -13 -35 0 -12 8 -11 10 7 10 12 0 25 -4 28 -10z m300 -10
c10 -11 14 -20 8 -20 -5 0 -18 9 -28 20 -10 11 -14 20 -8 20 5 0 18 -9 28 -20z
m224 -172 c74 -84 104 -134 40 -66 -30 31 -72 78 -94 104 -54 65 -8 33 54 -38z
m-63 31 c19 -22 19 -22 -3 -10 -13 6 -23 16 -23 21 0 15 5 12 26 -11z m54 -89
c0 -15 -5 -12 -26 11 -19 22 -19 22 4 10 12 -6 22 -16 22 -21z"/>
<path d="M2652 5250 c0 -19 2 -27 5 -17 2 9 2 25 0 35 -3 9 -5 1 -5 -18z"/>
<path d="M2881 5234 c0 -11 3 -14 6 -6 3 7 2 16 -1 19 -3 4 -6 -2 -5 -13z"/>
<path d="M2193 5213 c9 -2 23 -2 30 0 6 3 -1 5 -18 5 -16 0 -22 -2 -12 -5z"/>
<path d="M2388 5213 c6 -2 18 -2 25 0 6 3 1 5 -13 5 -14 0 -19 -2 -12 -5z"/>
<path d="M1920 5189 c-173 -27 -220 -38 -220 -55 0 -16 25 -18 66 -5 28 10
136 20 217 21 21 0 36 4 33 9 -3 5 -29 7 -57 4 -73 -7 -54 13 21 22 33 4 63
11 66 16 3 5 2 8 -3 8 -4 -1 -60 -10 -123 -20z"/>
<path d="M2665 5154 c2 -34 0 -65 -6 -71 -13 -13 -1 -43 17 -43 19 0 18 81 -2
135 l-14 40 5 -61z"/>
<path d="M4604 5176 c-3 -21 -4 -39 -1 -42 2 -3 8 11 11 32 4 20 5 38 2 41 -2
3 -8 -11 -12 -31z"/>
<path d="M2550 5190 c8 -5 20 -10 25 -10 6 0 3 5 -5 10 -8 5 -19 10 -25 10 -5
0 -3 -5 5 -10z"/>
<path d="M4561 5184 c0 -11 3 -14 6 -6 3 7 2 16 -1 19 -3 4 -6 -2 -5 -13z"/>
<path d="M2812 5170 c0 -14 2 -19 5 -12 2 6 2 18 0 25 -3 6 -5 1 -5 -13z"/>
<path d="M2872 5160 c0 -14 2 -19 5 -12 2 6 2 18 0 25 -3 6 -5 1 -5 -13z"/>
<path d="M2940 5159 c0 -7 8 -18 17 -25 10 -7 15 -16 11 -20 -4 -4 -14 -1 -23
6 -13 11 -15 7 -14 -31 1 -31 3 -37 7 -21 l7 22 28 -25 c15 -14 27 -34 27 -44
0 -11 6 -21 14 -24 8 -3 17 -20 21 -38 4 -17 18 -52 30 -78 38 -74 74 -187 81
-253 5 -46 13 -66 30 -81 16 -14 26 -36 30 -69 6 -46 18 -67 32 -54 3 4 0 29
-7 56 -10 37 -10 54 -2 64 9 10 3 35 -22 102 -19 49 -47 132 -62 184 -42 145
-88 237 -146 293 -52 50 -59 54 -59 36z m109 -120 c14 -41 -2 -36 -22 6 -21
43 -21 51 -3 36 8 -7 19 -25 25 -42z m40 -91 c10 -30 9 -31 -4 -14 -8 11 -15
26 -15 33 0 22 8 14 19 -19z"/>
<path d="M4410 5159 c0 -5 5 -7 10 -4 6 3 10 8 10 11 0 2 -4 4 -10 4 -5 0 -10
-5 -10 -11z"/>
<path d="M2598 5128 c-3 -7 -2 -20 2 -28 18 -37 28 -105 18 -118 -8 -9 -14
-10 -22 -2 -5 5 -19 10 -31 10 -12 0 -25 4 -31 10 -9 9 -53 16 -209 34 -50 6
-54 -8 -5 -17 14 -3 -13 -4 -60 -3 -62 1 -84 4 -82 14 2 14 4 14 -208 13 -215
-2 -291 -9 -297 -31 -5 -18 -45 -35 -110 -45 -22 -4 -49 -16 -60 -27 l-18 -21
54 7 c39 5 56 4 62 -5 5 -8 53 -15 139 -20 138 -9 170 -14 183 -33 5 -8 10 -7
16 3 16 24 44 -6 38 -42 -3 -23 1 -30 20 -38 13 -5 26 -9 28 -9 2 0 1 18 -2
40 l-6 40 34 -4 c19 -3 37 -5 42 -5 4 -1 7 -13 8 -28 l1 -28 7 25 c10 38 41
32 56 -10 7 -19 21 -55 32 -80 11 -25 26 -61 32 -81 7 -20 19 -43 29 -51 19
-17 98 -39 116 -33 6 2 26 6 44 9 37 5 56 16 29 16 -9 0 -17 5 -17 10 0 6 13
10 30 10 22 0 28 -4 24 -15 -5 -12 -2 -12 25 1 49 24 39 38 -23 30 -41 -4 -57
-2 -66 9 -7 8 -25 15 -40 15 -19 0 -37 10 -55 31 -28 34 -75 121 -75 140 0 20
110 1 152 -26 40 -27 63 -31 73 -15 24 39 137 -23 255 -140 59 -58 59 -58 56
-112 -2 -29 -2 -42 1 -28 8 51 13 53 33 14 11 -21 20 -49 20 -62 0 -13 4 -20
10 -17 15 9 12 52 -10 130 -11 39 -24 89 -30 112 -5 23 -21 68 -35 99 -14 31
-25 64 -25 73 0 9 -7 25 -15 35 -8 11 -15 28 -15 38 0 10 -11 25 -25 34 -16
10 -35 44 -56 97 -35 93 -35 93 -41 75z m-588 -299 c0 -16 -4 -29 -10 -29 -5
0 -10 16 -10 36 0 21 4 33 10 29 6 -3 10 -19 10 -36z m676 -7 c-6 -5 -36 23
-36 34 0 4 9 -1 20 -11 11 -10 18 -20 16 -23z m-491 18 c3 -5 1 -10 -4 -10 -6
0 -11 5 -11 10 0 6 2 10 4 10 3 0 8 -4 11 -10z m19 -34 c-3 -9 -10 -16 -15
-16 -6 0 -5 9 1 21 13 24 24 20 14 -5z m27 -79 c-8 -8 -11 -5 -11 9 0 27 14
41 18 19 2 -9 -1 -22 -7 -28z m109 -99 c1 -19 -29 -4 -64 31 -27 28 -37 45
-32 57 6 15 14 9 51 -32 24 -27 44 -52 45 -56z m446 17 c14 -34 18 -52 9 -44
-9 9 -35 79 -30 79 3 0 13 -16 21 -35z"/>
<path d="M2796 5018 c-5 -65 -12 -115 -17 -112 -5 3 -9 -2 -9 -10 0 -9 4 -16
9 -16 5 0 11 -8 14 -17 5 -25 20 205 15 242 -2 17 -8 -23 -12 -87z"/>
<path d="M4551 5114 c0 -11 3 -14 6 -6 3 7 2 16 -1 19 -3 4 -6 -2 -5 -13z"/>
<path d="M4493 5085 c0 -22 2 -30 4 -17 2 12 2 30 0 40 -3 9 -5 -1 -4 -23z"/>
<path d="M2862 5075 c0 -16 2 -22 5 -12 2 9 2 23 0 30 -3 6 -5 -1 -5 -18z"/>
<path d="M4737 5090 c-3 -8 -7 -30 -10 -47 -3 -25 0 -33 13 -33 13 0 15 8 12
38 -5 49 -9 60 -15 42z"/>
<path d="M4005 5070 c-3 -6 1 -7 9 -4 18 7 21 14 7 14 -6 0 -13 -4 -16 -10z"/>
<path d="M2832 5028 c-1 -20 -5 -45 -8 -55 -5 -14 -4 -15 5 -7 7 7 11 29 8 55
-3 42 -4 42 -5 7z"/>
<path d="M2772 5030 c0 -14 2 -19 5 -12 2 6 2 18 0 25 -3 6 -5 1 -5 -13z"/>
<path d="M5080 5041 c0 -17 18 -21 24 -6 3 9 0 15 -9 15 -8 0 -15 -4 -15 -9z"/>
<path d="M2198 5033 c7 -3 16 -2 19 1 4 3 -2 6 -13 5 -11 0 -14 -3 -6 -6z"/>
<path d="M2912 4915 c-6 -71 -12 -149 -12 -172 0 -23 -3 -50 -7 -60 -6 -14 -9
-11 -14 17 l-6 35 -2 -37 c0 -21 4 -38 9 -38 6 0 10 -7 10 -15 0 -8 5 -15 10
-15 6 0 10 27 10 61 0 33 5 114 11 179 6 65 9 131 7 146 -2 16 -9 -29 -16
-101z"/>
<path d="M3940 5031 c0 -6 -13 -18 -30 -28 -16 -9 -30 -21 -30 -26 0 -5 7 -4
15 3 12 10 15 10 15 -3 0 -8 -7 -17 -15 -21 -8 -3 -12 -12 -9 -20 3 -9 -8 -24
-33 -40 -33 -23 -36 -31 -11 -27 4 0 5 -6 2 -14 -4 -8 -11 -15 -18 -15 -8 0
-8 -2 0 -8 6 -4 14 -20 18 -37 6 -25 3 -33 -26 -58 -29 -25 -29 -27 -5 -13 49
30 63 2 20 -39 -15 -14 -23 -25 -17 -25 5 0 15 5 22 12 8 8 15 9 22 2 7 -7 4
-19 -10 -36 -24 -31 -26 -46 -5 -28 18 15 30 6 38 -31 5 -19 -1 -33 -24 -58
-16 -18 -27 -36 -24 -39 5 -5 70 65 88 94 6 10 3 12 -8 7 -11 -4 -16 -1 -14 8
1 8 -1 22 -5 31 -9 19 11 61 25 53 5 -4 9 -17 9 -30 0 -13 5 -27 10 -30 17
-10 24 25 10 51 -12 21 -11 27 5 44 17 18 17 20 2 14 -22 -8 -22 14 -2 43 10
14 12 24 5 28 -7 4 -6 13 1 28 7 11 13 28 14 37 4 37 20 78 44 109 24 32 24
34 4 23 -25 -14 -65 -66 -57 -75 3 -3 0 -16 -7 -29 -7 -12 -14 -27 -15 -33 0
-5 -2 -15 -2 -22 -2 -10 -61 -53 -74 -53 -10 0 -5 66 6 80 23 31 36 60 36 80
0 11 7 23 16 27 8 3 13 11 10 19 -3 7 2 18 10 24 16 14 19 30 4 30 -5 0 -10
-4 -10 -9z m0 -240 c0 -16 -51 -71 -61 -65 -16 9 -10 35 14 55 24 20 47 25 47
10z m-24 -95 c-9 -15 -21 -26 -26 -26 -16 0 -12 32 7 52 25 27 40 6 19 -26z"/>
<path d="M2685 5020 c-3 -5 -1 -10 4 -10 6 0 11 5 11 10 0 6 -2 10 -4 10 -3 0
-8 -4 -11 -10z"/>
<path d="M2720 5011 c0 -6 5 -13 10 -16 6 -3 10 1 10 9 0 9 -4 16 -10 16 -5 0
-10 -4 -10 -9z"/>
<path d="M4297 5014 c-4 -4 -7 -17 -7 -28 1 -19 1 -20 11 -3 11 19 8 43 -4 31z"/>
<path d="M4482 4990 c-1 -19 -4 -60 -7 -90 -5 -45 -3 -50 5 -31 6 14 9 54 7
90 -2 37 -4 50 -5 31z"/>
<path d="M4352 4990 c0 -14 2 -19 5 -12 2 6 2 18 0 25 -3 6 -5 1 -5 -13z"/>
<path d="M7344 4997 c-2 -7 0 -24 5 -38 9 -22 10 -21 10 14 1 37 -5 48 -15 24z"/>
<path d="M2846 4877 c-7 -117 -5 -150 9 -135 3 3 4 63 3 134 l-3 129 -9 -128z"/>
<path d="M2952 4970 c0 -14 2 -19 5 -12 2 6 2 18 0 25 -3 6 -5 1 -5 -13z"/>
<path d="M4788 4983 c17 -2 47 -2 65 0 17 2 3 4 -33 4 -36 0 -50 -2 -32 -4z"/>
<path d="M4903 4983 c9 -2 23 -2 30 0 6 3 -1 5 -18 5 -16 0 -22 -2 -12 -5z"/>
<path d="M5470 4950 c20 -13 33 -13 25 0 -3 6 -14 10 -23 10 -15 0 -15 -2 -2
-10z"/>
<path d="M3934 4935 c-10 -8 -14 -15 -8 -15 6 0 17 7 24 15 16 19 9 19 -16 0z"/>
<path d="M4342 4920 c0 -19 2 -27 5 -17 2 9 2 25 0 35 -3 9 -5 1 -5 -18z"/>
<path d="M2823 4895 c0 -27 2 -38 4 -22 2 15 2 37 0 50 -2 12 -4 0 -4 -28z"/>
<path d="M4278 4920 c-4 -14 -8 -36 -7 -50 l0 -25 10 25 c5 13 9 36 7 50 l-3
25 -7 -25z"/>
<path d="M2946 4912 c-3 -5 -7 -69 -10 -143 -3 -74 -3 -127 -1 -119 5 15 22
270 18 270 -1 0 -4 -4 -7 -8z"/>
<path d="M3909 4893 c-13 -16 -12 -17 4 -4 16 13 21 21 13 21 -2 0 -10 -8 -17
-17z"/>
<path d="M2883 4865 c0 -22 2 -30 4 -17 2 12 2 30 0 40 -3 9 -5 -1 -4 -23z"/>
<path d="M4247 4845 c-5 -22 -16 -49 -25 -60 -16 -19 -16 -19 1 -6 15 12 17
11 17 -5 0 -13 3 -15 11 -7 5 5 9 34 7 64 l-3 54 -8 -40z"/>
<path d="M4331 4810 l2 -55 7 45 c4 25 4 49 -1 55 -5 5 -8 -13 -8 -45z"/>
<path d="M1920 4821 c0 -20 13 -35 23 -25 7 8 -4 44 -14 44 -5 0 -9 -9 -9 -19z"/>
<path d="M2822 4820 c0 -14 2 -19 5 -12 2 6 2 18 0 25 -3 6 -5 1 -5 -13z"/>
<path d="M3885 4830 c-3 -5 -1 -10 4 -10 6 0 11 5 11 10 0 6 -2 10 -4 10 -3 0
-8 -4 -11 -10z"/>
<path d="M6091 4794 c0 -11 3 -14 6 -6 3 7 2 16 -1 19 -3 4 -6 -2 -5 -13z"/>
<path d="M3810 4780 c-9 -6 -10 -10 -3 -10 6 0 15 5 18 10 8 12 4 12 -15 0z"/>
<path d="M4260 4739 c0 -5 -4 -7 -10 -4 -6 4 -10 -13 -11 -42 -1 -26 -3 -67
-5 -90 -3 -33 17 -113 29 -113 1 0 2 59 2 130 0 72 -1 130 -2 130 -2 0 -3 -5
-3 -11z"/>
<path d="M4320 4720 c0 -5 5 -10 10 -10 6 0 10 5 10 10 0 6 -4 10 -10 10 -5 0
-10 -4 -10 -10z"/>
<path d="M7338 4662 c-10 -17 -18 -38 -18 -49 0 -13 6 -8 21 16 11 18 19 40
17 48 -2 9 -9 4 -20 -15z"/>
<path d="M4320 4621 c0 -32 4 -50 10 -46 11 7 9 80 -3 91 -4 4 -7 -16 -7 -45z"/>
<path d="M4289 4623 c-5 -48 -4 -71 2 -88 5 -13 8 -1 8 38 1 31 -1 57 -4 57
-3 0 -5 -3 -6 -7z"/>
<path d="M7342 4578 c-9 -24 -18 -35 -27 -32 -9 4 -17 -6 -24 -33 -14 -55 -24
-173 -15 -173 5 0 19 12 32 28 13 15 22 23 19 17 -7 -19 -40 -90 -49 -107 -5
-11 -5 -18 1 -18 6 0 23 21 38 48 15 26 31 49 35 50 4 2 8 36 8 75 l-1 72 -19
-35 c-11 -19 -19 -32 -20 -28 0 11 24 62 33 69 4 3 7 28 5 55 l-3 49 -13 -37z"/>
<path d="M2640 4581 c0 -8 11 -24 25 -37 14 -13 25 -28 25 -34 0 -5 7 -10 15
-10 12 0 13 4 6 18 -15 28 -71 77 -71 63z"/>
<path d="M5342 4547 c-18 -43 -70 -85 -124 -98 -35 -9 -48 -17 -46 -28 7 -36
67 -20 156 41 39 27 82 80 82 101 0 5 -21 -13 -46 -40 -34 -35 -40 -39 -24
-15 12 17 20 40 17 50 -3 13 -6 11 -15 -11z"/>
<path d="M5860 4430 c0 -29 -44 -122 -69 -144 -25 -23 -29 -51 -5 -42 9 3 17
6 19 6 2 0 24 33 49 73 44 70 58 105 36 92 -5 -3 -10 3 -10 14 0 12 -4 21 -10
21 -5 0 -10 -9 -10 -20z"/>
<path d="M1605 4395 c4 -11 11 -32 15 -46 12 -40 29 -68 78 -132 24 -32 42
-60 40 -63 -7 -6 -70 64 -110 124 -20 30 -48 60 -63 68 -25 13 -26 12 -20 -9
6 -22 6 -22 -15 2 -11 13 -22 22 -25 20 -8 -8 49 -185 82 -256 23 -49 41 -74
56 -79 12 -3 30 -13 40 -22 10 -9 27 -17 38 -19 11 -2 32 -10 47 -19 26 -16
25 -15 -3 9 -16 15 -35 26 -42 27 -15 0 -153 168 -153 186 0 21 5 17 35 -27
36 -55 105 -129 119 -129 7 0 8 3 1 8 -40 28 -189 236 -183 254 2 6 28 -23 58
-63 63 -85 178 -209 192 -209 6 0 -22 34 -61 75 -39 41 -71 81 -71 88 1 12
110 -102 110 -115 0 -5 5 -8 11 -8 6 0 9 7 5 15 -4 12 -2 13 13 6 10 -6 23
-17 31 -25 7 -9 16 -16 21 -16 5 0 31 -16 59 -36 27 -20 55 -34 62 -31 7 2 25
-2 39 -9 37 -19 213 -25 195 -7 -4 5 -33 7 -65 5 -48 -3 -70 2 -150 37 -58 25
-119 62 -163 97 -69 56 -90 91 -24 40 19 -14 38 -26 42 -26 4 0 13 -8 20 -17
7 -10 15 -15 19 -11 4 4 -3 15 -16 25 -125 101 -183 161 -225 231 -26 42 -43
68 -39 57z m33 -341 c-4 -3 -12 5 -18 18 -12 22 -12 22 6 6 10 -10 15 -20 12
-24z"/>
<path d="M4275 4370 c-16 -16 -24 -30 -19 -30 6 0 20 14 32 30 13 17 21 30 19
30 -2 0 -16 -13 -32 -30z"/>
<path d="M6982 4317 c-7 -8 -10 -21 -6 -30 3 -8 1 -18 -5 -22 -6 -3 -11 -20
-11 -37 0 -27 2 -29 17 -17 15 13 16 12 10 -9 -4 -17 -2 -22 8 -18 8 3 15 -2
17 -12 2 -12 9 -7 25 18 29 44 29 32 2 -22 -18 -36 -19 -40 -4 -34 14 5 16 2
10 -11 -15 -36 -18 -56 -8 -50 5 3 27 47 48 97 22 49 42 90 46 90 20 0 15 -36
-12 -97 -43 -93 -50 -113 -40 -113 4 0 27 43 51 95 l43 96 -21 37 c-19 33 -26
37 -59 37 -21 0 -41 4 -45 10 -5 6 -13 3 -21 -9 -13 -18 -15 -18 -24 -2 -8 15
-11 15 -21 3z m19 -70 c-13 -13 -15 1 -4 30 7 17 8 17 11 -1 2 -10 -1 -23 -7
-29z m39 -16 c-6 -12 -15 -21 -21 -21 -6 0 -8 4 -5 9 3 4 11 21 17 37 9 22 13
25 16 12 2 -9 -1 -26 -7 -37z"/>
<path d="M4386 4210 c-9 -22 -16 -55 -15 -73 0 -26 3 -21 18 28 9 33 20 66 25
73 4 6 3 12 -2 12 -6 0 -17 -18 -26 -40z"/>
<path d="M5735 4107 c-27 -24 -84 -76 -125 -117 -54 -54 -98 -86 -155 -115
-44 -22 -86 -48 -93 -57 -6 -9 -26 -19 -43 -23 -17 -4 -28 -9 -25 -12 9 -9
100 26 152 60 119 75 164 110 253 195 97 93 123 143 36 69z"/>
<path d="M2819 4107 c-6 -53 2 -157 12 -151 12 7 12 171 0 178 -5 3 -10 -9
-12 -27z"/>
<path d="M2565 4114 c-21 -8 -49 -23 -60 -34 -12 -11 -33 -20 -48 -20 -15 0
-70 -14 -124 -31 -79 -25 -106 -30 -147 -24 -38 5 -48 3 -40 -5 8 -8 49 -11
125 -8 108 3 118 5 184 39 48 25 90 38 134 42 66 7 88 21 69 44 -13 16 -42 15
-93 -3z"/>
<path d="M4173 4070 c0 -36 2 -50 4 -32 2 17 2 47 0 65 -2 17 -4 3 -4 -33z"/>
<path d="M4211 4104 c0 -11 3 -14 6 -6 3 7 2 16 -1 19 -3 4 -6 -2 -5 -13z"/>
<path d="M5772 4069 c-24 -27 -51 -49 -61 -49 -18 0 -189 -156 -180 -164 3 -3
29 16 59 42 35 30 48 38 37 21 -9 -14 -31 -35 -48 -48 -48 -35 -27 -36 35 -1
31 18 56 28 56 23 0 -5 -29 -26 -65 -47 -36 -21 -65 -42 -65 -48 0 -6 11 -3
25 6 63 41 128 77 132 72 3 -3 -33 -30 -81 -61 -47 -30 -86 -57 -86 -60 0 -12
20 -2 85 40 85 56 97 53 15 -4 -99 -70 -68 -62 42 10 32 21 41 36 73 132 21
59 46 124 56 144 10 20 18 38 16 39 -1 1 -21 -20 -45 -47z m-62 -154 c-7 -8
-17 -15 -23 -15 -5 0 -2 9 8 20 21 23 35 19 15 -5z"/>
<path d="M2759 4083 c-1 -15 -1 -42 0 -59 3 -42 -16 -53 -24 -14 -8 36 -9 36
-68 10 -52 -23 -63 -35 -49 -53 5 -7 12 -21 15 -32 3 -14 5 -11 6 10 2 36 7
45 43 68 29 18 32 16 42 -24 5 -24 -1 -32 -49 -70 -51 -41 -65 -59 -47 -59 4
0 24 17 45 37 31 29 41 33 48 22 7 -11 10 -9 15 9 7 23 24 30 24 10 1 -7 7 5
15 26 8 22 11 44 7 50 -3 6 -5 27 -3 47 1 20 -2 40 -8 44 -7 4 -12 -5 -12 -22z"/>
<path d="M4240 4057 c0 -23 4 -36 10 -32 13 8 13 35 0 55 -7 11 -10 5 -10 -23z"/>
<path d="M1900 4076 c0 -5 60 -36 69 -36 3 0 -7 9 -24 20 -29 19 -45 25 -45
16z"/>
<path d="M4202 4055 c0 -16 2 -22 5 -12 2 9 2 23 0 30 -3 6 -5 -1 -5 -18z"/>
<path d="M2004 4025 c22 -17 46 -20 46 -6 0 10 -25 21 -48 21 -15 -1 -14 -3 2
-15z"/>
<path d="M4296 4002 c12 -9 26 -26 32 -37 11 -20 11 -20 12 1 0 23 -29 54 -51
54 -9 0 -7 -6 7 -18z"/>
<path d="M4230 3975 c0 -44 -10 -44 -34 -2 -16 28 -19 30 -25 13 -4 -10 -2
-34 3 -53 7 -20 12 -28 14 -18 7 34 27 6 30 -43 2 -29 7 -52 12 -52 4 0 6 14
4 30 -3 17 -1 30 4 30 12 0 22 -25 22 -55 0 -13 4 -26 9 -29 12 -8 18 41 10
84 -4 19 -7 26 -8 15 -2 -19 -2 -19 -20 2 -14 17 -17 33 -14 68 3 25 3 45 -1
45 -3 0 -6 -16 -6 -35z"/>
<path d="M4496 3975 c15 -20 29 -34 31 -31 6 6 -39 66 -49 66 -5 0 3 -16 18
-35z"/>
<path d="M2363 3981 c-35 -9 -63 -19 -63 -22 0 -14 77 -17 120 -6 51 14 70 24
70 38 0 13 -54 9 -127 -10z"/>
<path d="M4653 3944 c-8 -22 9 -35 131 -98 112 -58 174 -76 123 -36 -69 55
-221 150 -238 150 -5 0 -12 -7 -16 -16z"/>
<path d="M2323 3925 c-18 -13 -77 -14 -147 -2 -5 1 -11 -4 -14 -12 -3 -10 0
-12 12 -8 22 9 66 -2 66 -15 0 -5 -10 -6 -22 -3 -17 5 -19 4 -9 -4 12 -8 12
-12 2 -25 -8 -9 -10 -16 -5 -16 5 0 20 -3 33 -7 20 -5 23 -3 18 10 -5 13 -1
17 18 17 18 0 23 4 19 15 -4 9 0 15 9 15 8 0 22 11 31 25 19 29 18 30 -11 10z
m-53 -25 c0 -5 -4 -10 -10 -10 -5 0 -10 5 -10 10 0 6 5 10 10 10 6 0 10 -4 10
-10z"/>
<path d="M4353 3840 c0 -30 2 -43 4 -27 2 15 2 39 0 55 -2 15 -4 2 -4 -28z"/>
<path d="M5345 3869 c-22 -10 -65 -26 -95 -36 -30 -9 -50 -18 -43 -20 15 -5
127 34 168 59 39 23 21 22 -30 -3z"/>
<path d="M5120 3800 c-24 -8 -24 -8 5 -9 17 0 37 4 45 9 12 8 11 10 -5 9 -11
-1 -31 -5 -45 -9z"/>
<path d="M4824 3765 c11 -8 25 -15 30 -15 6 0 2 7 -8 15 -11 8 -25 15 -30 15
-6 0 -2 -7 8 -15z"/>
<path d="M4975 3770 c3 -5 16 -10 28 -9 21 0 21 1 2 9 -28 12 -37 12 -30 0z"/>
<path d="M5135 3770 l-80 -6 75 -1 c41 0 89 3 105 7 26 7 27 8 5 7 -14 0 -61
-4 -105 -7z"/>
<path d="M5390 3770 c-13 -8 -13 -10 2 -10 9 0 20 5 23 10 8 13 -5 13 -25 0z"/>
<path d="M4885 3750 c-12 -20 17 -42 47 -36 30 6 58 -1 58 -15 0 -5 -7 -9 -16
-9 -8 0 -13 -4 -10 -9 11 -17 61 -20 111 -6 28 7 68 16 89 20 37 6 39 5 25
-11 -12 -15 -12 -16 6 -11 11 4 65 20 120 37 55 17 105 32 110 34 18 8 -129
-3 -190 -14 -144 -25 -186 -24 -256 4 -73 29 -85 31 -94 16z"/>
<path d="M5285 3679 c-84 -19 -140 -37 -115 -38 28 -1 214 45 204 51 -5 3 -45
-3 -89 -13z"/>
<path d="M5145 3675 c-5 -2 -29 -9 -52 -15 -34 -9 -40 -14 -36 -31 4 -12 11
-18 20 -15 8 3 18 6 21 7 4 0 -2 4 -13 8 -17 7 -13 10 25 21 25 8 49 17 55 22
9 8 -1 10 -20 3z"/>
<path d="M5120 3640 c-12 -8 -10 -10 8 -10 13 0 20 4 17 10 -7 12 -6 12 -25 0z"/>
<path d="M5240 3630 c-20 -6 -21 -8 -5 -8 11 0 31 4 45 8 20 6 21 8 5 8 -11 0
-31 -4 -45 -8z"/>
<path d="M5112 3610 c-18 -4 -36 -11 -40 -15 -8 -8 85 4 113 16 17 6 15 8 -10
7 -16 0 -45 -4 -63 -8z"/>
<path d="M5148 3579 c-10 -5 -24 -9 -32 -7 -8 2 -14 -1 -13 -7 2 -10 63 -8 80
2 8 5 0 23 -11 23 -4 0 -15 -5 -24 -11z"/>
<path d="M3030 3341 c0 -6 5 -13 10 -16 6 -3 10 -13 10 -22 0 -13 -3 -13 -15
-3 -8 7 -15 9 -15 5 0 -4 7 -13 15 -19 17 -13 115 -201 115 -220 0 -7 11 -33
24 -58 22 -42 23 -47 8 -61 -14 -15 -14 -17 4 -22 10 -4 25 -10 33 -14 20 -10
69 -161 83 -258 10 -69 15 -83 30 -83 10 0 18 7 18 18 0 23 66 45 91 29 13 -8
21 -8 32 2 14 11 100 130 122 169 22 39 88 112 101 112 8 0 14 7 14 16 0 9 9
18 19 21 11 3 22 15 25 26 6 22 6 22 26 -3 l19 -25 -5 36 c-5 30 -2 39 17 53
20 14 21 16 5 16 -16 0 -18 6 -12 50 4 32 3 50 -4 50 -5 0 -10 -3 -10 -7 0 -5
-22 -8 -48 -9 -52 -1 -192 -32 -192 -43 0 -4 18 -5 40 -3 40 4 41 4 34 -24
-19 -86 -26 -104 -39 -104 -19 0 -19 -16 -1 -23 22 -9 -5 -135 -34 -159 -13
-10 -25 -17 -27 -14 -2 2 3 39 12 82 9 44 20 102 25 129 5 28 12 60 15 73 3
12 1 22 -4 22 -11 0 -33 -93 -57 -242 -14 -86 -22 -112 -41 -129 l-23 -22 0
36 c0 20 11 91 25 159 14 68 28 137 32 153 3 17 10 38 15 48 8 15 6 18 -9 15
-10 -2 -19 -12 -19 -23 -1 -11 -14 -76 -28 -145 -14 -69 -29 -157 -33 -195 -8
-67 -9 -70 -35 -73 -28 -3 -28 -3 -28 59 0 102 21 292 35 322 12 24 12 27 -4
27 -19 0 -28 -53 -48 -280 -7 -75 -8 -80 -13 -40 -6 51 7 242 18 280 5 14 5
36 2 50 -6 23 -6 24 -14 5 -4 -11 -10 -49 -12 -84 -5 -70 -7 -77 -24 -66 -8 5
-11 32 -8 77 2 61 0 71 -17 80 -68 37 -178 160 -224 251 -14 26 -31 36 -31 18z
m178 -231 c22 -33 31 -87 12 -75 -9 6 -60 101 -60 113 0 13 28 -10 48 -38z
m572 -44 c0 -33 -6 -52 -24 -70 -27 -30 -50 -34 -42 -8 2 9 8 36 11 59 6 38
24 62 48 63 4 0 7 -20 7 -44z m-68 29 c6 -6 -7 -77 -19 -105 -3 -8 -5 -26 -5
-40 1 -17 -13 -41 -44 -75 l-45 -50 7 45 c8 53 19 70 48 71 20 2 20 2 -1 6
-20 4 -22 9 -18 54 5 69 13 87 38 92 12 2 25 5 28 6 3 0 8 -1 11 -4z m-427
-97 c4 -31 2 -48 -4 -48 -15 0 -27 29 -35 85 -6 49 -6 49 13 30 10 -11 22 -41
26 -67z m5 -151 c0 -18 -2 -19 -10 -7 -13 20 -13 43 0 35 6 -3 10 -16 10 -28z
m33 -59 c-6 -96 -11 -101 -12 -15 0 42 3 77 7 77 5 0 7 -28 5 -62z"/>
<path d="M3866 3062 c-4 -24 -6 -46 -2 -49 8 -8 18 42 14 68 -3 18 -6 13 -12
-19z"/>
<path d="M3430 3001 c-14 -52 -40 -253 -40 -308 0 -24 5 -43 10 -43 6 0 10 21
10 48 1 41 12 134 36 295 8 57 -1 62 -16 8z"/>
<path d="M2835 2310 c-4 -6 -15 -8 -26 -5 -14 5 -19 2 -19 -12 0 -26 126 -89
145 -73 23 19 71 -25 84 -75 10 -39 14 -43 73 -67 101 -42 127 -48 199 -48 39
0 106 -10 161 -24 116 -31 216 -45 338 -50 88 -3 98 -2 145 24 52 29 191 71
235 71 14 0 56 -6 95 -15 60 -13 72 -13 84 -1 7 7 11 20 9 27 -6 15 -92 45
-171 58 -80 14 -293 58 -382 79 -198 48 -479 84 -747 96 -70 3 -139 10 -153
15 -34 13 -62 13 -70 0z m315 -70 c0 -5 -2 -10 -4 -10 -3 0 -8 5 -11 10 -3 6
-1 10 4 10 6 0 11 -4 11 -10z m39 -32 c0 -33 -2 -38 -9 -23 -12 28 -12 65 0
65 6 0 10 -19 9 -42z m81 22 c0 -5 -7 -10 -16 -10 -26 0 -11 -24 27 -42 61
-30 309 -70 451 -71 l128 -2 -6 -35 c-10 -61 -8 -60 -81 -54 -37 3 -78 11 -91
17 -18 8 -25 7 -35 -6 -10 -15 -23 -16 -91 -11 -65 6 -80 10 -84 26 -5 22 -22
24 -22 2 0 -12 -7 -14 -27 -10 -16 2 -50 8 -78 11 -63 9 -84 20 -79 42 4 13
-4 21 -25 30 -29 11 -31 14 -31 67 0 56 0 56 30 56 17 0 30 -4 30 -10z m685
-147 c-13 -55 -42 -58 -30 -4 4 18 13 31 22 31 12 0 14 -7 8 -27z m-45 -3 c0
-13 -7 -20 -20 -20 -19 0 -27 20 -13 33 13 14 33 6 33 -13z m90 1 c0 -20 -17
-37 -27 -28 -7 8 7 47 18 47 5 0 9 -9 9 -19z m50 0 c0 -12 -28 -22 -34 -12 -3
5 -3 11 1 15 9 9 33 7 33 -3z"/>
<path d="M6092 2158 c-51 -89 -118 -178 -203 -270 -44 -48 -76 -88 -71 -88 13
0 140 137 197 212 52 69 120 187 112 194 -3 3 -19 -19 -35 -48z"/>
<path d="M7300 2145 c0 -25 4 -45 9 -45 5 0 9 20 9 45 1 25 -3 45 -8 45 -6 0
-10 -20 -10 -45z"/>
<path d="M6158 2122 c-18 -31 -272 -290 -357 -365 -29 -27 -51 -51 -47 -54 8
-8 65 45 243 223 121 123 206 224 186 224 -5 0 -16 -13 -25 -28z"/>
<path d="M2940 2085 c0 -10 23 -42 50 -71 28 -29 50 -57 50 -62 0 -5 23 -23
50 -41 28 -18 58 -45 68 -59 27 -43 50 -65 60 -58 6 3 12 -1 16 -9 3 -8 12
-15 21 -15 8 0 15 -7 15 -16 0 -10 6 -14 15 -11 8 4 17 2 20 -3 10 -16 25 -11
23 8 -3 41 3 92 11 92 5 0 8 -34 5 -77 -5 -90 4 -85 14 8 5 50 11 64 25 67 16
3 17 -3 11 -85 -7 -101 7 -106 18 -5 4 37 10 82 13 100 5 25 3 32 -9 32 -9 0
-16 -7 -16 -15 0 -8 -7 -15 -15 -15 -8 0 -15 5 -15 10 0 6 5 10 12 10 9 0 9 3
1 11 -13 13 -33 4 -33 -17 0 -8 -5 -14 -11 -14 -5 0 -9 10 -7 22 2 11 -3 23
-9 25 -10 4 -13 -14 -13 -67 0 -63 -2 -71 -15 -60 -10 9 -15 32 -15 76 0 36
-4 64 -10 64 -5 0 -10 -25 -10 -56 0 -32 -4 -53 -9 -49 -6 3 -9 29 -8 58 l2
52 -47 10 c-25 5 -50 13 -54 18 -4 4 -13 7 -21 7 -7 0 -28 13 -46 30 -116 106
-137 122 -137 105z m198 -174 c3 -8 -1 -12 -9 -9 -7 2 -15 10 -17 17 -3 8 1
12 9 9 7 -2 15 -10 17 -17z m42 -13 c0 -19 -2 -20 -10 -8 -13 19 -13 30 0 30
6 0 10 -10 10 -22z m41 -63 c-3 -5 -8 6 -12 25 -4 19 -4 39 -1 45 8 12 20 -56
13 -70z"/>
<path d="M6070 1887 c-162 -159 -260 -247 -275 -247 -6 0 -24 -13 -40 -30 -16
-16 -24 -30 -18 -30 9 0 57 33 73 50 3 3 32 27 65 55 116 96 354 336 333 335
-2 0 -64 -60 -138 -133z"/>
<path d="M6173 1937 c-12 -17 -27 -51 -34 -74 -9 -32 -33 -63 -98 -127 -82
-81 -134 -126 -144 -126 -3 0 -8 12 -11 26 -9 35 -21 21 -18 -19 3 -26 -3 -39
-30 -62 -18 -17 -35 -30 -38 -30 -7 0 -110 -76 -110 -81 0 -17 40 5 105 57 50
40 81 57 87 51 14 -14 -4 -37 -98 -122 -45 -41 -81 -76 -79 -79 3 -2 43 31 90
73 67 61 86 74 91 62 15 -40 -7 -79 -95 -167 -48 -49 -86 -89 -82 -89 3 0 38
32 78 72 40 40 75 69 79 65 14 -14 -23 -75 -86 -140 -68 -72 -87 -97 -72 -97
10 0 62 53 99 102 15 21 57 70 92 110 36 40 48 57 27 38 l-39 -35 7 35 c4 22
23 52 53 82 26 27 42 48 36 48 -6 0 -24 -15 -41 -34 -34 -39 -42 -37 -42 9 0
28 15 48 101 134 56 55 103 101 105 101 2 0 4 -24 4 -52 0 -56 8 -98 19 -98 3
0 6 51 6 113 0 86 4 120 17 146 10 18 15 37 12 42 -3 5 6 30 20 54 28 52 21
60 -11 12z m-53 -163 c0 -17 -196 -224 -212 -224 -29 0 6 49 99 137 59 56 109
103 111 103 1 0 2 -7 2 -16z"/>
<path d="M3445 1779 c-5 -55 -4 -84 4 -92 8 -8 11 4 12 44 0 29 4 63 8 74 4
11 6 28 3 37 -10 39 -20 14 -27 -63z"/>
<path d="M3983 1842 c-35 -8 -63 -20 -63 -25 0 -5 8 -6 17 -2 10 3 40 11 68
17 57 12 93 28 60 27 -11 -1 -48 -8 -82 -17z"/>
<path d="M3507 1838 c-2 -7 0 -30 5 -51 5 -21 6 -42 3 -48 -4 -5 -1 -9 4 -9 6
0 11 20 11 46 l0 46 68 -7 c55 -5 65 -4 54 6 -7 8 -32 12 -62 11 -28 -1 -50 2
-50 8 0 14 -28 12 -33 -2z"/>
<path d="M3675 1810 c-3 -5 -1 -10 4 -10 6 0 11 5 11 10 0 6 -2 10 -4 10 -3 0
-8 -4 -11 -10z"/>
<path d="M3793 1793 c9 -2 25 -2 35 0 9 3 1 5 -18 5 -19 0 -27 -2 -17 -5z"/>
<path d="M3520 1704 c0 -8 5 -12 10 -9 6 3 10 10 10 16 0 5 -4 9 -10 9 -5 0
-10 -7 -10 -16z"/>
<path d="M6045 1580 c-21 -22 -36 -42 -34 -45 3 -2 22 16 43 40 46 56 42 58
-9 5z"/>
<path d="M7150 1252 c-270 -179 -334 -221 -522 -333 -87 -52 -158 -100 -158
-107 0 -9 7 -11 23 -6 52 16 68 24 63 33 -3 5 18 24 47 42 69 44 310 201 472
308 72 47 135 88 140 91 6 3 36 22 68 43 31 20 62 37 67 37 6 0 10 7 10 15 0
8 -1 15 -2 14 -2 0 -95 -62 -208 -137z"/>
<path d="M5837 1175 c-138 -139 -241 -230 -264 -230 -9 0 -18 -6 -20 -12 -3
-8 3 -13 14 -13 15 0 278 233 319 283 7 8 26 30 44 51 67 76 21 37 -93 -79z"/>
<path d="M3455 753 c5 -98 9 -192 9 -210 1 -36 19 -62 31 -43 4 6 2 17 -4 23
-5 7 -13 99 -17 210 -4 119 -11 197 -17 197 -7 0 -7 -61 -2 -177z"/>
<path d="M5986 879 c-99 -38 -133 -57 -86 -46 31 7 187 70 196 80 13 12 -8 6
-110 -34z"/>
<path d="M5820 813 c-40 -15 -148 -56 -175 -68 -16 -7 -91 -34 -165 -60 -122
-43 -171 -65 -144 -65 16 0 472 172 501 189 19 11 9 13 -17 4z"/>
<path d="M6105 713 c-16 -3 -34 -11 -40 -19 -6 -8 -134 -38 -335 -78 -307 -61
-575 -118 -720 -152 -169 -40 -345 -86 -350 -91 -7 -8 35 0 232 46 213 49 860
183 1048 217 74 13 155 24 180 24 54 0 90 20 68 37 -18 15 -48 20 -83 16z"/>
<path d="M5270 609 c-63 -4 -155 -16 -205 -28 -247 -56 -308 -71 -314 -77 -3
-3 9 -3 28 1 18 4 54 8 80 10 25 1 69 10 96 20 34 11 98 18 200 22 119 4 160
9 198 25 26 11 47 24 47 29 0 5 -3 8 -7 8 -5 -1 -60 -5 -123 -10z"/>
<path d="M3355 541 c6 -6 30 -13 55 -16 30 -4 38 -3 25 3 -33 15 -91 24 -80
13z"/>
<path d="M4718 493 c7 -3 16 -2 19 1 4 3 -2 6 -13 5 -11 0 -14 -3 -6 -6z"/>
<path d="M4548 453 c7 -3 16 -2 19 1 4 3 -2 6 -13 5 -11 0 -14 -3 -6 -6z"/>
<path d="M5005 420 c-55 -10 -165 -33 -245 -50 -80 -17 -172 -33 -206 -35 -33
-3 -90 -14 -125 -25 -35 -12 -148 -42 -251 -67 -103 -26 -184 -51 -181 -56 3
-5 -4 -6 -16 -2 -23 7 -177 -23 -167 -32 3 -3 36 1 73 10 38 9 82 15 98 15 17
-1 64 9 105 21 89 25 234 57 495 106 105 20 246 47 314 61 69 13 126 24 128
24 2 0 3 -11 3 -24 0 -27 37 -43 54 -22 6 6 28 25 49 40 31 22 36 31 26 42
-14 17 -29 17 -154 -6z"/>
<path d="M4400 420 c0 -5 4 -10 9 -10 6 0 13 5 16 10 3 6 -1 10 -9 10 -9 0
-16 -4 -16 -10z"/>
<path d="M4368 413 c7 -3 16 -2 19 1 4 3 -2 6 -13 5 -11 0 -14 -3 -6 -6z"/>
<path d="M1915 390 c3 -5 10 -10 16 -10 5 0 9 5 9 10 0 6 -7 10 -16 10 -8 0
-12 -4 -9 -10z"/>
<path d="M1997 389 c7 -7 15 -10 18 -7 3 3 -2 9 -12 12 -14 6 -15 5 -6 -5z"/>
<path d="M2048 383 c6 -2 18 -2 25 0 6 3 1 5 -13 5 -14 0 -19 -2 -12 -5z"/>
<path d="M4248 383 c7 -3 16 -2 19 1 4 3 -2 6 -13 5 -11 0 -14 -3 -6 -6z"/>
<path d="M4188 373 c6 -2 18 -2 25 0 6 3 1 5 -13 5 -14 0 -19 -2 -12 -5z"/>
<path d="M2215 360 c3 -5 8 -10 11 -10 2 0 4 5 4 10 0 6 -5 10 -11 10 -5 0 -7
-4 -4 -10z"/>
<path d="M4628 363 c7 -3 16 -2 19 1 4 3 -2 6 -13 5 -11 0 -14 -3 -6 -6z"/>
<path d="M4088 353 c7 -3 16 -2 19 1 4 3 -2 6 -13 5 -11 0 -14 -3 -6 -6z"/>
<path d="M7240 312 c-36 -14 -121 -47 -190 -74 -69 -27 -129 -54 -135 -60 -13
-14 24 -2 90 27 28 12 82 35 120 49 39 15 95 37 125 49 53 20 85 38 65 36 -6
0 -39 -12 -75 -27z"/>
<path d="M3753 293 c9 -2 23 -2 30 0 6 3 -1 5 -18 5 -16 0 -22 -2 -12 -5z"/>
<path d="M2485 280 c3 -5 11 -10 18 -10 6 0 28 -17 49 -37 31 -30 40 -35 50
-24 11 10 9 15 -6 26 -10 8 -23 12 -27 9 -5 -3 -9 0 -9 5 0 6 -16 18 -36 26
-43 18 -47 18 -39 5z"/>
<path d="M1648 183 c7 -3 16 -2 19 1 4 3 -2 6 -13 5 -11 0 -14 -3 -6 -6z"/>
<path d="M1763 183 c9 -2 23 -2 30 0 6 3 -1 5 -18 5 -16 0 -22 -2 -12 -5z"/>
<path d="M1848 183 c7 -3 16 -2 19 1 4 3 -2 6 -13 5 -11 0 -14 -3 -6 -6z"/>
<path d="M3915 150 c-7 -12 2 -12 30 0 19 8 19 9 -2 9 -12 1 -25 -3 -28 -9z"/>
<path d="M3768 143 c6 -2 18 -2 25 0 6 3 1 5 -13 5 -14 0 -19 -2 -12 -5z"/>
<path d="M2909 116 c7 -8 21 -12 31 -9 31 8 23 23 -11 23 -26 0 -29 -3 -20
-14z"/>
<path d="M4769 125 c-3 -2 -94 -15 -203 -29 -110 -14 -201 -28 -204 -31 -8 -7
21 -6 184 6 113 8 148 8 160 -2 15 -12 52 -5 122 22 37 15 28 39 -16 39 -21 0
-41 -2 -43 -5z"/>
<path d="M2868 113 c7 -3 16 -2 19 1 4 3 -2 6 -13 5 -11 0 -14 -3 -6 -6z"/>
<path d="M3058 113 c6 -2 18 -2 25 0 6 3 1 5 -13 5 -14 0 -19 -2 -12 -5z"/>
<path d="M3615 110 c-25 -11 1 -11 35 0 20 6 21 8 5 8 -11 0 -29 -3 -40 -8z"/>
<path d="M3130 100 c8 -5 22 -9 30 -9 10 0 8 3 -5 9 -27 12 -43 12 -25 0z"/>
<path d="M3190 80 c8 -5 22 -10 30 -10 13 0 13 1 0 10 -8 5 -22 10 -30 10 -13
0 -13 -1 0 -10z"/>
<path d="M3253 63 c9 -14 47 -24 47 -12 0 5 -4 9 -9 9 -5 0 -17 3 -27 7 -11 4
-15 3 -11 -4z"/>
<path d="M3440 60 c-13 -8 -12 -10 3 -10 9 0 17 5 17 10 0 12 -1 12 -20 0z"/>
<path d="M3603 53 c-24 -8 -43 -19 -43 -24 0 -5 2 -9 4 -9 10 0 96 40 96 45 0
7 -9 5 -57 -12z"/>
<path d="M4230 54 l-95 -13 79 4 c43 3 92 5 108 5 15 0 28 5 28 10 0 6 -6 9
-12 8 -7 0 -56 -7 -108 -14z"/>
<path d="M6958 63 c7 -3 16 -2 19 1 4 3 -2 6 -13 5 -11 0 -14 -3 -6 -6z"/>
<path d="M6790 37 c-25 -6 -38 -12 -30 -14 8 -1 38 3 65 11 58 17 31 19 -35 3z"/>
<path d="M4088 33 c6 -2 18 -2 25 0 6 3 1 5 -13 5 -14 0 -19 -2 -12 -5z"/>
<path d="M3978 23 c7 -3 16 -2 19 1 4 3 -2 6 -13 5 -11 0 -14 -3 -6 -6z"/>
</g>
</svg>
